<ttFont>
    <TTGlyph name="A" xMin="-27" yMin="-12" xMax="603" yMax="710">
      <contour>
        <pt x="60" y="13" on="1"/>
        <pt x="53" y="-9" on="0"/>
        <pt x="4" y="-9" on="0"/>
        <pt x="-27" y="18" on="1"/>
        <pt x="3" y="106" on="0"/>
        <pt x="197" y="497" on="0"/>
        <pt x="226" y="594" on="1"/>
        <pt x="230" y="610" on="0"/>
        <pt x="230" y="616" on="1"/>
        <pt x="230" y="631" on="0"/>
        <pt x="208" y="662" on="1"/>
        <pt x="200" y="673" on="1"/>
        <pt x="202" y="686" on="1"/>
        <pt x="287" y="710" on="0"/>
        <pt x="390" y="710" on="1"/>
        <pt x="451" y="706" on="1"/>
        <pt x="462" y="691" on="0"/>
        <pt x="468" y="660" on="1"/>
        <pt x="484" y="584" on="0"/>
        <pt x="484" y="269" on="1"/>
        <pt x="484" y="147" on="0"/>
        <pt x="505" y="97" on="1"/>
        <pt x="513" y="78" on="0"/>
        <pt x="529" y="78" on="0"/>
        <pt x="570" y="98" on="1"/>
        <pt x="583" y="104" on="1"/>
        <pt x="603" y="68" on="1"/>
        <pt x="565" y="31" on="0"/>
        <pt x="472" y="-12" on="0"/>
        <pt x="433" y="-12" on="1"/>
        <pt x="332" y="-12" on="0"/>
        <pt x="332" y="145" on="1"/>
        <pt x="332" y="224" on="1"/>
        <pt x="306" y="230" on="0"/>
        <pt x="200" y="230" on="0"/>
        <pt x="137" y="220" on="1"/>
        <pt x="87" y="104" on="0"/>
      </contour>
      <contour>
        <pt x="334" y="292" on="1"/>
        <pt x="335" y="408" on="1"/>
        <pt x="335" y="560" on="0"/>
        <pt x="322" y="614" on="1"/>
        <pt x="314" y="614" on="0"/>
        <pt x="310" y="612" on="1"/>
        <pt x="282" y="535" on="0"/>
        <pt x="233" y="428" on="0"/>
        <pt x="176" y="307" on="0"/>
        <pt x="169" y="292" on="1"/>
      </contour>
    </TTGlyph>
    <TTGlyph name="AE" xMin="-27" yMin="-12" xMax="737" yMax="710">
      <contour>
        <pt x="468" y="365" on="1"/>
        <pt x="528" y="375" on="0"/>
        <pt x="657" y="375" on="0"/>
        <pt x="686" y="366" on="1"/>
        <pt x="686" y="331" on="0"/>
        <pt x="672" y="304" on="1"/>
        <pt x="668" y="295" on="1"/>
        <pt x="611" y="304" on="0"/>
        <pt x="578" y="304" on="1"/>
        <pt x="526" y="304" on="0"/>
        <pt x="478" y="298" on="1"/>
        <pt x="465" y="297" on="1"/>
        <pt x="462" y="243" on="1"/>
        <pt x="462" y="112" on="0"/>
        <pt x="496" y="90" on="1"/>
        <pt x="513" y="80" on="0"/>
        <pt x="592" y="80" on="0"/>
        <pt x="719" y="128" on="1"/>
        <pt x="737" y="77" on="1"/>
        <pt x="698" y="45" on="0"/>
        <pt x="550" y="-12" on="0"/>
        <pt x="380" y="-12" on="0"/>
        <pt x="307" y="90" on="0"/>
        <pt x="307" y="193" on="1"/>
        <pt x="307" y="245" on="0"/>
        <pt x="310" y="281" on="1"/>
        <pt x="233" y="275" on="0"/>
        <pt x="158" y="256" on="1"/>
        <pt x="102" y="134" on="0"/>
        <pt x="64" y="15" on="1"/>
        <pt x="57" y="-7" on="0"/>
        <pt x="33" y="-9" on="1"/>
        <pt x="2" y="-9" on="0"/>
        <pt x="-27" y="18" on="1"/>
        <pt x="6" y="117" on="0"/>
        <pt x="200" y="515" on="0"/>
        <pt x="233" y="607" on="1"/>
        <pt x="234" y="609" on="0"/>
        <pt x="234" y="616" on="1"/>
        <pt x="234" y="633" on="0"/>
        <pt x="216" y="663" on="1"/>
        <pt x="210" y="673" on="1"/>
        <pt x="212" y="686" on="1"/>
        <pt x="297" y="710" on="0"/>
        <pt x="417" y="710" on="1"/>
        <pt x="658" y="706" on="1"/>
        <pt x="687" y="706" on="0"/>
        <pt x="729" y="708" on="1"/>
        <pt x="732" y="681" on="0"/>
        <pt x="732" y="669" on="1"/>
        <pt x="732" y="617" on="0"/>
        <pt x="695" y="617" on="1"/>
        <pt x="686" y="617" on="0"/>
        <pt x="568" y="632" on="0"/>
        <pt x="508" y="632" on="0"/>
        <pt x="485" y="629" on="1"/>
        <pt x="476" y="496" on="0"/>
      </contour>
      <contour>
        <pt x="337" y="618" on="1"/>
        <pt x="324" y="618" on="0"/>
        <pt x="316" y="614" on="1"/>
        <pt x="290" y="537" on="0"/>
        <pt x="197" y="338" on="1"/>
        <pt x="272" y="352" on="0"/>
        <pt x="315" y="355" on="1"/>
        <pt x="337" y="590" on="0"/>
      </contour>
    </TTGlyph>
    <TTGlyph name="Aacute" xMin="-27" yMin="-12" xMax="603" yMax="931">
      <contour>
        <pt x="60" y="13" on="1"/>
        <pt x="53" y="-9" on="0"/>
        <pt x="4" y="-9" on="0"/>
        <pt x="-27" y="18" on="1"/>
        <pt x="3" y="106" on="0"/>
        <pt x="197" y="497" on="0"/>
        <pt x="226" y="594" on="1"/>
        <pt x="230" y="610" on="0"/>
        <pt x="230" y="616" on="1"/>
        <pt x="230" y="631" on="0"/>
        <pt x="208" y="662" on="1"/>
        <pt x="200" y="673" on="1"/>
        <pt x="202" y="686" on="1"/>
        <pt x="287" y="710" on="0"/>
        <pt x="390" y="710" on="1"/>
        <pt x="451" y="706" on="1"/>
        <pt x="462" y="691" on="0"/>
        <pt x="468" y="660" on="1"/>
        <pt x="484" y="584" on="0"/>
        <pt x="484" y="269" on="1"/>
        <pt x="484" y="147" on="0"/>
        <pt x="505" y="97" on="1"/>
        <pt x="513" y="78" on="0"/>
        <pt x="529" y="78" on="0"/>
        <pt x="570" y="98" on="1"/>
        <pt x="583" y="104" on="1"/>
        <pt x="603" y="68" on="1"/>
        <pt x="565" y="31" on="0"/>
        <pt x="472" y="-12" on="0"/>
        <pt x="433" y="-12" on="1"/>
        <pt x="332" y="-12" on="0"/>
        <pt x="332" y="145" on="1"/>
        <pt x="332" y="224" on="1"/>
        <pt x="306" y="230" on="0"/>
        <pt x="200" y="230" on="0"/>
        <pt x="137" y="220" on="1"/>
        <pt x="87" y="104" on="0"/>
      </contour>
      <contour>
        <pt x="334" y="292" on="1"/>
        <pt x="335" y="408" on="1"/>
        <pt x="335" y="560" on="0"/>
        <pt x="322" y="614" on="1"/>
        <pt x="314" y="614" on="0"/>
        <pt x="310" y="612" on="1"/>
        <pt x="282" y="535" on="0"/>
        <pt x="233" y="428" on="0"/>
        <pt x="176" y="307" on="0"/>
        <pt x="169" y="292" on="1"/>
      </contour>
      <contour>
        <pt x="539" y="846" on="1"/>
        <pt x="539" y="818" on="0"/>
        <pt x="502" y="802" on="1"/>
        <pt x="411" y="776" on="0"/>
        <pt x="240" y="750" on="1"/>
        <pt x="219" y="796" on="1"/>
        <pt x="429" y="891" on="0"/>
        <pt x="502" y="931" on="1"/>
        <pt x="513" y="915" on="0"/>
        <pt x="539" y="856" on="0"/>
      </contour>
    </TTGlyph>
    <TTGlyph name="Acircumflex" xMin="-27" yMin="-12" xMax="603" yMax="919">
      <contour>
        <pt x="60" y="13" on="1"/>
        <pt x="53" y="-9" on="0"/>
        <pt x="4" y="-9" on="0"/>
        <pt x="-27" y="18" on="1"/>
        <pt x="3" y="106" on="0"/>
        <pt x="197" y="497" on="0"/>
        <pt x="226" y="594" on="1"/>
        <pt x="230" y="610" on="0"/>
        <pt x="230" y="616" on="1"/>
        <pt x="230" y="631" on="0"/>
        <pt x="208" y="662" on="1"/>
        <pt x="200" y="673" on="1"/>
        <pt x="202" y="686" on="1"/>
        <pt x="287" y="710" on="0"/>
        <pt x="390" y="710" on="1"/>
        <pt x="451" y="706" on="1"/>
        <pt x="462" y="691" on="0"/>
        <pt x="468" y="660" on="1"/>
        <pt x="484" y="584" on="0"/>
        <pt x="484" y="269" on="1"/>
        <pt x="484" y="147" on="0"/>
        <pt x="505" y="97" on="1"/>
        <pt x="513" y="78" on="0"/>
        <pt x="529" y="78" on="0"/>
        <pt x="570" y="98" on="1"/>
        <pt x="583" y="104" on="1"/>
        <pt x="603" y="68" on="1"/>
        <pt x="565" y="31" on="0"/>
        <pt x="472" y="-12" on="0"/>
        <pt x="433" y="-12" on="1"/>
        <pt x="332" y="-12" on="0"/>
        <pt x="332" y="145" on="1"/>
        <pt x="332" y="224" on="1"/>
        <pt x="306" y="230" on="0"/>
        <pt x="200" y="230" on="0"/>
        <pt x="137" y="220" on="1"/>
        <pt x="87" y="104" on="0"/>
      </contour>
      <contour>
        <pt x="334" y="292" on="1"/>
        <pt x="335" y="408" on="1"/>
        <pt x="335" y="560" on="0"/>
        <pt x="322" y="614" on="1"/>
        <pt x="314" y="614" on="0"/>
        <pt x="310" y="612" on="1"/>
        <pt x="282" y="535" on="0"/>
        <pt x="233" y="428" on="0"/>
        <pt x="176" y="307" on="0"/>
        <pt x="169" y="292" on="1"/>
      </contour>
      <contour>
        <pt x="204" y="819" on="0"/>
        <pt x="384" y="919" on="0"/>
        <pt x="437" y="919" on="0"/>
        <pt x="525" y="816" on="0"/>
        <pt x="552" y="775" on="1"/>
        <pt x="518" y="743" on="1"/>
        <pt x="411" y="797" on="0"/>
        <pt x="379" y="804" on="1"/>
        <pt x="328" y="795" on="0"/>
        <pt x="189" y="742" on="0"/>
        <pt x="180" y="739" on="1"/>
        <pt x="153" y="776" on="1"/>
      </contour>
    </TTGlyph>
    <TTGlyph name="Adieresis" xMin="-27" yMin="-12" xMax="603" yMax="899">
      <contour>
        <pt x="60" y="13" on="1"/>
        <pt x="53" y="-9" on="0"/>
        <pt x="4" y="-9" on="0"/>
        <pt x="-27" y="18" on="1"/>
        <pt x="3" y="106" on="0"/>
        <pt x="197" y="497" on="0"/>
        <pt x="226" y="594" on="1"/>
        <pt x="230" y="610" on="0"/>
        <pt x="230" y="616" on="1"/>
        <pt x="230" y="631" on="0"/>
        <pt x="208" y="662" on="1"/>
        <pt x="200" y="673" on="1"/>
        <pt x="202" y="686" on="1"/>
        <pt x="287" y="710" on="0"/>
        <pt x="390" y="710" on="1"/>
        <pt x="451" y="706" on="1"/>
        <pt x="462" y="691" on="0"/>
        <pt x="468" y="660" on="1"/>
        <pt x="484" y="584" on="0"/>
        <pt x="484" y="269" on="1"/>
        <pt x="484" y="147" on="0"/>
        <pt x="505" y="97" on="1"/>
        <pt x="513" y="78" on="0"/>
        <pt x="529" y="78" on="0"/>
        <pt x="570" y="98" on="1"/>
        <pt x="583" y="104" on="1"/>
        <pt x="603" y="68" on="1"/>
        <pt x="565" y="31" on="0"/>
        <pt x="472" y="-12" on="0"/>
        <pt x="433" y="-12" on="1"/>
        <pt x="332" y="-12" on="0"/>
        <pt x="332" y="145" on="1"/>
        <pt x="332" y="224" on="1"/>
        <pt x="306" y="230" on="0"/>
        <pt x="200" y="230" on="0"/>
        <pt x="137" y="220" on="1"/>
        <pt x="87" y="104" on="0"/>
      </contour>
      <contour>
        <pt x="334" y="292" on="1"/>
        <pt x="335" y="408" on="1"/>
        <pt x="335" y="560" on="0"/>
        <pt x="322" y="614" on="1"/>
        <pt x="314" y="614" on="0"/>
        <pt x="310" y="612" on="1"/>
        <pt x="282" y="535" on="0"/>
        <pt x="233" y="428" on="0"/>
        <pt x="176" y="307" on="0"/>
        <pt x="169" y="292" on="1"/>
      </contour>
      <contour>
        <pt x="230" y="765" on="0"/>
        <pt x="197" y="799" on="0"/>
        <pt x="197" y="858" on="0"/>
        <pt x="243" y="899" on="0"/>
        <pt x="274" y="899" on="1"/>
        <pt x="339" y="899" on="0"/>
        <pt x="339" y="836" on="1"/>
        <pt x="339" y="808" on="0"/>
        <pt x="292" y="765" on="0"/>
      </contour>
      <contour>
        <pt x="435" y="765" on="0"/>
        <pt x="403" y="799" on="0"/>
        <pt x="403" y="858" on="0"/>
        <pt x="448" y="899" on="0"/>
        <pt x="479" y="899" on="1"/>
        <pt x="545" y="899" on="0"/>
        <pt x="545" y="836" on="1"/>
        <pt x="545" y="808" on="0"/>
        <pt x="497" y="765" on="0"/>
      </contour>
    </TTGlyph>
    <TTGlyph name="Agrave" xMin="-27" yMin="-12" xMax="603" yMax="915">
      <contour>
        <pt x="60" y="13" on="1"/>
        <pt x="53" y="-9" on="0"/>
        <pt x="4" y="-9" on="0"/>
        <pt x="-27" y="18" on="1"/>
        <pt x="3" y="106" on="0"/>
        <pt x="197" y="497" on="0"/>
        <pt x="226" y="594" on="1"/>
        <pt x="230" y="610" on="0"/>
        <pt x="230" y="616" on="1"/>
        <pt x="230" y="631" on="0"/>
        <pt x="208" y="662" on="1"/>
        <pt x="200" y="673" on="1"/>
        <pt x="202" y="686" on="1"/>
        <pt x="287" y="710" on="0"/>
        <pt x="390" y="710" on="1"/>
        <pt x="451" y="706" on="1"/>
        <pt x="462" y="691" on="0"/>
        <pt x="468" y="660" on="1"/>
        <pt x="484" y="584" on="0"/>
        <pt x="484" y="269" on="1"/>
        <pt x="484" y="147" on="0"/>
        <pt x="505" y="97" on="1"/>
        <pt x="513" y="78" on="0"/>
        <pt x="529" y="78" on="0"/>
        <pt x="570" y="98" on="1"/>
        <pt x="583" y="104" on="1"/>
        <pt x="603" y="68" on="1"/>
        <pt x="565" y="31" on="0"/>
        <pt x="472" y="-12" on="0"/>
        <pt x="433" y="-12" on="1"/>
        <pt x="332" y="-12" on="0"/>
        <pt x="332" y="145" on="1"/>
        <pt x="332" y="224" on="1"/>
        <pt x="306" y="230" on="0"/>
        <pt x="200" y="230" on="0"/>
        <pt x="137" y="220" on="1"/>
        <pt x="87" y="104" on="0"/>
      </contour>
      <contour>
        <pt x="334" y="292" on="1"/>
        <pt x="335" y="408" on="1"/>
        <pt x="335" y="560" on="0"/>
        <pt x="322" y="614" on="1"/>
        <pt x="314" y="614" on="0"/>
        <pt x="310" y="612" on="1"/>
        <pt x="282" y="535" on="0"/>
        <pt x="233" y="428" on="0"/>
        <pt x="176" y="307" on="0"/>
        <pt x="169" y="292" on="1"/>
      </contour>
      <contour>
        <pt x="239" y="915" on="1"/>
        <pt x="279" y="915" on="0"/>
        <pt x="498" y="783" on="1"/>
        <pt x="481" y="736" on="1"/>
        <pt x="386" y="764" on="0"/>
        <pt x="175" y="819" on="1"/>
        <pt x="201" y="915" on="0"/>
      </contour>
    </TTGlyph>
    <TTGlyph name="Aring" xMin="-27" yMin="-12" xMax="603" yMax="938">
      <contour>
        <pt x="60" y="13" on="1"/>
        <pt x="53" y="-9" on="0"/>
        <pt x="4" y="-9" on="0"/>
        <pt x="-27" y="18" on="1"/>
        <pt x="3" y="106" on="0"/>
        <pt x="197" y="497" on="0"/>
        <pt x="226" y="594" on="1"/>
        <pt x="230" y="610" on="0"/>
        <pt x="230" y="616" on="1"/>
        <pt x="230" y="631" on="0"/>
        <pt x="208" y="662" on="1"/>
        <pt x="200" y="673" on="1"/>
        <pt x="202" y="686" on="1"/>
        <pt x="287" y="710" on="0"/>
        <pt x="390" y="710" on="1"/>
        <pt x="451" y="706" on="1"/>
        <pt x="462" y="691" on="0"/>
        <pt x="468" y="660" on="1"/>
        <pt x="484" y="584" on="0"/>
        <pt x="484" y="269" on="1"/>
        <pt x="484" y="147" on="0"/>
        <pt x="505" y="97" on="1"/>
        <pt x="513" y="78" on="0"/>
        <pt x="529" y="78" on="0"/>
        <pt x="570" y="98" on="1"/>
        <pt x="583" y="104" on="1"/>
        <pt x="603" y="68" on="1"/>
        <pt x="565" y="31" on="0"/>
        <pt x="472" y="-12" on="0"/>
        <pt x="433" y="-12" on="1"/>
        <pt x="332" y="-12" on="0"/>
        <pt x="332" y="145" on="1"/>
        <pt x="332" y="224" on="1"/>
        <pt x="306" y="230" on="0"/>
        <pt x="200" y="230" on="0"/>
        <pt x="137" y="220" on="1"/>
        <pt x="87" y="104" on="0"/>
      </contour>
      <contour>
        <pt x="334" y="292" on="1"/>
        <pt x="335" y="408" on="1"/>
        <pt x="335" y="560" on="0"/>
        <pt x="322" y="614" on="1"/>
        <pt x="314" y="614" on="0"/>
        <pt x="310" y="612" on="1"/>
        <pt x="282" y="535" on="0"/>
        <pt x="233" y="428" on="0"/>
        <pt x="176" y="307" on="0"/>
        <pt x="169" y="292" on="1"/>
      </contour>
      <contour>
        <pt x="313" y="741" on="0"/>
        <pt x="256" y="798" on="0"/>
        <pt x="256" y="883" on="0"/>
        <pt x="313" y="938" on="0"/>
        <pt x="415" y="938" on="0"/>
        <pt x="472" y="883" on="0"/>
        <pt x="472" y="798" on="0"/>
        <pt x="415" y="741" on="0"/>
      </contour>
      <contour>
        <pt x="310" y="861" on="0"/>
        <pt x="310" y="819" on="0"/>
        <pt x="339" y="792" on="0"/>
        <pt x="389" y="792" on="0"/>
        <pt x="415" y="819" on="0"/>
        <pt x="415" y="861" on="0"/>
        <pt x="389" y="888" on="0"/>
        <pt x="339" y="888" on="0"/>
      </contour>
    </TTGlyph>
    <TTGlyph name="Atilde" xMin="-27" yMin="-12" xMax="603" yMax="901">
      <contour>
        <pt x="60" y="13" on="1"/>
        <pt x="53" y="-9" on="0"/>
        <pt x="4" y="-9" on="0"/>
        <pt x="-27" y="18" on="1"/>
        <pt x="3" y="106" on="0"/>
        <pt x="197" y="497" on="0"/>
        <pt x="226" y="594" on="1"/>
        <pt x="230" y="610" on="0"/>
        <pt x="230" y="616" on="1"/>
        <pt x="230" y="631" on="0"/>
        <pt x="208" y="662" on="1"/>
        <pt x="200" y="673" on="1"/>
        <pt x="202" y="686" on="1"/>
        <pt x="287" y="710" on="0"/>
        <pt x="390" y="710" on="1"/>
        <pt x="451" y="706" on="1"/>
        <pt x="462" y="691" on="0"/>
        <pt x="468" y="660" on="1"/>
        <pt x="484" y="584" on="0"/>
        <pt x="484" y="269" on="1"/>
        <pt x="484" y="147" on="0"/>
        <pt x="505" y="97" on="1"/>
        <pt x="513" y="78" on="0"/>
        <pt x="529" y="78" on="0"/>
        <pt x="570" y="98" on="1"/>
        <pt x="583" y="104" on="1"/>
        <pt x="603" y="68" on="1"/>
        <pt x="565" y="31" on="0"/>
        <pt x="472" y="-12" on="0"/>
        <pt x="433" y="-12" on="1"/>
        <pt x="332" y="-12" on="0"/>
        <pt x="332" y="145" on="1"/>
        <pt x="332" y="224" on="1"/>
        <pt x="306" y="230" on="0"/>
        <pt x="200" y="230" on="0"/>
        <pt x="137" y="220" on="1"/>
        <pt x="87" y="104" on="0"/>
      </contour>
      <contour>
        <pt x="334" y="292" on="1"/>
        <pt x="335" y="408" on="1"/>
        <pt x="335" y="560" on="0"/>
        <pt x="322" y="614" on="1"/>
        <pt x="314" y="614" on="0"/>
        <pt x="310" y="612" on="1"/>
        <pt x="282" y="535" on="0"/>
        <pt x="233" y="428" on="0"/>
        <pt x="176" y="307" on="0"/>
        <pt x="169" y="292" on="1"/>
      </contour>
      <contour>
        <pt x="168" y="765" on="1"/>
        <pt x="182" y="901" on="0"/>
        <pt x="270" y="901" on="1"/>
        <pt x="304" y="901" on="0"/>
        <pt x="445" y="865" on="0"/>
        <pt x="490" y="865" on="0"/>
        <pt x="499" y="866" on="1"/>
        <pt x="519" y="870" on="0"/>
        <pt x="535" y="898" on="1"/>
        <pt x="567" y="892" on="1"/>
        <pt x="563" y="851" on="0"/>
        <pt x="550" y="819" on="1"/>
        <pt x="530" y="763" on="0"/>
        <pt x="464" y="763" on="1"/>
        <pt x="441" y="763" on="0"/>
        <pt x="306" y="798" on="0"/>
        <pt x="243" y="798" on="0"/>
        <pt x="215" y="783" on="0"/>
        <pt x="201" y="758" on="1"/>
      </contour>
    </TTGlyph>
    <TTGlyph name="B" xMin="44" yMin="-12" xMax="579" yMax="710">
      <contour>
        <pt x="330" y="-12" on="1"/>
        <pt x="276" y="-12" on="0"/>
        <pt x="193" y="8" on="1"/>
        <pt x="141" y="-6" on="0"/>
        <pt x="51" y="-6" on="0"/>
        <pt x="44" y="-3" on="1"/>
        <pt x="51" y="57" on="0"/>
        <pt x="156" y="528" on="0"/>
        <pt x="156" y="588" on="1"/>
        <pt x="156" y="600" on="0"/>
        <pt x="130" y="640" on="0"/>
        <pt x="117" y="654" on="1"/>
        <pt x="104" y="668" on="1"/>
        <pt x="107" y="683" on="1"/>
        <pt x="238" y="710" on="0"/>
        <pt x="389" y="710" on="1"/>
        <pt x="472" y="710" on="0"/>
        <pt x="579" y="631" on="0"/>
        <pt x="579" y="560" on="1"/>
        <pt x="579" y="423" on="0"/>
        <pt x="412" y="370" on="1"/>
        <pt x="479" y="362" on="0"/>
        <pt x="570" y="277" on="0"/>
        <pt x="570" y="200" on="1"/>
        <pt x="570" y="106" on="0"/>
        <pt x="434" y="-12" on="0"/>
      </contour>
      <contour>
        <pt x="312" y="343" on="1"/>
        <pt x="284" y="343" on="0"/>
        <pt x="262" y="338" on="1"/>
        <pt x="219" y="148" on="0"/>
        <pt x="207" y="73" on="1"/>
        <pt x="232" y="56" on="0"/>
        <pt x="339" y="56" on="0"/>
        <pt x="415" y="141" on="0"/>
        <pt x="415" y="221" on="1"/>
        <pt x="415" y="343" on="0"/>
      </contour>
      <contour>
        <pt x="368" y="648" on="1"/>
        <pt x="330" y="648" on="0"/>
        <pt x="323" y="641" on="1"/>
        <pt x="309" y="551" on="0"/>
        <pt x="277" y="405" on="1"/>
        <pt x="317" y="405" on="0"/>
        <pt x="349" y="415" on="0"/>
        <pt x="374" y="431" on="0"/>
        <pt x="390" y="448" on="1"/>
        <pt x="425" y="485" on="0"/>
        <pt x="425" y="648" on="0"/>
      </contour>
    </TTGlyph>
    <TTGlyph name="C" xMin="51" yMin="-12" xMax="577" yMax="710">
      <contour>
        <pt x="266" y="-12" on="1"/>
        <pt x="173" y="-12" on="0"/>
        <pt x="51" y="139" on="0"/>
        <pt x="51" y="383" on="0"/>
        <pt x="135" y="584" on="0"/>
        <pt x="291" y="710" on="0"/>
        <pt x="468" y="710" on="0"/>
        <pt x="577" y="630" on="0"/>
        <pt x="577" y="519" on="0"/>
        <pt x="544" y="480" on="1"/>
        <pt x="512" y="480" on="0"/>
        <pt x="432" y="508" on="0"/>
        <pt x="412" y="528" on="1"/>
        <pt x="431" y="629" on="1"/>
        <pt x="407" y="644" on="0"/>
        <pt x="368" y="644" on="1"/>
        <pt x="307" y="644" on="0"/>
        <pt x="213" y="435" on="0"/>
        <pt x="213" y="282" on="1"/>
        <pt x="213" y="181" on="0"/>
        <pt x="280" y="90" on="0"/>
        <pt x="328" y="90" on="1"/>
        <pt x="407" y="90" on="0"/>
        <pt x="480" y="164" on="1"/>
        <pt x="521" y="127" on="1"/>
        <pt x="510" y="111" on="0"/>
        <pt x="452" y="55" on="0"/>
        <pt x="396" y="18" on="0"/>
        <pt x="310" y="-12" on="0"/>
      </contour>
    </TTGlyph>
    <TTGlyph name="Ccedilla" xMin="51" yMin="-194" xMax="577" yMax="710">
      <contour>
        <pt x="272" y="-94" on="1"/>
        <pt x="272" y="-118" on="0"/>
        <pt x="320" y="-118" on="0"/>
        <pt x="353" y="-102" on="1"/>
        <pt x="364" y="-96" on="1"/>
        <pt x="382" y="-130" on="1"/>
        <pt x="375" y="-137" on="0"/>
        <pt x="351" y="-158" on="0"/>
        <pt x="279" y="-194" on="0"/>
        <pt x="217" y="-194" on="0"/>
        <pt x="179" y="-157" on="0"/>
        <pt x="179" y="-100" on="0"/>
        <pt x="224" y="-35" on="0"/>
        <pt x="253" y="-11" on="1"/>
        <pt x="165" y="-6" on="0"/>
        <pt x="51" y="143" on="0"/>
        <pt x="51" y="383" on="0"/>
        <pt x="135" y="584" on="0"/>
        <pt x="291" y="710" on="0"/>
        <pt x="468" y="710" on="0"/>
        <pt x="577" y="630" on="0"/>
        <pt x="577" y="519" on="0"/>
        <pt x="544" y="480" on="1"/>
        <pt x="512" y="480" on="0"/>
        <pt x="432" y="508" on="0"/>
        <pt x="412" y="528" on="1"/>
        <pt x="431" y="629" on="1"/>
        <pt x="407" y="644" on="0"/>
        <pt x="368" y="644" on="1"/>
        <pt x="307" y="644" on="0"/>
        <pt x="213" y="435" on="0"/>
        <pt x="213" y="282" on="1"/>
        <pt x="213" y="181" on="0"/>
        <pt x="280" y="90" on="0"/>
        <pt x="328" y="90" on="1"/>
        <pt x="407" y="90" on="0"/>
        <pt x="480" y="164" on="1"/>
        <pt x="521" y="127" on="1"/>
        <pt x="472" y="61" on="0"/>
        <pt x="394" y="21" on="1"/>
        <pt x="362" y="4" on="0"/>
        <pt x="328" y="-4" on="1"/>
        <pt x="304" y="-24" on="0"/>
        <pt x="272" y="-75" on="0"/>
      </contour>
    </TTGlyph>
    <TTGlyph name="D" xMin="44" yMin="-12" xMax="636" yMax="710">
      <contour>
        <pt x="307" y="-12" on="1"/>
        <pt x="249" y="-12" on="0"/>
        <pt x="187" y="7" on="1"/>
        <pt x="135" y="-6" on="0"/>
        <pt x="58" y="-6" on="0"/>
        <pt x="44" y="-4" on="1"/>
        <pt x="51" y="55" on="0"/>
        <pt x="158" y="536" on="0"/>
        <pt x="158" y="601" on="0"/>
        <pt x="131" y="649" on="0"/>
        <pt x="118" y="660" on="1"/>
        <pt x="104" y="671" on="1"/>
        <pt x="107" y="686" on="1"/>
        <pt x="133" y="693" on="0"/>
        <pt x="294" y="710" on="0"/>
        <pt x="354" y="710" on="1"/>
        <pt x="493" y="710" on="0"/>
        <pt x="636" y="587" on="0"/>
        <pt x="636" y="449" on="1"/>
        <pt x="636" y="336" on="0"/>
        <pt x="561" y="129" on="0"/>
        <pt x="407" y="-12" on="0"/>
      </contour>
      <contour>
        <pt x="378" y="647" on="1"/>
        <pt x="352" y="647" on="0"/>
        <pt x="319" y="641" on="1"/>
        <pt x="309" y="535" on="0"/>
        <pt x="216" y="128" on="0"/>
        <pt x="208" y="72" on="1"/>
        <pt x="232" y="60" on="0"/>
        <pt x="316" y="60" on="0"/>
        <pt x="391" y="127" on="0"/>
        <pt x="437" y="227" on="0"/>
        <pt x="454" y="289" on="1"/>
        <pt x="483" y="400" on="0"/>
        <pt x="483" y="582" on="0"/>
        <pt x="435" y="647" on="0"/>
      </contour>
    </TTGlyph>
    <TTGlyph name="E" xMin="42" yMin="-12" xMax="545" yMax="710">
      <contour>
        <pt x="249" y="-12" on="1"/>
        <pt x="179" y="-12" on="0"/>
        <pt x="115" y="28" on="1"/>
        <pt x="83" y="48" on="0"/>
        <pt x="42" y="120" on="0"/>
        <pt x="42" y="167" on="1"/>
        <pt x="42" y="256" on="0"/>
        <pt x="160" y="368" on="0"/>
        <pt x="243" y="377" on="1"/>
        <pt x="187" y="392" on="0"/>
        <pt x="120" y="466" on="0"/>
        <pt x="120" y="523" on="1"/>
        <pt x="120" y="609" on="0"/>
        <pt x="255" y="710" on="0"/>
        <pt x="429" y="710" on="0"/>
        <pt x="545" y="636" on="0"/>
        <pt x="545" y="573" on="1"/>
        <pt x="545" y="551" on="0"/>
        <pt x="530" y="509" on="0"/>
        <pt x="522" y="500" on="1"/>
        <pt x="515" y="490" on="1"/>
        <pt x="483" y="490" on="0"/>
        <pt x="406" y="512" on="0"/>
        <pt x="388" y="529" on="1"/>
        <pt x="400" y="632" on="1"/>
        <pt x="385" y="647" on="0"/>
        <pt x="314" y="647" on="0"/>
        <pt x="273" y="574" on="0"/>
        <pt x="273" y="480" on="0"/>
        <pt x="295" y="432" on="0"/>
        <pt x="315" y="419" on="1"/>
        <pt x="346" y="399" on="0"/>
        <pt x="388" y="391" on="1"/>
        <pt x="380" y="336" on="1"/>
        <pt x="308" y="336" on="0"/>
        <pt x="202" y="251" on="0"/>
        <pt x="202" y="181" on="1"/>
        <pt x="202" y="137" on="0"/>
        <pt x="259" y="80" on="0"/>
        <pt x="304" y="80" on="1"/>
        <pt x="386" y="80" on="0"/>
        <pt x="472" y="163" on="1"/>
        <pt x="512" y="126" on="1"/>
        <pt x="396" y="-12" on="0"/>
      </contour>
    </TTGlyph>
    <TTGlyph name="Eacute" xMin="42" yMin="-12" xMax="550" yMax="931">
      <contour>
        <pt x="249" y="-12" on="1"/>
        <pt x="179" y="-12" on="0"/>
        <pt x="115" y="28" on="1"/>
        <pt x="83" y="48" on="0"/>
        <pt x="42" y="120" on="0"/>
        <pt x="42" y="167" on="1"/>
        <pt x="42" y="256" on="0"/>
        <pt x="160" y="368" on="0"/>
        <pt x="243" y="377" on="1"/>
        <pt x="187" y="392" on="0"/>
        <pt x="120" y="466" on="0"/>
        <pt x="120" y="523" on="1"/>
        <pt x="120" y="609" on="0"/>
        <pt x="255" y="710" on="0"/>
        <pt x="429" y="710" on="0"/>
        <pt x="545" y="636" on="0"/>
        <pt x="545" y="573" on="1"/>
        <pt x="545" y="551" on="0"/>
        <pt x="530" y="509" on="0"/>
        <pt x="522" y="500" on="1"/>
        <pt x="515" y="490" on="1"/>
        <pt x="483" y="490" on="0"/>
        <pt x="406" y="512" on="0"/>
        <pt x="388" y="529" on="1"/>
        <pt x="400" y="632" on="1"/>
        <pt x="385" y="647" on="0"/>
        <pt x="314" y="647" on="0"/>
        <pt x="273" y="574" on="0"/>
        <pt x="273" y="480" on="0"/>
        <pt x="295" y="432" on="0"/>
        <pt x="315" y="419" on="1"/>
        <pt x="346" y="399" on="0"/>
        <pt x="388" y="391" on="1"/>
        <pt x="380" y="336" on="1"/>
        <pt x="308" y="336" on="0"/>
        <pt x="202" y="251" on="0"/>
        <pt x="202" y="181" on="1"/>
        <pt x="202" y="137" on="0"/>
        <pt x="259" y="80" on="0"/>
        <pt x="304" y="80" on="1"/>
        <pt x="386" y="80" on="0"/>
        <pt x="472" y="163" on="1"/>
        <pt x="512" y="126" on="1"/>
        <pt x="396" y="-12" on="0"/>
      </contour>
      <contour>
        <pt x="550" y="846" on="1"/>
        <pt x="550" y="818" on="0"/>
        <pt x="513" y="802" on="1"/>
        <pt x="422" y="776" on="0"/>
        <pt x="251" y="750" on="1"/>
        <pt x="230" y="796" on="1"/>
        <pt x="440" y="891" on="0"/>
        <pt x="513" y="931" on="1"/>
        <pt x="524" y="915" on="0"/>
        <pt x="550" y="856" on="0"/>
      </contour>
    </TTGlyph>
    <TTGlyph name="Ecircumflex" xMin="42" yMin="-12" xMax="545" yMax="919">
      <contour>
        <pt x="249" y="-12" on="1"/>
        <pt x="179" y="-12" on="0"/>
        <pt x="115" y="28" on="1"/>
        <pt x="83" y="48" on="0"/>
        <pt x="42" y="120" on="0"/>
        <pt x="42" y="167" on="1"/>
        <pt x="42" y="256" on="0"/>
        <pt x="160" y="368" on="0"/>
        <pt x="243" y="377" on="1"/>
        <pt x="187" y="392" on="0"/>
        <pt x="120" y="466" on="0"/>
        <pt x="120" y="523" on="1"/>
        <pt x="120" y="609" on="0"/>
        <pt x="255" y="710" on="0"/>
        <pt x="429" y="710" on="0"/>
        <pt x="545" y="636" on="0"/>
        <pt x="545" y="573" on="1"/>
        <pt x="545" y="551" on="0"/>
        <pt x="530" y="509" on="0"/>
        <pt x="522" y="500" on="1"/>
        <pt x="515" y="490" on="1"/>
        <pt x="483" y="490" on="0"/>
        <pt x="406" y="512" on="0"/>
        <pt x="388" y="529" on="1"/>
        <pt x="400" y="632" on="1"/>
        <pt x="385" y="647" on="0"/>
        <pt x="314" y="647" on="0"/>
        <pt x="273" y="574" on="0"/>
        <pt x="273" y="480" on="0"/>
        <pt x="295" y="432" on="0"/>
        <pt x="315" y="419" on="1"/>
        <pt x="346" y="399" on="0"/>
        <pt x="388" y="391" on="1"/>
        <pt x="380" y="336" on="1"/>
        <pt x="308" y="336" on="0"/>
        <pt x="202" y="251" on="0"/>
        <pt x="202" y="181" on="1"/>
        <pt x="202" y="137" on="0"/>
        <pt x="259" y="80" on="0"/>
        <pt x="304" y="80" on="1"/>
        <pt x="386" y="80" on="0"/>
        <pt x="472" y="163" on="1"/>
        <pt x="512" y="126" on="1"/>
        <pt x="396" y="-12" on="0"/>
      </contour>
      <contour>
        <pt x="188" y="819" on="0"/>
        <pt x="368" y="919" on="0"/>
        <pt x="421" y="919" on="0"/>
        <pt x="509" y="816" on="0"/>
        <pt x="536" y="775" on="1"/>
        <pt x="502" y="743" on="1"/>
        <pt x="395" y="797" on="0"/>
        <pt x="363" y="804" on="1"/>
        <pt x="312" y="795" on="0"/>
        <pt x="173" y="742" on="0"/>
        <pt x="164" y="739" on="1"/>
        <pt x="137" y="776" on="1"/>
      </contour>
    </TTGlyph>
    <TTGlyph name="Edieresis" xMin="42" yMin="-12" xMax="549" yMax="899">
      <contour>
        <pt x="249" y="-12" on="1"/>
        <pt x="179" y="-12" on="0"/>
        <pt x="115" y="28" on="1"/>
        <pt x="83" y="48" on="0"/>
        <pt x="42" y="120" on="0"/>
        <pt x="42" y="167" on="1"/>
        <pt x="42" y="256" on="0"/>
        <pt x="160" y="368" on="0"/>
        <pt x="243" y="377" on="1"/>
        <pt x="187" y="392" on="0"/>
        <pt x="120" y="466" on="0"/>
        <pt x="120" y="523" on="1"/>
        <pt x="120" y="609" on="0"/>
        <pt x="255" y="710" on="0"/>
        <pt x="429" y="710" on="0"/>
        <pt x="545" y="636" on="0"/>
        <pt x="545" y="573" on="1"/>
        <pt x="545" y="551" on="0"/>
        <pt x="530" y="509" on="0"/>
        <pt x="522" y="500" on="1"/>
        <pt x="515" y="490" on="1"/>
        <pt x="483" y="490" on="0"/>
        <pt x="406" y="512" on="0"/>
        <pt x="388" y="529" on="1"/>
        <pt x="400" y="632" on="1"/>
        <pt x="385" y="647" on="0"/>
        <pt x="314" y="647" on="0"/>
        <pt x="273" y="574" on="0"/>
        <pt x="273" y="480" on="0"/>
        <pt x="295" y="432" on="0"/>
        <pt x="315" y="419" on="1"/>
        <pt x="346" y="399" on="0"/>
        <pt x="388" y="391" on="1"/>
        <pt x="380" y="336" on="1"/>
        <pt x="308" y="336" on="0"/>
        <pt x="202" y="251" on="0"/>
        <pt x="202" y="181" on="1"/>
        <pt x="202" y="137" on="0"/>
        <pt x="259" y="80" on="0"/>
        <pt x="304" y="80" on="1"/>
        <pt x="386" y="80" on="0"/>
        <pt x="472" y="163" on="1"/>
        <pt x="512" y="126" on="1"/>
        <pt x="396" y="-12" on="0"/>
      </contour>
      <contour>
        <pt x="234" y="765" on="0"/>
        <pt x="201" y="799" on="0"/>
        <pt x="201" y="858" on="0"/>
        <pt x="247" y="899" on="0"/>
        <pt x="278" y="899" on="1"/>
        <pt x="343" y="899" on="0"/>
        <pt x="343" y="836" on="1"/>
        <pt x="343" y="808" on="0"/>
        <pt x="296" y="765" on="0"/>
      </contour>
      <contour>
        <pt x="439" y="765" on="0"/>
        <pt x="407" y="799" on="0"/>
        <pt x="407" y="858" on="0"/>
        <pt x="452" y="899" on="0"/>
        <pt x="483" y="899" on="1"/>
        <pt x="549" y="899" on="0"/>
        <pt x="549" y="836" on="1"/>
        <pt x="549" y="808" on="0"/>
        <pt x="501" y="765" on="0"/>
      </contour>
    </TTGlyph>
    <TTGlyph name="Egrave" xMin="42" yMin="-12" xMax="545" yMax="915">
      <contour>
        <pt x="249" y="-12" on="1"/>
        <pt x="179" y="-12" on="0"/>
        <pt x="115" y="28" on="1"/>
        <pt x="83" y="48" on="0"/>
        <pt x="42" y="120" on="0"/>
        <pt x="42" y="167" on="1"/>
        <pt x="42" y="256" on="0"/>
        <pt x="160" y="368" on="0"/>
        <pt x="243" y="377" on="1"/>
        <pt x="187" y="392" on="0"/>
        <pt x="120" y="466" on="0"/>
        <pt x="120" y="523" on="1"/>
        <pt x="120" y="609" on="0"/>
        <pt x="255" y="710" on="0"/>
        <pt x="429" y="710" on="0"/>
        <pt x="545" y="636" on="0"/>
        <pt x="545" y="573" on="1"/>
        <pt x="545" y="551" on="0"/>
        <pt x="530" y="509" on="0"/>
        <pt x="522" y="500" on="1"/>
        <pt x="515" y="490" on="1"/>
        <pt x="483" y="490" on="0"/>
        <pt x="406" y="512" on="0"/>
        <pt x="388" y="529" on="1"/>
        <pt x="400" y="632" on="1"/>
        <pt x="385" y="647" on="0"/>
        <pt x="314" y="647" on="0"/>
        <pt x="273" y="574" on="0"/>
        <pt x="273" y="480" on="0"/>
        <pt x="295" y="432" on="0"/>
        <pt x="315" y="419" on="1"/>
        <pt x="346" y="399" on="0"/>
        <pt x="388" y="391" on="1"/>
        <pt x="380" y="336" on="1"/>
        <pt x="308" y="336" on="0"/>
        <pt x="202" y="251" on="0"/>
        <pt x="202" y="181" on="1"/>
        <pt x="202" y="137" on="0"/>
        <pt x="259" y="80" on="0"/>
        <pt x="304" y="80" on="1"/>
        <pt x="386" y="80" on="0"/>
        <pt x="472" y="163" on="1"/>
        <pt x="512" y="126" on="1"/>
        <pt x="396" y="-12" on="0"/>
      </contour>
      <contour>
        <pt x="229" y="915" on="1"/>
        <pt x="269" y="915" on="0"/>
        <pt x="488" y="783" on="1"/>
        <pt x="471" y="736" on="1"/>
        <pt x="376" y="764" on="0"/>
        <pt x="165" y="819" on="1"/>
        <pt x="191" y="915" on="0"/>
      </contour>
    </TTGlyph>
    <TTGlyph name="Eth" xMin="44" yMin="-12" xMax="636" yMax="710">
      <contour>
        <pt x="307" y="-12" on="1"/>
        <pt x="249" y="-12" on="0"/>
        <pt x="187" y="7" on="1"/>
        <pt x="135" y="-6" on="0"/>
        <pt x="58" y="-6" on="0"/>
        <pt x="44" y="-4" on="1"/>
        <pt x="48" y="35" on="0"/>
        <pt x="106" y="301" on="1"/>
        <pt x="113" y="333" on="1"/>
        <pt x="49" y="333" on="1"/>
        <pt x="49" y="382" on="0"/>
        <pt x="52" y="397" on="1"/>
        <pt x="127" y="397" on="1"/>
        <pt x="158" y="545" on="0"/>
        <pt x="158" y="601" on="0"/>
        <pt x="131" y="649" on="0"/>
        <pt x="118" y="660" on="1"/>
        <pt x="104" y="671" on="1"/>
        <pt x="107" y="686" on="1"/>
        <pt x="133" y="693" on="0"/>
        <pt x="294" y="710" on="0"/>
        <pt x="354" y="710" on="1"/>
        <pt x="493" y="710" on="0"/>
        <pt x="636" y="587" on="0"/>
        <pt x="636" y="449" on="1"/>
        <pt x="636" y="336" on="0"/>
        <pt x="561" y="129" on="0"/>
        <pt x="407" y="-12" on="0"/>
      </contour>
      <contour>
        <pt x="378" y="647" on="1"/>
        <pt x="352" y="647" on="0"/>
        <pt x="319" y="641" on="1"/>
        <pt x="310" y="538" on="0"/>
        <pt x="277" y="397" on="1"/>
        <pt x="365" y="397" on="1"/>
        <pt x="365" y="366" on="0"/>
        <pt x="362" y="333" on="1"/>
        <pt x="263" y="333" on="1"/>
        <pt x="218" y="142" on="0"/>
        <pt x="208" y="72" on="1"/>
        <pt x="232" y="60" on="0"/>
        <pt x="316" y="60" on="0"/>
        <pt x="391" y="127" on="0"/>
        <pt x="437" y="227" on="0"/>
        <pt x="454" y="289" on="1"/>
        <pt x="483" y="400" on="0"/>
        <pt x="483" y="582" on="0"/>
        <pt x="435" y="647" on="0"/>
      </contour>
    </TTGlyph>
    <TTGlyph name="Euro" xMin="12" yMin="-12" xMax="623" yMax="710">
      <contour>
        <pt x="466" y="315" on="1"/>
        <pt x="464" y="290" on="0"/>
        <pt x="449" y="257" on="1"/>
        <pt x="411" y="261" on="0"/>
        <pt x="311" y="261" on="0"/>
        <pt x="253" y="259" on="1"/>
        <pt x="257" y="169" on="0"/>
        <pt x="325" y="90" on="0"/>
        <pt x="374" y="90" on="1"/>
        <pt x="453" y="90" on="0"/>
        <pt x="526" y="164" on="1"/>
        <pt x="567" y="127" on="1"/>
        <pt x="556" y="111" on="0"/>
        <pt x="498" y="55" on="0"/>
        <pt x="442" y="18" on="0"/>
        <pt x="356" y="-12" on="0"/>
        <pt x="312" y="-12" on="1"/>
        <pt x="222" y="-12" on="0"/>
        <pt x="100" y="131" on="0"/>
        <pt x="97" y="257" on="1"/>
        <pt x="44" y="254" on="0"/>
        <pt x="14" y="249" on="1"/>
        <pt x="12" y="261" on="0"/>
        <pt x="12" y="296" on="0"/>
        <pt x="15" y="315" on="1"/>
        <pt x="99" y="315" on="1"/>
        <pt x="100" y="335" on="0"/>
        <pt x="106" y="373" on="1"/>
        <pt x="58" y="370" on="0"/>
        <pt x="32" y="365" on="1"/>
        <pt x="30" y="377" on="0"/>
        <pt x="30" y="411" on="0"/>
        <pt x="33" y="431" on="1"/>
        <pt x="121" y="431" on="1"/>
        <pt x="158" y="553" on="0"/>
        <pt x="324" y="710" on="0"/>
        <pt x="432" y="710" on="1"/>
        <pt x="514" y="710" on="0"/>
        <pt x="623" y="630" on="0"/>
        <pt x="623" y="519" on="0"/>
        <pt x="590" y="480" on="1"/>
        <pt x="558" y="480" on="0"/>
        <pt x="478" y="508" on="0"/>
        <pt x="458" y="528" on="1"/>
        <pt x="477" y="629" on="1"/>
        <pt x="453" y="644" on="0"/>
        <pt x="367" y="644" on="0"/>
        <pt x="287" y="527" on="0"/>
        <pt x="267" y="431" on="1"/>
        <pt x="484" y="431" on="1"/>
        <pt x="482" y="406" on="0"/>
        <pt x="467" y="373" on="1"/>
        <pt x="429" y="377" on="0"/>
        <pt x="324" y="377" on="0"/>
        <pt x="258" y="375" on="1"/>
        <pt x="254" y="335" on="0"/>
        <pt x="253" y="315" on="1"/>
      </contour>
    </TTGlyph>
    <TTGlyph name="F" xMin="44" yMin="-3" xMax="537" yMax="705">
      <contour>
        <pt x="235" y="705" on="1"/>
        <pt x="431" y="699" on="1"/>
        <pt x="534" y="701" on="1"/>
        <pt x="537" y="686" on="0"/>
        <pt x="537" y="636" on="0"/>
        <pt x="522" y="614" on="0"/>
        <pt x="486" y="614" on="0"/>
        <pt x="369" y="624" on="0"/>
        <pt x="341" y="624" on="1"/>
        <pt x="305" y="622" on="1"/>
        <pt x="301" y="584" on="0"/>
        <pt x="257" y="379" on="1"/>
        <pt x="333" y="386" on="0"/>
        <pt x="435" y="386" on="0"/>
        <pt x="463" y="378" on="1"/>
        <pt x="461" y="336" on="0"/>
        <pt x="445" y="306" on="1"/>
        <pt x="402" y="315" on="0"/>
        <pt x="284" y="315" on="0"/>
        <pt x="243" y="309" on="1"/>
        <pt x="206" y="128" on="0"/>
        <pt x="206" y="34" on="1"/>
        <pt x="206" y="17" on="1"/>
        <pt x="170" y="-3" on="0"/>
        <pt x="54" y="-3" on="1"/>
        <pt x="44" y="-3" on="1"/>
        <pt x="44" y="65" on="0"/>
        <pt x="137" y="495" on="0"/>
        <pt x="147" y="589" on="1"/>
        <pt x="147" y="605" on="0"/>
        <pt x="127" y="650" on="0"/>
        <pt x="116" y="664" on="1"/>
        <pt x="106" y="678" on="1"/>
        <pt x="109" y="693" on="1"/>
        <pt x="163" y="704" on="0"/>
      </contour>
    </TTGlyph>
    <TTGlyph name="G" xMin="51" yMin="-224" xMax="582" yMax="710">
      <contour>
        <pt x="222" y="-224" on="1"/>
        <pt x="172" y="-224" on="0"/>
        <pt x="106" y="-175" on="0"/>
        <pt x="106" y="-132" on="1"/>
        <pt x="106" y="-17" on="0"/>
        <pt x="341" y="19" on="1"/>
        <pt x="350" y="52" on="0"/>
        <pt x="355" y="83" on="1"/>
        <pt x="309" y="55" on="0"/>
        <pt x="258" y="55" on="1"/>
        <pt x="165" y="55" on="0"/>
        <pt x="51" y="190" on="0"/>
        <pt x="51" y="406" on="0"/>
        <pt x="135" y="590" on="0"/>
        <pt x="292" y="710" on="0"/>
        <pt x="469" y="710" on="0"/>
        <pt x="582" y="623" on="0"/>
        <pt x="582" y="556" on="1"/>
        <pt x="582" y="516" on="0"/>
        <pt x="568" y="491" on="1"/>
        <pt x="560" y="490" on="0"/>
        <pt x="546" y="490" on="1"/>
        <pt x="469" y="490" on="0"/>
        <pt x="430" y="515" on="1"/>
        <pt x="431" y="623" on="1"/>
        <pt x="407" y="644" on="0"/>
        <pt x="368" y="644" on="1"/>
        <pt x="307" y="644" on="0"/>
        <pt x="213" y="457" on="0"/>
        <pt x="213" y="323" on="1"/>
        <pt x="213" y="234" on="0"/>
        <pt x="271" y="150" on="0"/>
        <pt x="311" y="150" on="1"/>
        <pt x="371" y="150" on="0"/>
        <pt x="467" y="270" on="0"/>
        <pt x="488" y="353" on="1"/>
        <pt x="542" y="344" on="1"/>
        <pt x="504" y="58" on="0"/>
        <pt x="350" y="-224" on="0"/>
      </contour>
      <contour>
        <pt x="171" y="-129" on="1"/>
        <pt x="171" y="-157" on="0"/>
        <pt x="218" y="-157" on="1"/>
        <pt x="242" y="-157" on="0"/>
        <pt x="308" y="-98" on="0"/>
        <pt x="325" y="-51" on="1"/>
        <pt x="267" y="-56" on="0"/>
        <pt x="171" y="-99" on="0"/>
      </contour>
    </TTGlyph>
    <TTGlyph name="H" xMin="44" yMin="-12" xMax="667" yMax="710">
      <contour>
        <pt x="461" y="-12" on="0"/>
        <pt x="411" y="39" on="0"/>
        <pt x="411" y="126" on="0"/>
        <pt x="455" y="329" on="1"/>
        <pt x="429" y="335" on="0"/>
        <pt x="313" y="335" on="0"/>
        <pt x="260" y="325" on="1"/>
        <pt x="209" y="95" on="0"/>
        <pt x="206" y="17" on="1"/>
        <pt x="170" y="-3" on="0"/>
        <pt x="54" y="-3" on="1"/>
        <pt x="44" y="-3" on="1"/>
        <pt x="47" y="41" on="0"/>
        <pt x="148" y="479" on="0"/>
        <pt x="160" y="589" on="1"/>
        <pt x="160" y="605" on="0"/>
        <pt x="140" y="650" on="0"/>
        <pt x="130" y="664" on="1"/>
        <pt x="119" y="678" on="1"/>
        <pt x="122" y="693" on="1"/>
        <pt x="181" y="710" on="0"/>
        <pt x="309" y="710" on="1"/>
        <pt x="321" y="690" on="0"/>
        <pt x="321" y="600" on="0"/>
        <pt x="276" y="397" on="1"/>
        <pt x="469" y="397" on="1"/>
        <pt x="504" y="575" on="0"/>
        <pt x="505" y="651" on="1"/>
        <pt x="505" y="668" on="0"/>
        <pt x="503" y="679" on="1"/>
        <pt x="583" y="710" on="0"/>
        <pt x="664" y="710" on="1"/>
        <pt x="667" y="704" on="0"/>
        <pt x="667" y="680" on="1"/>
        <pt x="667" y="625" on="0"/>
        <pt x="570" y="169" on="0"/>
        <pt x="570" y="107" on="1"/>
        <pt x="570" y="80" on="0"/>
        <pt x="588" y="80" on="0"/>
        <pt x="640" y="106" on="1"/>
        <pt x="658" y="69" on="1"/>
        <pt x="569" y="-12" on="0"/>
        <pt x="500" y="-12" on="1"/>
      </contour>
    </TTGlyph>
    <TTGlyph name="I" xMin="50" yMin="-12" xMax="313" yMax="710">
      <contour>
        <pt x="209" y="102" on="1"/>
        <pt x="209" y="80" on="0"/>
        <pt x="220" y="80" on="1"/>
        <pt x="226" y="80" on="0"/>
        <pt x="278" y="106" on="1"/>
        <pt x="297" y="69" on="1"/>
        <pt x="207" y="-12" on="0"/>
        <pt x="138" y="-12" on="1"/>
        <pt x="95" y="-12" on="0"/>
        <pt x="50" y="46" on="0"/>
        <pt x="50" y="132" on="0"/>
        <pt x="147" y="517" on="0"/>
        <pt x="152" y="589" on="1"/>
        <pt x="152" y="605" on="0"/>
        <pt x="131" y="650" on="0"/>
        <pt x="120" y="664" on="1"/>
        <pt x="110" y="678" on="1"/>
        <pt x="113" y="693" on="1"/>
        <pt x="170" y="710" on="0"/>
        <pt x="301" y="710" on="1"/>
        <pt x="313" y="687" on="0"/>
        <pt x="313" y="600" on="0"/>
        <pt x="209" y="184" on="0"/>
      </contour>
    </TTGlyph>
    <TTGlyph name="IJ" xMin="50" yMin="-12" xMax="799" yMax="710">
      <contour>
        <pt x="209" y="102" on="1"/>
        <pt x="209" y="80" on="0"/>
        <pt x="230" y="80" on="0"/>
        <pt x="262" y="96" on="1"/>
        <pt x="281" y="59" on="1"/>
        <pt x="237" y="20" on="0"/>
        <pt x="173" y="-12" on="0"/>
        <pt x="95" y="-12" on="0"/>
        <pt x="50" y="46" on="0"/>
        <pt x="50" y="132" on="0"/>
        <pt x="147" y="517" on="0"/>
        <pt x="152" y="589" on="1"/>
        <pt x="152" y="605" on="0"/>
        <pt x="131" y="650" on="0"/>
        <pt x="120" y="664" on="1"/>
        <pt x="110" y="678" on="1"/>
        <pt x="113" y="693" on="1"/>
        <pt x="170" y="710" on="0"/>
        <pt x="301" y="710" on="1"/>
        <pt x="313" y="687" on="0"/>
        <pt x="313" y="600" on="0"/>
        <pt x="209" y="184" on="0"/>
      </contour>
      <contour>
        <pt x="488" y="709" on="1"/>
        <pt x="691" y="702" on="1"/>
        <pt x="797" y="706" on="1"/>
        <pt x="799" y="695" on="0"/>
        <pt x="799" y="650" on="0"/>
        <pt x="784" y="631" on="0"/>
        <pt x="750" y="631" on="0"/>
        <pt x="694" y="633" on="1"/>
        <pt x="654" y="298" on="0"/>
        <pt x="616" y="146" on="1"/>
        <pt x="597" y="72" on="0"/>
        <pt x="566" y="34" on="1"/>
        <pt x="550" y="15" on="0"/>
        <pt x="496" y="-12" on="0"/>
        <pt x="414" y="-12" on="0"/>
        <pt x="327" y="43" on="0"/>
        <pt x="300" y="84" on="1"/>
        <pt x="328" y="115" on="1"/>
        <pt x="340" y="104" on="0"/>
        <pt x="390" y="78" on="0"/>
        <pt x="408" y="78" on="1"/>
        <pt x="438" y="78" on="0"/>
        <pt x="483" y="199" on="0"/>
        <pt x="530" y="503" on="0"/>
        <pt x="530" y="598" on="1"/>
        <pt x="530" y="639" on="1"/>
        <pt x="450" y="639" on="0"/>
        <pt x="413" y="630" on="1"/>
        <pt x="400" y="656" on="0"/>
        <pt x="395" y="698" on="1"/>
        <pt x="420" y="709" on="0"/>
      </contour>
    </TTGlyph>
    <TTGlyph name="Iacute" xMin="50" yMin="-12" xMax="404" yMax="931">
      <contour>
        <pt x="404" y="846" on="1"/>
        <pt x="404" y="818" on="0"/>
        <pt x="367" y="802" on="1"/>
        <pt x="297" y="782" on="0"/>
        <pt x="120" y="755" on="1"/>
        <pt x="102" y="802" on="1"/>
        <pt x="273" y="879" on="0"/>
        <pt x="367" y="931" on="1"/>
        <pt x="378" y="915" on="0"/>
        <pt x="404" y="856" on="0"/>
      </contour>
      <contour>
        <pt x="209" y="102" on="1"/>
        <pt x="209" y="80" on="0"/>
        <pt x="220" y="80" on="1"/>
        <pt x="226" y="80" on="0"/>
        <pt x="278" y="106" on="1"/>
        <pt x="297" y="69" on="1"/>
        <pt x="207" y="-12" on="0"/>
        <pt x="138" y="-12" on="1"/>
        <pt x="95" y="-12" on="0"/>
        <pt x="50" y="46" on="0"/>
        <pt x="50" y="132" on="0"/>
        <pt x="147" y="517" on="0"/>
        <pt x="152" y="589" on="1"/>
        <pt x="152" y="605" on="0"/>
        <pt x="131" y="650" on="0"/>
        <pt x="120" y="664" on="1"/>
        <pt x="110" y="678" on="1"/>
        <pt x="113" y="693" on="1"/>
        <pt x="170" y="710" on="0"/>
        <pt x="301" y="710" on="1"/>
        <pt x="313" y="687" on="0"/>
        <pt x="313" y="600" on="0"/>
        <pt x="209" y="184" on="0"/>
      </contour>
    </TTGlyph>
    <TTGlyph name="Icircumflex" xMin="50" yMin="-12" xMax="415" yMax="919">
      <contour>
        <pt x="98" y="821" on="0"/>
        <pt x="262" y="919" on="0"/>
        <pt x="311" y="919" on="0"/>
        <pt x="388" y="821" on="0"/>
        <pt x="415" y="777" on="1"/>
        <pt x="381" y="745" on="1"/>
        <pt x="288" y="796" on="0"/>
        <pt x="257" y="804" on="1"/>
        <pt x="220" y="797" on="0"/>
        <pt x="77" y="741" on="1"/>
        <pt x="50" y="778" on="1"/>
      </contour>
      <contour>
        <pt x="209" y="102" on="1"/>
        <pt x="209" y="80" on="0"/>
        <pt x="220" y="80" on="1"/>
        <pt x="226" y="80" on="0"/>
        <pt x="278" y="106" on="1"/>
        <pt x="297" y="69" on="1"/>
        <pt x="207" y="-12" on="0"/>
        <pt x="138" y="-12" on="1"/>
        <pt x="95" y="-12" on="0"/>
        <pt x="50" y="46" on="0"/>
        <pt x="50" y="132" on="0"/>
        <pt x="147" y="517" on="0"/>
        <pt x="152" y="589" on="1"/>
        <pt x="152" y="605" on="0"/>
        <pt x="131" y="650" on="0"/>
        <pt x="120" y="664" on="1"/>
        <pt x="110" y="678" on="1"/>
        <pt x="113" y="693" on="1"/>
        <pt x="170" y="710" on="0"/>
        <pt x="301" y="710" on="1"/>
        <pt x="313" y="687" on="0"/>
        <pt x="313" y="600" on="0"/>
        <pt x="209" y="184" on="0"/>
      </contour>
    </TTGlyph>
    <TTGlyph name="Idieresis" xMin="50" yMin="-12" xMax="421" yMax="900">
      <contour>
        <pt x="93" y="828" on="1"/>
        <pt x="93" y="858" on="0"/>
        <pt x="136" y="900" on="0"/>
        <pt x="166" y="900" on="1"/>
        <pt x="229" y="900" on="0"/>
        <pt x="229" y="836" on="1"/>
        <pt x="229" y="808" on="0"/>
        <pt x="184" y="764" on="0"/>
        <pt x="153" y="764" on="1"/>
        <pt x="93" y="764" on="0"/>
      </contour>
      <contour>
        <pt x="283" y="828" on="1"/>
        <pt x="283" y="858" on="0"/>
        <pt x="327" y="900" on="0"/>
        <pt x="357" y="900" on="1"/>
        <pt x="421" y="900" on="0"/>
        <pt x="421" y="836" on="1"/>
        <pt x="421" y="808" on="0"/>
        <pt x="375" y="764" on="0"/>
        <pt x="344" y="764" on="1"/>
        <pt x="283" y="764" on="0"/>
      </contour>
      <contour>
        <pt x="209" y="102" on="1"/>
        <pt x="209" y="80" on="0"/>
        <pt x="220" y="80" on="1"/>
        <pt x="226" y="80" on="0"/>
        <pt x="278" y="106" on="1"/>
        <pt x="297" y="69" on="1"/>
        <pt x="207" y="-12" on="0"/>
        <pt x="138" y="-12" on="1"/>
        <pt x="95" y="-12" on="0"/>
        <pt x="50" y="46" on="0"/>
        <pt x="50" y="132" on="0"/>
        <pt x="147" y="517" on="0"/>
        <pt x="152" y="589" on="1"/>
        <pt x="152" y="605" on="0"/>
        <pt x="131" y="650" on="0"/>
        <pt x="120" y="664" on="1"/>
        <pt x="110" y="678" on="1"/>
        <pt x="113" y="693" on="1"/>
        <pt x="170" y="710" on="0"/>
        <pt x="301" y="710" on="1"/>
        <pt x="313" y="687" on="0"/>
        <pt x="313" y="600" on="0"/>
        <pt x="209" y="184" on="0"/>
      </contour>
    </TTGlyph>
    <TTGlyph name="Igrave" xMin="41" yMin="-12" xMax="342" yMax="915">
      <contour>
        <pt x="105" y="915" on="1"/>
        <pt x="127" y="915" on="0"/>
        <pt x="214" y="869" on="0"/>
        <pt x="342" y="792" on="1"/>
        <pt x="327" y="741" on="1"/>
        <pt x="183" y="783" on="0"/>
        <pt x="41" y="819" on="1"/>
        <pt x="67" y="915" on="0"/>
      </contour>
      <contour>
        <pt x="209" y="102" on="1"/>
        <pt x="209" y="80" on="0"/>
        <pt x="220" y="80" on="1"/>
        <pt x="226" y="80" on="0"/>
        <pt x="278" y="106" on="1"/>
        <pt x="297" y="69" on="1"/>
        <pt x="207" y="-12" on="0"/>
        <pt x="138" y="-12" on="1"/>
        <pt x="95" y="-12" on="0"/>
        <pt x="50" y="46" on="0"/>
        <pt x="50" y="132" on="0"/>
        <pt x="147" y="517" on="0"/>
        <pt x="152" y="589" on="1"/>
        <pt x="152" y="605" on="0"/>
        <pt x="131" y="650" on="0"/>
        <pt x="120" y="664" on="1"/>
        <pt x="110" y="678" on="1"/>
        <pt x="113" y="693" on="1"/>
        <pt x="170" y="710" on="0"/>
        <pt x="301" y="710" on="1"/>
        <pt x="313" y="687" on="0"/>
        <pt x="313" y="600" on="0"/>
        <pt x="209" y="184" on="0"/>
      </contour>
    </TTGlyph>
    <TTGlyph name="Itilde" xMin="50" yMin="-12" xMax="408" yMax="899">
      <contour>
        <pt x="408" y="892" on="1"/>
        <pt x="399" y="763" on="0"/>
        <pt x="312" y="763" on="1"/>
        <pt x="290" y="763" on="0"/>
        <pt x="186" y="796" on="0"/>
        <pt x="134" y="796" on="0"/>
        <pt x="107" y="781" on="0"/>
        <pt x="94" y="758" on="1"/>
        <pt x="61" y="765" on="1"/>
        <pt x="66" y="813" on="0"/>
        <pt x="77" y="842" on="1"/>
        <pt x="99" y="899" on="0"/>
        <pt x="156" y="899" on="1"/>
        <pt x="183" y="899" on="0"/>
        <pt x="291" y="867" on="0"/>
        <pt x="340" y="867" on="0"/>
        <pt x="365" y="878" on="0"/>
        <pt x="376" y="898" on="1"/>
      </contour>
      <contour>
        <pt x="209" y="102" on="1"/>
        <pt x="209" y="80" on="0"/>
        <pt x="220" y="80" on="1"/>
        <pt x="226" y="80" on="0"/>
        <pt x="278" y="106" on="1"/>
        <pt x="297" y="69" on="1"/>
        <pt x="207" y="-12" on="0"/>
        <pt x="138" y="-12" on="1"/>
        <pt x="95" y="-12" on="0"/>
        <pt x="50" y="46" on="0"/>
        <pt x="50" y="132" on="0"/>
        <pt x="147" y="517" on="0"/>
        <pt x="152" y="589" on="1"/>
        <pt x="152" y="605" on="0"/>
        <pt x="131" y="650" on="0"/>
        <pt x="120" y="664" on="1"/>
        <pt x="110" y="678" on="1"/>
        <pt x="113" y="693" on="1"/>
        <pt x="170" y="710" on="0"/>
        <pt x="301" y="710" on="1"/>
        <pt x="313" y="687" on="0"/>
        <pt x="313" y="600" on="0"/>
        <pt x="209" y="184" on="0"/>
      </contour>
    </TTGlyph>
    <TTGlyph name="J" xMin="-15" yMin="-12" xMax="484" yMax="709">
      <contour>
        <pt x="173" y="709" on="1"/>
        <pt x="376" y="702" on="1"/>
        <pt x="482" y="706" on="1"/>
        <pt x="484" y="695" on="0"/>
        <pt x="484" y="650" on="0"/>
        <pt x="469" y="631" on="0"/>
        <pt x="435" y="631" on="0"/>
        <pt x="379" y="633" on="1"/>
        <pt x="339" y="298" on="0"/>
        <pt x="300" y="146" on="1"/>
        <pt x="282" y="72" on="0"/>
        <pt x="251" y="34" on="1"/>
        <pt x="235" y="15" on="0"/>
        <pt x="181" y="-12" on="0"/>
        <pt x="99" y="-12" on="0"/>
        <pt x="12" y="43" on="0"/>
        <pt x="-15" y="84" on="1"/>
        <pt x="13" y="115" on="1"/>
        <pt x="25" y="104" on="0"/>
        <pt x="75" y="78" on="0"/>
        <pt x="93" y="78" on="1"/>
        <pt x="123" y="78" on="0"/>
        <pt x="168" y="199" on="0"/>
        <pt x="215" y="503" on="0"/>
        <pt x="215" y="598" on="1"/>
        <pt x="215" y="639" on="1"/>
        <pt x="136" y="639" on="0"/>
        <pt x="98" y="630" on="1"/>
        <pt x="85" y="656" on="0"/>
        <pt x="80" y="698" on="1"/>
        <pt x="105" y="709" on="0"/>
      </contour>
    </TTGlyph>
    <TTGlyph name="Jcircumflex" xMin="-15" yMin="-12" xMax="484" yMax="919">
      <contour>
        <pt x="151" y="821" on="0"/>
        <pt x="315" y="919" on="0"/>
        <pt x="364" y="919" on="0"/>
        <pt x="441" y="821" on="0"/>
        <pt x="468" y="777" on="1"/>
        <pt x="434" y="745" on="1"/>
        <pt x="341" y="796" on="0"/>
        <pt x="310" y="804" on="1"/>
        <pt x="273" y="797" on="0"/>
        <pt x="130" y="741" on="1"/>
        <pt x="103" y="778" on="1"/>
      </contour>
      <contour>
        <pt x="173" y="709" on="1"/>
        <pt x="376" y="702" on="1"/>
        <pt x="482" y="706" on="1"/>
        <pt x="484" y="695" on="0"/>
        <pt x="484" y="650" on="0"/>
        <pt x="469" y="631" on="0"/>
        <pt x="435" y="631" on="0"/>
        <pt x="379" y="633" on="1"/>
        <pt x="339" y="298" on="0"/>
        <pt x="300" y="146" on="1"/>
        <pt x="282" y="72" on="0"/>
        <pt x="251" y="34" on="1"/>
        <pt x="235" y="15" on="0"/>
        <pt x="181" y="-12" on="0"/>
        <pt x="99" y="-12" on="0"/>
        <pt x="12" y="43" on="0"/>
        <pt x="-15" y="84" on="1"/>
        <pt x="13" y="115" on="1"/>
        <pt x="25" y="104" on="0"/>
        <pt x="75" y="78" on="0"/>
        <pt x="93" y="78" on="1"/>
        <pt x="123" y="78" on="0"/>
        <pt x="168" y="199" on="0"/>
        <pt x="215" y="503" on="0"/>
        <pt x="215" y="598" on="1"/>
        <pt x="215" y="639" on="1"/>
        <pt x="136" y="639" on="0"/>
        <pt x="98" y="630" on="1"/>
        <pt x="85" y="656" on="0"/>
        <pt x="80" y="698" on="1"/>
        <pt x="105" y="709" on="0"/>
      </contour>
    </TTGlyph>
    <TTGlyph name="K" xMin="44" yMin="-12" xMax="651" yMax="710">
      <contour>
        <pt x="63" y="-4" on="1"/>
        <pt x="44" y="-4" on="1"/>
        <pt x="48" y="41" on="0"/>
        <pt x="146" y="480" on="0"/>
        <pt x="158" y="589" on="1"/>
        <pt x="158" y="605" on="0"/>
        <pt x="137" y="650" on="0"/>
        <pt x="126" y="664" on="1"/>
        <pt x="116" y="678" on="1"/>
        <pt x="119" y="693" on="1"/>
        <pt x="175" y="710" on="0"/>
        <pt x="312" y="710" on="1"/>
        <pt x="325" y="686" on="0"/>
        <pt x="325" y="597" on="0"/>
        <pt x="275" y="391" on="1"/>
        <pt x="280" y="391" on="1"/>
        <pt x="369" y="391" on="0"/>
        <pt x="446" y="526" on="0"/>
        <pt x="465" y="686" on="1"/>
        <pt x="536" y="710" on="0"/>
        <pt x="614" y="710" on="1"/>
        <pt x="616" y="703" on="0"/>
        <pt x="615" y="649" on="0"/>
        <pt x="595" y="564" on="0"/>
        <pt x="556" y="470" on="0"/>
        <pt x="481" y="387" on="0"/>
        <pt x="432" y="362" on="1"/>
        <pt x="490" y="164" on="0"/>
        <pt x="532" y="104" on="1"/>
        <pt x="550" y="79" on="0"/>
        <pt x="560" y="79" on="1"/>
        <pt x="578" y="79" on="0"/>
        <pt x="616" y="97" on="1"/>
        <pt x="628" y="103" on="1"/>
        <pt x="651" y="66" on="1"/>
        <pt x="614" y="32" on="0"/>
        <pt x="517" y="-12" on="0"/>
        <pt x="431" y="-12" on="0"/>
        <pt x="382" y="56" on="0"/>
        <pt x="349" y="157" on="0"/>
        <pt x="313" y="295" on="0"/>
        <pt x="307" y="330" on="1"/>
        <pt x="298" y="329" on="0"/>
        <pt x="260" y="329" on="1"/>
        <pt x="201" y="79" on="0"/>
        <pt x="201" y="16" on="1"/>
        <pt x="162" y="-4" on="0"/>
      </contour>
    </TTGlyph>
    <TTGlyph name="L" xMin="-8" yMin="-19" xMax="501" yMax="710">
      <contour>
        <pt x="468" y="17" on="0"/>
        <pt x="417" y="-19" on="0"/>
        <pt x="348" y="-19" on="0"/>
        <pt x="211" y="65" on="0"/>
        <pt x="170" y="77" on="1"/>
        <pt x="143" y="41" on="0"/>
        <pt x="75" y="-7" on="0"/>
        <pt x="62" y="-7" on="1"/>
        <pt x="52" y="-7" on="0"/>
        <pt x="-8" y="80" on="0"/>
        <pt x="-8" y="99" on="1"/>
        <pt x="-8" y="110" on="0"/>
        <pt x="55" y="154" on="0"/>
        <pt x="90" y="162" on="1"/>
        <pt x="115" y="223" on="0"/>
        <pt x="169" y="462" on="0"/>
        <pt x="184" y="589" on="1"/>
        <pt x="184" y="605" on="0"/>
        <pt x="163" y="650" on="0"/>
        <pt x="152" y="664" on="1"/>
        <pt x="142" y="678" on="1"/>
        <pt x="145" y="693" on="1"/>
        <pt x="205" y="710" on="0"/>
        <pt x="342" y="710" on="1"/>
        <pt x="355" y="688" on="0"/>
        <pt x="355" y="598" on="0"/>
        <pt x="303" y="420" on="0"/>
        <pt x="212" y="171" on="0"/>
        <pt x="205" y="148" on="1"/>
        <pt x="209" y="147" on="0"/>
        <pt x="251" y="135" on="0"/>
        <pt x="264" y="132" on="0"/>
        <pt x="302" y="123" on="0"/>
        <pt x="324" y="120" on="0"/>
        <pt x="342" y="118" on="1"/>
        <pt x="373" y="113" on="0"/>
        <pt x="428" y="113" on="0"/>
        <pt x="440" y="127" on="1"/>
        <pt x="468" y="179" on="1"/>
        <pt x="501" y="171" on="1"/>
        <pt x="501" y="106" on="0"/>
        <pt x="480" y="48" on="1"/>
      </contour>
    </TTGlyph>
    <TTGlyph name="Ldotaccent" xMin="-8" yMin="-19" xMax="525" yMax="710">
      <contour>
        <pt x="413" y="293" on="0"/>
        <pt x="378" y="332" on="0"/>
        <pt x="378" y="395" on="0"/>
        <pt x="427" y="442" on="0"/>
        <pt x="491" y="442" on="0"/>
        <pt x="525" y="404" on="0"/>
        <pt x="525" y="343" on="0"/>
        <pt x="475" y="293" on="0"/>
      </contour>
      <contour>
        <pt x="468" y="17" on="0"/>
        <pt x="417" y="-19" on="0"/>
        <pt x="348" y="-19" on="0"/>
        <pt x="211" y="65" on="0"/>
        <pt x="170" y="77" on="1"/>
        <pt x="143" y="41" on="0"/>
        <pt x="75" y="-7" on="0"/>
        <pt x="62" y="-7" on="1"/>
        <pt x="52" y="-7" on="0"/>
        <pt x="-8" y="80" on="0"/>
        <pt x="-8" y="99" on="1"/>
        <pt x="-8" y="110" on="0"/>
        <pt x="55" y="154" on="0"/>
        <pt x="90" y="162" on="1"/>
        <pt x="115" y="223" on="0"/>
        <pt x="169" y="462" on="0"/>
        <pt x="184" y="589" on="1"/>
        <pt x="184" y="605" on="0"/>
        <pt x="163" y="650" on="0"/>
        <pt x="152" y="664" on="1"/>
        <pt x="142" y="678" on="1"/>
        <pt x="145" y="693" on="1"/>
        <pt x="205" y="710" on="0"/>
        <pt x="342" y="710" on="1"/>
        <pt x="355" y="688" on="0"/>
        <pt x="355" y="598" on="0"/>
        <pt x="303" y="420" on="0"/>
        <pt x="212" y="171" on="0"/>
        <pt x="205" y="148" on="1"/>
        <pt x="209" y="147" on="0"/>
        <pt x="251" y="135" on="0"/>
        <pt x="264" y="132" on="0"/>
        <pt x="302" y="123" on="0"/>
        <pt x="324" y="120" on="0"/>
        <pt x="342" y="118" on="1"/>
        <pt x="373" y="113" on="0"/>
        <pt x="428" y="113" on="0"/>
        <pt x="440" y="127" on="1"/>
        <pt x="468" y="179" on="1"/>
        <pt x="501" y="171" on="1"/>
        <pt x="501" y="106" on="0"/>
        <pt x="480" y="48" on="1"/>
      </contour>
    </TTGlyph>
    <TTGlyph name="Lslash" xMin="5" yMin="-19" xMax="514" yMax="710">
      <contour>
        <pt x="146" y="306" on="1"/>
        <pt x="37" y="268" on="1"/>
        <pt x="22" y="281" on="0"/>
        <pt x="19" y="331" on="1"/>
        <pt x="83" y="354" on="0"/>
        <pt x="162" y="378" on="1"/>
        <pt x="183" y="479" on="0"/>
        <pt x="197" y="589" on="1"/>
        <pt x="197" y="605" on="0"/>
        <pt x="176" y="650" on="0"/>
        <pt x="166" y="664" on="1"/>
        <pt x="155" y="678" on="1"/>
        <pt x="158" y="693" on="1"/>
        <pt x="218" y="710" on="0"/>
        <pt x="355" y="710" on="1"/>
        <pt x="368" y="688" on="0"/>
        <pt x="368" y="586" on="0"/>
        <pt x="312" y="414" on="1"/>
        <pt x="433" y="451" on="0"/>
        <pt x="478" y="463" on="1"/>
        <pt x="493" y="432" on="0"/>
        <pt x="493" y="399" on="1"/>
        <pt x="436" y="382" on="0"/>
        <pt x="284" y="333" on="1"/>
        <pt x="280" y="322" on="1"/>
        <pt x="221" y="156" on="0"/>
        <pt x="218" y="148" on="1"/>
        <pt x="222" y="147" on="0"/>
        <pt x="264" y="135" on="0"/>
        <pt x="277" y="132" on="0"/>
        <pt x="315" y="123" on="0"/>
        <pt x="337" y="120" on="0"/>
        <pt x="354" y="118" on="1"/>
        <pt x="386" y="113" on="0"/>
        <pt x="441" y="113" on="0"/>
        <pt x="453" y="127" on="1"/>
        <pt x="481" y="179" on="1"/>
        <pt x="514" y="171" on="1"/>
        <pt x="514" y="106" on="0"/>
        <pt x="492" y="48" on="1"/>
        <pt x="481" y="17" on="0"/>
        <pt x="430" y="-19" on="0"/>
        <pt x="361" y="-19" on="0"/>
        <pt x="224" y="65" on="0"/>
        <pt x="183" y="77" on="1"/>
        <pt x="156" y="41" on="0"/>
        <pt x="88" y="-7" on="0"/>
        <pt x="75" y="-7" on="1"/>
        <pt x="65" y="-7" on="0"/>
        <pt x="5" y="80" on="0"/>
        <pt x="5" y="99" on="1"/>
        <pt x="5" y="110" on="0"/>
        <pt x="68" y="154" on="0"/>
        <pt x="103" y="162" on="1"/>
        <pt x="126" y="221" on="0"/>
      </contour>
    </TTGlyph>
    <TTGlyph name="M" xMin="44" yMin="-12" xMax="958" yMax="710">
      <contour>
        <pt x="753" y="-12" on="0"/>
        <pt x="707" y="41" on="0"/>
        <pt x="707" y="132" on="0"/>
        <pt x="790" y="494" on="0"/>
        <pt x="790" y="594" on="0"/>
        <pt x="751" y="594" on="1"/>
        <pt x="697" y="594" on="0"/>
        <pt x="632" y="546" on="1"/>
        <pt x="625" y="492" on="0"/>
        <pt x="557" y="223" on="0"/>
        <pt x="534" y="94" on="0"/>
        <pt x="534" y="24" on="0"/>
        <pt x="535" y="16" on="1"/>
        <pt x="496" y="-4" on="0"/>
        <pt x="396" y="-4" on="1"/>
        <pt x="377" y="-4" on="1"/>
        <pt x="377" y="80" on="0"/>
        <pt x="424" y="282" on="1"/>
        <pt x="472" y="488" on="0"/>
        <pt x="472" y="594" on="0"/>
        <pt x="435" y="594" on="1"/>
        <pt x="381" y="594" on="0"/>
        <pt x="309" y="542" on="1"/>
        <pt x="298" y="487" on="0"/>
        <pt x="268" y="363" on="1"/>
        <pt x="201" y="79" on="0"/>
        <pt x="201" y="16" on="1"/>
        <pt x="162" y="-4" on="0"/>
        <pt x="63" y="-4" on="1"/>
        <pt x="44" y="-4" on="1"/>
        <pt x="48" y="41" on="0"/>
        <pt x="146" y="480" on="0"/>
        <pt x="158" y="589" on="1"/>
        <pt x="158" y="605" on="0"/>
        <pt x="137" y="650" on="0"/>
        <pt x="126" y="664" on="1"/>
        <pt x="116" y="678" on="1"/>
        <pt x="119" y="693" on="1"/>
        <pt x="175" y="710" on="0"/>
        <pt x="312" y="710" on="1"/>
        <pt x="325" y="686" on="0"/>
        <pt x="325" y="649" on="1"/>
        <pt x="325" y="641" on="0"/>
        <pt x="321" y="607" on="1"/>
        <pt x="436" y="710" on="0"/>
        <pt x="527" y="710" on="1"/>
        <pt x="568" y="710" on="0"/>
        <pt x="624" y="654" on="0"/>
        <pt x="632" y="609" on="1"/>
        <pt x="751" y="710" on="0"/>
        <pt x="834" y="710" on="1"/>
        <pt x="886" y="710" on="0"/>
        <pt x="950" y="642" on="0"/>
        <pt x="950" y="520" on="0"/>
        <pt x="865" y="177" on="0"/>
        <pt x="865" y="109" on="1"/>
        <pt x="865" y="80" on="0"/>
        <pt x="875" y="80" on="1"/>
        <pt x="884" y="80" on="0"/>
        <pt x="924" y="100" on="1"/>
        <pt x="938" y="106" on="1"/>
        <pt x="958" y="69" on="1"/>
        <pt x="915" y="32" on="0"/>
        <pt x="828" y="-12" on="0"/>
      </contour>
      <contour>
        <pt x="228" y="390" on="1"/>
        <pt x="227" y="388" on="0"/>
        <pt x="227" y="385" on="1"/>
      </contour>
    </TTGlyph>
    <TTGlyph name="N" xMin="44" yMin="-12" xMax="649" yMax="710">
      <contour>
        <pt x="63" y="-4" on="1"/>
        <pt x="44" y="-4" on="1"/>
        <pt x="48" y="41" on="0"/>
        <pt x="146" y="480" on="0"/>
        <pt x="158" y="589" on="1"/>
        <pt x="158" y="605" on="0"/>
        <pt x="137" y="650" on="0"/>
        <pt x="126" y="664" on="1"/>
        <pt x="116" y="678" on="1"/>
        <pt x="119" y="693" on="1"/>
        <pt x="175" y="710" on="0"/>
        <pt x="312" y="710" on="1"/>
        <pt x="325" y="686" on="0"/>
        <pt x="325" y="640" on="0"/>
        <pt x="321" y="606" on="1"/>
        <pt x="446" y="710" on="0"/>
        <pt x="525" y="710" on="1"/>
        <pt x="577" y="710" on="0"/>
        <pt x="641" y="642" on="0"/>
        <pt x="641" y="520" on="0"/>
        <pt x="556" y="177" on="0"/>
        <pt x="556" y="109" on="1"/>
        <pt x="556" y="80" on="0"/>
        <pt x="566" y="80" on="1"/>
        <pt x="575" y="80" on="0"/>
        <pt x="616" y="100" on="1"/>
        <pt x="629" y="106" on="1"/>
        <pt x="649" y="69" on="1"/>
        <pt x="607" y="33" on="0"/>
        <pt x="517" y="-12" on="0"/>
        <pt x="444" y="-12" on="0"/>
        <pt x="398" y="41" on="0"/>
        <pt x="398" y="132" on="0"/>
        <pt x="481" y="494" on="0"/>
        <pt x="481" y="594" on="0"/>
        <pt x="442" y="594" on="1"/>
        <pt x="383" y="594" on="0"/>
        <pt x="308" y="535" on="1"/>
        <pt x="297" y="482" on="0"/>
        <pt x="267" y="358" on="1"/>
        <pt x="201" y="85" on="0"/>
        <pt x="201" y="16" on="1"/>
        <pt x="162" y="-4" on="0"/>
      </contour>
    </TTGlyph>
    <TTGlyph name="Nacute" xMin="44" yMin="-12" xMax="649" yMax="931">
      <contour>
        <pt x="63" y="-4" on="1"/>
        <pt x="44" y="-4" on="1"/>
        <pt x="48" y="41" on="0"/>
        <pt x="146" y="480" on="0"/>
        <pt x="158" y="589" on="1"/>
        <pt x="158" y="605" on="0"/>
        <pt x="137" y="650" on="0"/>
        <pt x="126" y="664" on="1"/>
        <pt x="116" y="678" on="1"/>
        <pt x="119" y="693" on="1"/>
        <pt x="175" y="710" on="0"/>
        <pt x="312" y="710" on="1"/>
        <pt x="325" y="686" on="0"/>
        <pt x="325" y="640" on="0"/>
        <pt x="321" y="606" on="1"/>
        <pt x="446" y="710" on="0"/>
        <pt x="525" y="710" on="1"/>
        <pt x="577" y="710" on="0"/>
        <pt x="641" y="642" on="0"/>
        <pt x="641" y="520" on="0"/>
        <pt x="556" y="177" on="0"/>
        <pt x="556" y="109" on="1"/>
        <pt x="556" y="80" on="0"/>
        <pt x="566" y="80" on="1"/>
        <pt x="575" y="80" on="0"/>
        <pt x="616" y="100" on="1"/>
        <pt x="629" y="106" on="1"/>
        <pt x="649" y="69" on="1"/>
        <pt x="607" y="33" on="0"/>
        <pt x="517" y="-12" on="0"/>
        <pt x="444" y="-12" on="0"/>
        <pt x="398" y="41" on="0"/>
        <pt x="398" y="132" on="0"/>
        <pt x="481" y="494" on="0"/>
        <pt x="481" y="594" on="0"/>
        <pt x="442" y="594" on="1"/>
        <pt x="383" y="594" on="0"/>
        <pt x="308" y="535" on="1"/>
        <pt x="297" y="482" on="0"/>
        <pt x="267" y="358" on="1"/>
        <pt x="201" y="85" on="0"/>
        <pt x="201" y="16" on="1"/>
        <pt x="162" y="-4" on="0"/>
      </contour>
      <contour>
        <pt x="639" y="846" on="1"/>
        <pt x="639" y="818" on="0"/>
        <pt x="602" y="802" on="1"/>
        <pt x="511" y="776" on="0"/>
        <pt x="340" y="750" on="1"/>
        <pt x="319" y="796" on="1"/>
        <pt x="529" y="891" on="0"/>
        <pt x="602" y="931" on="1"/>
        <pt x="613" y="915" on="0"/>
        <pt x="639" y="856" on="0"/>
      </contour>
    </TTGlyph>
    <TTGlyph name="Ntilde" xMin="44" yMin="-12" xMax="649" yMax="901">
      <contour>
        <pt x="63" y="-4" on="1"/>
        <pt x="44" y="-4" on="1"/>
        <pt x="48" y="41" on="0"/>
        <pt x="146" y="480" on="0"/>
        <pt x="158" y="589" on="1"/>
        <pt x="158" y="605" on="0"/>
        <pt x="137" y="650" on="0"/>
        <pt x="126" y="664" on="1"/>
        <pt x="116" y="678" on="1"/>
        <pt x="119" y="693" on="1"/>
        <pt x="175" y="710" on="0"/>
        <pt x="312" y="710" on="1"/>
        <pt x="325" y="686" on="0"/>
        <pt x="325" y="640" on="0"/>
        <pt x="321" y="606" on="1"/>
        <pt x="446" y="710" on="0"/>
        <pt x="525" y="710" on="1"/>
        <pt x="577" y="710" on="0"/>
        <pt x="641" y="642" on="0"/>
        <pt x="641" y="520" on="0"/>
        <pt x="556" y="177" on="0"/>
        <pt x="556" y="109" on="1"/>
        <pt x="556" y="80" on="0"/>
        <pt x="566" y="80" on="1"/>
        <pt x="575" y="80" on="0"/>
        <pt x="616" y="100" on="1"/>
        <pt x="629" y="106" on="1"/>
        <pt x="649" y="69" on="1"/>
        <pt x="607" y="33" on="0"/>
        <pt x="517" y="-12" on="0"/>
        <pt x="444" y="-12" on="0"/>
        <pt x="398" y="41" on="0"/>
        <pt x="398" y="132" on="0"/>
        <pt x="481" y="494" on="0"/>
        <pt x="481" y="594" on="0"/>
        <pt x="442" y="594" on="1"/>
        <pt x="383" y="594" on="0"/>
        <pt x="308" y="535" on="1"/>
        <pt x="297" y="482" on="0"/>
        <pt x="267" y="358" on="1"/>
        <pt x="201" y="85" on="0"/>
        <pt x="201" y="16" on="1"/>
        <pt x="162" y="-4" on="0"/>
      </contour>
      <contour>
        <pt x="248" y="765" on="1"/>
        <pt x="262" y="901" on="0"/>
        <pt x="350" y="901" on="1"/>
        <pt x="384" y="901" on="0"/>
        <pt x="525" y="865" on="0"/>
        <pt x="570" y="865" on="0"/>
        <pt x="579" y="866" on="1"/>
        <pt x="599" y="870" on="0"/>
        <pt x="615" y="898" on="1"/>
        <pt x="647" y="892" on="1"/>
        <pt x="642" y="851" on="0"/>
        <pt x="630" y="819" on="1"/>
        <pt x="608" y="763" on="0"/>
        <pt x="544" y="763" on="1"/>
        <pt x="521" y="763" on="0"/>
        <pt x="386" y="798" on="0"/>
        <pt x="323" y="798" on="0"/>
        <pt x="295" y="783" on="0"/>
        <pt x="281" y="758" on="1"/>
      </contour>
    </TTGlyph>
    <TTGlyph name="O" xMin="51" yMin="-12" xMax="631" yMax="710">
      <contour>
        <pt x="605" y="582" on="0"/>
        <pt x="631" y="493" on="0"/>
        <pt x="631" y="385" on="0"/>
        <pt x="607" y="263" on="0"/>
        <pt x="551" y="141" on="0"/>
        <pt x="471" y="47" on="0"/>
        <pt x="349" y="-12" on="0"/>
        <pt x="276" y="-12" on="1"/>
        <pt x="169" y="-12" on="0"/>
        <pt x="51" y="141" on="0"/>
        <pt x="51" y="382" on="0"/>
        <pt x="136" y="583" on="0"/>
        <pt x="295" y="710" on="0"/>
        <pt x="392" y="710" on="1"/>
        <pt x="456" y="710" on="0"/>
        <pt x="552" y="662" on="0"/>
      </contour>
      <contour>
        <pt x="353" y="56" on="0"/>
        <pt x="418" y="138" on="0"/>
        <pt x="435" y="204" on="1"/>
        <pt x="469" y="334" on="0"/>
        <pt x="469" y="471" on="1"/>
        <pt x="469" y="642" on="0"/>
        <pt x="377" y="642" on="1"/>
        <pt x="325" y="642" on="0"/>
        <pt x="286" y="580" on="1"/>
        <pt x="213" y="463" on="0"/>
        <pt x="213" y="256" on="1"/>
        <pt x="213" y="143" on="0"/>
        <pt x="226" y="116" on="1"/>
        <pt x="232" y="101" on="0"/>
        <pt x="242" y="85" on="1"/>
        <pt x="260" y="56" on="0"/>
      </contour>
    </TTGlyph>
    <TTGlyph name="OE" xMin="51" yMin="-12" xMax="861" yMax="710">
      <contour>
        <pt x="586" y="377" on="1"/>
        <pt x="657" y="387" on="0"/>
        <pt x="785" y="387" on="0"/>
        <pt x="812" y="378" on="1"/>
        <pt x="812" y="343" on="0"/>
        <pt x="798" y="316" on="1"/>
        <pt x="794" y="307" on="1"/>
        <pt x="731" y="316" on="0"/>
        <pt x="689" y="316" on="1"/>
        <pt x="576" y="309" on="1"/>
        <pt x="562" y="261" on="0"/>
        <pt x="562" y="200" on="1"/>
        <pt x="562" y="80" on="0"/>
        <pt x="662" y="80" on="1"/>
        <pt x="711" y="80" on="0"/>
        <pt x="843" y="128" on="1"/>
        <pt x="861" y="77" on="1"/>
        <pt x="825" y="47" on="0"/>
        <pt x="678" y="-12" on="0"/>
        <pt x="608" y="-12" on="1"/>
        <pt x="512" y="-12" on="0"/>
        <pt x="449" y="36" on="1"/>
        <pt x="372" y="-12" on="0"/>
        <pt x="169" y="-12" on="0"/>
        <pt x="51" y="141" on="0"/>
        <pt x="51" y="273" on="1"/>
        <pt x="51" y="411" on="0"/>
        <pt x="112" y="522" on="1"/>
        <pt x="176" y="640" on="0"/>
        <pt x="286" y="686" on="1"/>
        <pt x="346" y="710" on="0"/>
        <pt x="414" y="710" on="1"/>
        <pt x="582" y="705" on="1"/>
        <pt x="751" y="705" on="0"/>
        <pt x="853" y="708" on="1"/>
        <pt x="856" y="683" on="0"/>
        <pt x="856" y="667" on="1"/>
        <pt x="856" y="620" on="0"/>
        <pt x="817" y="620" on="1"/>
        <pt x="810" y="620" on="0"/>
        <pt x="701" y="630" on="0"/>
        <pt x="644" y="630" on="0"/>
        <pt x="630" y="628" on="1"/>
        <pt x="609" y="508" on="0"/>
      </contour>
      <contour>
        <pt x="412" y="135" on="1"/>
        <pt x="412" y="219" on="0"/>
        <pt x="456" y="524" on="0"/>
        <pt x="479" y="627" on="1"/>
        <pt x="452" y="645" on="0"/>
        <pt x="405" y="645" on="1"/>
        <pt x="315" y="645" on="0"/>
        <pt x="211" y="432" on="0"/>
        <pt x="211" y="57" on="0"/>
        <pt x="303" y="57" on="1"/>
        <pt x="368" y="57" on="0"/>
        <pt x="412" y="111" on="1"/>
      </contour>
    </TTGlyph>
    <TTGlyph name="Oacute" xMin="51" yMin="-12" xMax="631" yMax="931">
      <contour>
        <pt x="605" y="582" on="0"/>
        <pt x="631" y="493" on="0"/>
        <pt x="631" y="385" on="0"/>
        <pt x="607" y="263" on="0"/>
        <pt x="551" y="141" on="0"/>
        <pt x="471" y="47" on="0"/>
        <pt x="349" y="-12" on="0"/>
        <pt x="276" y="-12" on="1"/>
        <pt x="169" y="-12" on="0"/>
        <pt x="51" y="141" on="0"/>
        <pt x="51" y="382" on="0"/>
        <pt x="136" y="583" on="0"/>
        <pt x="295" y="710" on="0"/>
        <pt x="392" y="710" on="1"/>
        <pt x="456" y="710" on="0"/>
        <pt x="552" y="662" on="0"/>
      </contour>
      <contour>
        <pt x="353" y="56" on="0"/>
        <pt x="418" y="138" on="0"/>
        <pt x="435" y="204" on="1"/>
        <pt x="469" y="334" on="0"/>
        <pt x="469" y="471" on="1"/>
        <pt x="469" y="642" on="0"/>
        <pt x="377" y="642" on="1"/>
        <pt x="325" y="642" on="0"/>
        <pt x="286" y="580" on="1"/>
        <pt x="213" y="463" on="0"/>
        <pt x="213" y="256" on="1"/>
        <pt x="213" y="143" on="0"/>
        <pt x="226" y="116" on="1"/>
        <pt x="232" y="101" on="0"/>
        <pt x="242" y="85" on="1"/>
        <pt x="260" y="56" on="0"/>
      </contour>
      <contour>
        <pt x="584" y="846" on="1"/>
        <pt x="584" y="818" on="0"/>
        <pt x="547" y="802" on="1"/>
        <pt x="456" y="776" on="0"/>
        <pt x="285" y="750" on="1"/>
        <pt x="264" y="796" on="1"/>
        <pt x="474" y="891" on="0"/>
        <pt x="547" y="931" on="1"/>
        <pt x="558" y="915" on="0"/>
        <pt x="584" y="856" on="0"/>
      </contour>
    </TTGlyph>
    <TTGlyph name="Ocircumflex" xMin="51" yMin="-12" xMax="631" yMax="919">
      <contour>
        <pt x="605" y="582" on="0"/>
        <pt x="631" y="493" on="0"/>
        <pt x="631" y="385" on="0"/>
        <pt x="607" y="263" on="0"/>
        <pt x="551" y="141" on="0"/>
        <pt x="471" y="47" on="0"/>
        <pt x="349" y="-12" on="0"/>
        <pt x="276" y="-12" on="1"/>
        <pt x="169" y="-12" on="0"/>
        <pt x="51" y="141" on="0"/>
        <pt x="51" y="382" on="0"/>
        <pt x="136" y="583" on="0"/>
        <pt x="295" y="710" on="0"/>
        <pt x="392" y="710" on="1"/>
        <pt x="456" y="710" on="0"/>
        <pt x="552" y="662" on="0"/>
      </contour>
      <contour>
        <pt x="353" y="56" on="0"/>
        <pt x="418" y="138" on="0"/>
        <pt x="435" y="204" on="1"/>
        <pt x="469" y="334" on="0"/>
        <pt x="469" y="471" on="1"/>
        <pt x="469" y="642" on="0"/>
        <pt x="377" y="642" on="1"/>
        <pt x="325" y="642" on="0"/>
        <pt x="286" y="580" on="1"/>
        <pt x="213" y="463" on="0"/>
        <pt x="213" y="256" on="1"/>
        <pt x="213" y="143" on="0"/>
        <pt x="226" y="116" on="1"/>
        <pt x="232" y="101" on="0"/>
        <pt x="242" y="85" on="1"/>
        <pt x="260" y="56" on="0"/>
      </contour>
      <contour>
        <pt x="264" y="819" on="0"/>
        <pt x="444" y="919" on="0"/>
        <pt x="497" y="919" on="0"/>
        <pt x="585" y="816" on="0"/>
        <pt x="612" y="775" on="1"/>
        <pt x="578" y="743" on="1"/>
        <pt x="471" y="797" on="0"/>
        <pt x="439" y="804" on="1"/>
        <pt x="388" y="795" on="0"/>
        <pt x="249" y="742" on="0"/>
        <pt x="240" y="739" on="1"/>
        <pt x="213" y="776" on="1"/>
      </contour>
    </TTGlyph>
    <TTGlyph name="Odieresis" xMin="51" yMin="-12" xMax="631" yMax="899">
      <contour>
        <pt x="605" y="582" on="0"/>
        <pt x="631" y="493" on="0"/>
        <pt x="631" y="385" on="0"/>
        <pt x="607" y="263" on="0"/>
        <pt x="551" y="141" on="0"/>
        <pt x="471" y="47" on="0"/>
        <pt x="349" y="-12" on="0"/>
        <pt x="276" y="-12" on="1"/>
        <pt x="169" y="-12" on="0"/>
        <pt x="51" y="141" on="0"/>
        <pt x="51" y="382" on="0"/>
        <pt x="136" y="583" on="0"/>
        <pt x="295" y="710" on="0"/>
        <pt x="392" y="710" on="1"/>
        <pt x="456" y="710" on="0"/>
        <pt x="552" y="662" on="0"/>
      </contour>
      <contour>
        <pt x="353" y="56" on="0"/>
        <pt x="418" y="138" on="0"/>
        <pt x="435" y="204" on="1"/>
        <pt x="469" y="334" on="0"/>
        <pt x="469" y="471" on="1"/>
        <pt x="469" y="642" on="0"/>
        <pt x="377" y="642" on="1"/>
        <pt x="325" y="642" on="0"/>
        <pt x="286" y="580" on="1"/>
        <pt x="213" y="463" on="0"/>
        <pt x="213" y="256" on="1"/>
        <pt x="213" y="143" on="0"/>
        <pt x="226" y="116" on="1"/>
        <pt x="232" y="101" on="0"/>
        <pt x="242" y="85" on="1"/>
        <pt x="260" y="56" on="0"/>
      </contour>
      <contour>
        <pt x="260" y="765" on="0"/>
        <pt x="227" y="799" on="0"/>
        <pt x="227" y="858" on="0"/>
        <pt x="273" y="899" on="0"/>
        <pt x="304" y="899" on="1"/>
        <pt x="369" y="899" on="0"/>
        <pt x="369" y="836" on="1"/>
        <pt x="369" y="808" on="0"/>
        <pt x="322" y="765" on="0"/>
      </contour>
      <contour>
        <pt x="465" y="765" on="0"/>
        <pt x="433" y="799" on="0"/>
        <pt x="433" y="858" on="0"/>
        <pt x="478" y="899" on="0"/>
        <pt x="509" y="899" on="1"/>
        <pt x="575" y="899" on="0"/>
        <pt x="575" y="836" on="1"/>
        <pt x="575" y="808" on="0"/>
        <pt x="527" y="765" on="0"/>
      </contour>
    </TTGlyph>
    <TTGlyph name="Ograve" xMin="51" yMin="-12" xMax="631" yMax="915">
      <contour>
        <pt x="605" y="582" on="0"/>
        <pt x="631" y="493" on="0"/>
        <pt x="631" y="385" on="0"/>
        <pt x="607" y="263" on="0"/>
        <pt x="551" y="141" on="0"/>
        <pt x="471" y="47" on="0"/>
        <pt x="349" y="-12" on="0"/>
        <pt x="276" y="-12" on="1"/>
        <pt x="169" y="-12" on="0"/>
        <pt x="51" y="141" on="0"/>
        <pt x="51" y="382" on="0"/>
        <pt x="136" y="583" on="0"/>
        <pt x="295" y="710" on="0"/>
        <pt x="392" y="710" on="1"/>
        <pt x="456" y="710" on="0"/>
        <pt x="552" y="662" on="0"/>
      </contour>
      <contour>
        <pt x="353" y="56" on="0"/>
        <pt x="418" y="138" on="0"/>
        <pt x="435" y="204" on="1"/>
        <pt x="469" y="334" on="0"/>
        <pt x="469" y="471" on="1"/>
        <pt x="469" y="642" on="0"/>
        <pt x="377" y="642" on="1"/>
        <pt x="325" y="642" on="0"/>
        <pt x="286" y="580" on="1"/>
        <pt x="213" y="463" on="0"/>
        <pt x="213" y="256" on="1"/>
        <pt x="213" y="143" on="0"/>
        <pt x="226" y="116" on="1"/>
        <pt x="232" y="101" on="0"/>
        <pt x="242" y="85" on="1"/>
        <pt x="260" y="56" on="0"/>
      </contour>
      <contour>
        <pt x="259" y="915" on="1"/>
        <pt x="299" y="915" on="0"/>
        <pt x="518" y="783" on="1"/>
        <pt x="501" y="736" on="1"/>
        <pt x="406" y="764" on="0"/>
        <pt x="195" y="819" on="1"/>
        <pt x="221" y="915" on="0"/>
      </contour>
    </TTGlyph>
    <TTGlyph name="Oslash" xMin="51" yMin="-100" xMax="631" yMax="798">
      <contour>
        <pt x="572" y="647" on="0"/>
        <pt x="631" y="517" on="0"/>
        <pt x="631" y="385" on="0"/>
        <pt x="607" y="263" on="0"/>
        <pt x="551" y="141" on="0"/>
        <pt x="471" y="47" on="0"/>
        <pt x="349" y="-12" on="0"/>
        <pt x="276" y="-12" on="1"/>
        <pt x="258" y="-12" on="0"/>
        <pt x="242" y="-9" on="1"/>
        <pt x="215" y="-86" on="0"/>
        <pt x="210" y="-100" on="1"/>
        <pt x="181" y="-98" on="0"/>
        <pt x="168" y="-88" on="1"/>
        <pt x="156" y="-81" on="0"/>
        <pt x="142" y="-72" on="1"/>
        <pt x="172" y="12" on="1"/>
        <pt x="113" y="43" on="0"/>
        <pt x="51" y="177" on="0"/>
        <pt x="51" y="382" on="0"/>
        <pt x="136" y="583" on="0"/>
        <pt x="295" y="710" on="0"/>
        <pt x="392" y="710" on="1"/>
        <pt x="410" y="710" on="0"/>
        <pt x="440" y="706" on="1"/>
        <pt x="476" y="798" on="1"/>
        <pt x="528" y="790" on="0"/>
        <pt x="539" y="780" on="1"/>
        <pt x="540" y="779" on="0"/>
        <pt x="548" y="772" on="1"/>
        <pt x="512" y="681" on="1"/>
      </contour>
      <contour>
        <pt x="310" y="56" on="1"/>
        <pt x="353" y="56" on="0"/>
        <pt x="418" y="138" on="0"/>
        <pt x="435" y="204" on="1"/>
        <pt x="469" y="334" on="0"/>
        <pt x="469" y="471" on="1"/>
        <pt x="469" y="523" on="0"/>
        <pt x="462" y="556" on="1"/>
        <pt x="311" y="175" on="0"/>
        <pt x="269" y="63" on="1"/>
        <pt x="284" y="56" on="0"/>
      </contour>
      <contour>
        <pt x="377" y="642" on="1"/>
        <pt x="325" y="642" on="0"/>
        <pt x="286" y="580" on="1"/>
        <pt x="213" y="463" on="0"/>
        <pt x="213" y="256" on="1"/>
        <pt x="213" y="172" on="0"/>
        <pt x="220" y="138" on="1"/>
        <pt x="260" y="242" on="0"/>
        <pt x="412" y="634" on="1"/>
        <pt x="396" y="642" on="0"/>
      </contour>
    </TTGlyph>
    <TTGlyph name="Otilde" xMin="51" yMin="-12" xMax="631" yMax="901">
      <contour>
        <pt x="605" y="582" on="0"/>
        <pt x="631" y="493" on="0"/>
        <pt x="631" y="385" on="0"/>
        <pt x="607" y="263" on="0"/>
        <pt x="551" y="141" on="0"/>
        <pt x="471" y="47" on="0"/>
        <pt x="349" y="-12" on="0"/>
        <pt x="276" y="-12" on="1"/>
        <pt x="169" y="-12" on="0"/>
        <pt x="51" y="141" on="0"/>
        <pt x="51" y="382" on="0"/>
        <pt x="136" y="583" on="0"/>
        <pt x="295" y="710" on="0"/>
        <pt x="392" y="710" on="1"/>
        <pt x="456" y="710" on="0"/>
        <pt x="552" y="662" on="0"/>
      </contour>
      <contour>
        <pt x="353" y="56" on="0"/>
        <pt x="418" y="138" on="0"/>
        <pt x="435" y="204" on="1"/>
        <pt x="469" y="334" on="0"/>
        <pt x="469" y="471" on="1"/>
        <pt x="469" y="642" on="0"/>
        <pt x="377" y="642" on="1"/>
        <pt x="325" y="642" on="0"/>
        <pt x="286" y="580" on="1"/>
        <pt x="213" y="463" on="0"/>
        <pt x="213" y="256" on="1"/>
        <pt x="213" y="143" on="0"/>
        <pt x="226" y="116" on="1"/>
        <pt x="232" y="101" on="0"/>
        <pt x="242" y="85" on="1"/>
        <pt x="260" y="56" on="0"/>
      </contour>
      <contour>
        <pt x="203" y="765" on="1"/>
        <pt x="217" y="901" on="0"/>
        <pt x="305" y="901" on="1"/>
        <pt x="339" y="901" on="0"/>
        <pt x="480" y="865" on="0"/>
        <pt x="525" y="865" on="0"/>
        <pt x="534" y="866" on="1"/>
        <pt x="554" y="870" on="0"/>
        <pt x="570" y="898" on="1"/>
        <pt x="602" y="892" on="1"/>
        <pt x="597" y="851" on="0"/>
        <pt x="585" y="819" on="1"/>
        <pt x="563" y="763" on="0"/>
        <pt x="499" y="763" on="1"/>
        <pt x="476" y="763" on="0"/>
        <pt x="341" y="798" on="0"/>
        <pt x="278" y="798" on="0"/>
        <pt x="250" y="783" on="0"/>
        <pt x="236" y="758" on="1"/>
      </contour>
    </TTGlyph>
    <TTGlyph name="P" xMin="44" yMin="-4" xMax="584" yMax="710">
      <contour>
        <pt x="290" y="277" on="1"/>
        <pt x="263" y="277" on="0"/>
        <pt x="249" y="278" on="1"/>
        <pt x="206" y="90" on="0"/>
        <pt x="201" y="17" on="1"/>
        <pt x="158" y="-4" on="0"/>
        <pt x="70" y="-4" on="1"/>
        <pt x="51" y="-4" on="0"/>
        <pt x="44" y="-3" on="1"/>
        <pt x="51" y="56" on="0"/>
        <pt x="157" y="531" on="0"/>
        <pt x="157" y="593" on="1"/>
        <pt x="157" y="605" on="0"/>
        <pt x="130" y="644" on="0"/>
        <pt x="116" y="657" on="1"/>
        <pt x="103" y="670" on="1"/>
        <pt x="106" y="685" on="1"/>
        <pt x="274" y="710" on="0"/>
        <pt x="378" y="710" on="1"/>
        <pt x="584" y="710" on="0"/>
        <pt x="584" y="542" on="1"/>
        <pt x="584" y="430" on="0"/>
        <pt x="436" y="277" on="0"/>
      </contour>
      <contour>
        <pt x="274" y="344" on="1"/>
        <pt x="351" y="344" on="0"/>
        <pt x="430" y="460" on="0"/>
        <pt x="430" y="557" on="1"/>
        <pt x="430" y="597" on="0"/>
        <pt x="400" y="648" on="0"/>
        <pt x="371" y="648" on="1"/>
        <pt x="352" y="648" on="0"/>
        <pt x="324" y="641" on="1"/>
        <pt x="308" y="536" on="0"/>
        <pt x="264" y="344" on="1"/>
      </contour>
    </TTGlyph>
    <TTGlyph name="Q" xMin="51" yMin="-224" xMax="636" yMax="710">
      <contour>
        <pt x="516" y="-224" on="1"/>
        <pt x="484" y="-224" on="0"/>
        <pt x="295" y="-115" on="0"/>
        <pt x="258" y="-115" on="1"/>
        <pt x="196" y="-183" on="0"/>
        <pt x="168" y="-183" on="1"/>
        <pt x="158" y="-183" on="0"/>
        <pt x="105" y="-119" on="0"/>
        <pt x="105" y="-85" on="0"/>
        <pt x="175" y="-34" on="0"/>
        <pt x="268" y="-34" on="0"/>
        <pt x="482" y="-95" on="0"/>
        <pt x="542" y="-95" on="1"/>
        <pt x="560" y="-95" on="0"/>
        <pt x="575" y="-80" on="0"/>
        <pt x="590" y="-56" on="0"/>
        <pt x="603" y="-35" on="0"/>
        <pt x="604" y="-35" on="1"/>
        <pt x="636" y="-45" on="1"/>
        <pt x="636" y="-224" on="0"/>
      </contour>
      <contour>
        <pt x="605" y="582" on="0"/>
        <pt x="631" y="493" on="0"/>
        <pt x="631" y="385" on="0"/>
        <pt x="607" y="263" on="0"/>
        <pt x="551" y="141" on="0"/>
        <pt x="471" y="47" on="0"/>
        <pt x="349" y="-12" on="0"/>
        <pt x="276" y="-12" on="1"/>
        <pt x="169" y="-12" on="0"/>
        <pt x="51" y="141" on="0"/>
        <pt x="51" y="382" on="0"/>
        <pt x="136" y="583" on="0"/>
        <pt x="295" y="710" on="0"/>
        <pt x="392" y="710" on="1"/>
        <pt x="456" y="710" on="0"/>
        <pt x="552" y="662" on="0"/>
      </contour>
      <contour>
        <pt x="353" y="56" on="0"/>
        <pt x="418" y="138" on="0"/>
        <pt x="435" y="204" on="1"/>
        <pt x="469" y="334" on="0"/>
        <pt x="469" y="471" on="1"/>
        <pt x="469" y="642" on="0"/>
        <pt x="377" y="642" on="1"/>
        <pt x="324" y="642" on="0"/>
        <pt x="286" y="580" on="1"/>
        <pt x="213" y="462" on="0"/>
        <pt x="213" y="256" on="1"/>
        <pt x="213" y="143" on="0"/>
        <pt x="226" y="116" on="1"/>
        <pt x="232" y="101" on="0"/>
        <pt x="242" y="85" on="1"/>
        <pt x="260" y="56" on="0"/>
      </contour>
    </TTGlyph>
    <TTGlyph name="R" xMin="44" yMin="-12" xMax="651" yMax="710">
      <contour>
        <pt x="70" y="-5" on="1"/>
        <pt x="51" y="-5" on="0"/>
        <pt x="44" y="-4" on="1"/>
        <pt x="51" y="54" on="0"/>
        <pt x="160" y="527" on="0"/>
        <pt x="160" y="590" on="1"/>
        <pt x="160" y="602" on="0"/>
        <pt x="132" y="641" on="0"/>
        <pt x="118" y="654" on="1"/>
        <pt x="105" y="668" on="1"/>
        <pt x="108" y="684" on="1"/>
        <pt x="245" y="710" on="0"/>
        <pt x="398" y="710" on="1"/>
        <pt x="582" y="710" on="0"/>
        <pt x="582" y="565" on="1"/>
        <pt x="582" y="494" on="0"/>
        <pt x="511" y="377" on="0"/>
        <pt x="436" y="344" on="1"/>
        <pt x="492" y="157" on="0"/>
        <pt x="532" y="102" on="1"/>
        <pt x="550" y="79" on="0"/>
        <pt x="560" y="79" on="1"/>
        <pt x="578" y="79" on="0"/>
        <pt x="616" y="97" on="1"/>
        <pt x="628" y="103" on="1"/>
        <pt x="651" y="66" on="1"/>
        <pt x="614" y="32" on="0"/>
        <pt x="517" y="-12" on="0"/>
        <pt x="432" y="-12" on="0"/>
        <pt x="377" y="61" on="0"/>
        <pt x="332" y="203" on="0"/>
        <pt x="309" y="314" on="1"/>
        <pt x="277" y="312" on="0"/>
        <pt x="260" y="312" on="1"/>
        <pt x="209" y="93" on="0"/>
        <pt x="204" y="16" on="1"/>
        <pt x="161" y="-5" on="0"/>
      </contour>
      <contour>
        <pt x="299" y="380" on="1"/>
        <pt x="359" y="380" on="0"/>
        <pt x="428" y="487" on="0"/>
        <pt x="428" y="561" on="1"/>
        <pt x="428" y="600" on="0"/>
        <pt x="400" y="648" on="0"/>
        <pt x="372" y="648" on="1"/>
        <pt x="360" y="648" on="0"/>
        <pt x="327" y="641" on="0"/>
        <pt x="327" y="640" on="1"/>
        <pt x="311" y="537" on="0"/>
        <pt x="275" y="380" on="1"/>
      </contour>
    </TTGlyph>
    <TTGlyph name="Racute" xMin="44" yMin="-12" xMax="651" yMax="931">
      <contour>
        <pt x="70" y="-5" on="1"/>
        <pt x="51" y="-5" on="0"/>
        <pt x="44" y="-4" on="1"/>
        <pt x="51" y="54" on="0"/>
        <pt x="160" y="527" on="0"/>
        <pt x="160" y="590" on="1"/>
        <pt x="160" y="602" on="0"/>
        <pt x="132" y="641" on="0"/>
        <pt x="118" y="654" on="1"/>
        <pt x="105" y="668" on="1"/>
        <pt x="108" y="684" on="1"/>
        <pt x="245" y="710" on="0"/>
        <pt x="398" y="710" on="1"/>
        <pt x="582" y="710" on="0"/>
        <pt x="582" y="565" on="1"/>
        <pt x="582" y="494" on="0"/>
        <pt x="511" y="377" on="0"/>
        <pt x="436" y="344" on="1"/>
        <pt x="492" y="157" on="0"/>
        <pt x="532" y="102" on="1"/>
        <pt x="550" y="79" on="0"/>
        <pt x="560" y="79" on="1"/>
        <pt x="578" y="79" on="0"/>
        <pt x="616" y="97" on="1"/>
        <pt x="628" y="103" on="1"/>
        <pt x="651" y="66" on="1"/>
        <pt x="614" y="32" on="0"/>
        <pt x="517" y="-12" on="0"/>
        <pt x="432" y="-12" on="0"/>
        <pt x="377" y="61" on="0"/>
        <pt x="332" y="203" on="0"/>
        <pt x="309" y="314" on="1"/>
        <pt x="277" y="312" on="0"/>
        <pt x="260" y="312" on="1"/>
        <pt x="209" y="93" on="0"/>
        <pt x="204" y="16" on="1"/>
        <pt x="161" y="-5" on="0"/>
      </contour>
      <contour>
        <pt x="299" y="380" on="1"/>
        <pt x="359" y="380" on="0"/>
        <pt x="428" y="487" on="0"/>
        <pt x="428" y="561" on="1"/>
        <pt x="428" y="600" on="0"/>
        <pt x="400" y="648" on="0"/>
        <pt x="372" y="648" on="1"/>
        <pt x="360" y="648" on="0"/>
        <pt x="327" y="641" on="0"/>
        <pt x="327" y="640" on="1"/>
        <pt x="311" y="537" on="0"/>
        <pt x="275" y="380" on="1"/>
      </contour>
      <contour>
        <pt x="559" y="846" on="1"/>
        <pt x="559" y="818" on="0"/>
        <pt x="522" y="802" on="1"/>
        <pt x="431" y="776" on="0"/>
        <pt x="260" y="750" on="1"/>
        <pt x="239" y="796" on="1"/>
        <pt x="449" y="891" on="0"/>
        <pt x="522" y="931" on="1"/>
        <pt x="533" y="915" on="0"/>
        <pt x="559" y="856" on="0"/>
      </contour>
    </TTGlyph>
    <TTGlyph name="Rcaron" xMin="44" yMin="-12" xMax="651" yMax="925">
      <contour>
        <pt x="70" y="-5" on="1"/>
        <pt x="51" y="-5" on="0"/>
        <pt x="44" y="-4" on="1"/>
        <pt x="51" y="54" on="0"/>
        <pt x="160" y="527" on="0"/>
        <pt x="160" y="590" on="1"/>
        <pt x="160" y="602" on="0"/>
        <pt x="132" y="641" on="0"/>
        <pt x="118" y="654" on="1"/>
        <pt x="105" y="668" on="1"/>
        <pt x="108" y="684" on="1"/>
        <pt x="245" y="710" on="0"/>
        <pt x="398" y="710" on="1"/>
        <pt x="582" y="710" on="0"/>
        <pt x="582" y="565" on="1"/>
        <pt x="582" y="494" on="0"/>
        <pt x="511" y="377" on="0"/>
        <pt x="436" y="344" on="1"/>
        <pt x="492" y="157" on="0"/>
        <pt x="532" y="102" on="1"/>
        <pt x="550" y="79" on="0"/>
        <pt x="560" y="79" on="1"/>
        <pt x="578" y="79" on="0"/>
        <pt x="616" y="97" on="1"/>
        <pt x="628" y="103" on="1"/>
        <pt x="651" y="66" on="1"/>
        <pt x="614" y="32" on="0"/>
        <pt x="517" y="-12" on="0"/>
        <pt x="432" y="-12" on="0"/>
        <pt x="377" y="61" on="0"/>
        <pt x="332" y="203" on="0"/>
        <pt x="309" y="314" on="1"/>
        <pt x="277" y="312" on="0"/>
        <pt x="260" y="312" on="1"/>
        <pt x="209" y="93" on="0"/>
        <pt x="204" y="16" on="1"/>
        <pt x="161" y="-5" on="0"/>
      </contour>
      <contour>
        <pt x="299" y="380" on="1"/>
        <pt x="359" y="380" on="0"/>
        <pt x="428" y="487" on="0"/>
        <pt x="428" y="561" on="1"/>
        <pt x="428" y="600" on="0"/>
        <pt x="400" y="648" on="0"/>
        <pt x="372" y="648" on="1"/>
        <pt x="360" y="648" on="0"/>
        <pt x="327" y="641" on="0"/>
        <pt x="327" y="640" on="1"/>
        <pt x="311" y="537" on="0"/>
        <pt x="275" y="380" on="1"/>
      </contour>
      <contour>
        <pt x="570" y="845" on="0"/>
        <pt x="390" y="745" on="0"/>
        <pt x="337" y="745" on="0"/>
        <pt x="249" y="848" on="0"/>
        <pt x="222" y="889" on="1"/>
        <pt x="256" y="921" on="1"/>
        <pt x="363" y="867" on="0"/>
        <pt x="395" y="860" on="1"/>
        <pt x="446" y="869" on="0"/>
        <pt x="585" y="922" on="0"/>
        <pt x="594" y="925" on="1"/>
        <pt x="621" y="888" on="1"/>
      </contour>
    </TTGlyph>
    <TTGlyph name="Rcommaaccent" xMin="44" yMin="-262" xMax="651" yMax="710">
      <contour>
        <pt x="367" y="-90" on="1"/>
        <pt x="367" y="-174" on="0"/>
        <pt x="279" y="-262" on="1"/>
        <pt x="245" y="-244" on="1"/>
        <pt x="265" y="-203" on="0"/>
        <pt x="271" y="-156" on="1"/>
        <pt x="212" y="-105" on="1"/>
        <pt x="216" y="-84" on="0"/>
        <pt x="263" y="-24" on="0"/>
        <pt x="287" y="-14" on="1"/>
        <pt x="319" y="-14" on="0"/>
        <pt x="367" y="-64" on="0"/>
      </contour>
      <contour>
        <pt x="70" y="-5" on="1"/>
        <pt x="51" y="-5" on="0"/>
        <pt x="44" y="-4" on="1"/>
        <pt x="51" y="54" on="0"/>
        <pt x="160" y="527" on="0"/>
        <pt x="160" y="590" on="1"/>
        <pt x="160" y="602" on="0"/>
        <pt x="132" y="641" on="0"/>
        <pt x="118" y="654" on="1"/>
        <pt x="105" y="668" on="1"/>
        <pt x="108" y="684" on="1"/>
        <pt x="245" y="710" on="0"/>
        <pt x="398" y="710" on="1"/>
        <pt x="582" y="710" on="0"/>
        <pt x="582" y="565" on="1"/>
        <pt x="582" y="494" on="0"/>
        <pt x="511" y="377" on="0"/>
        <pt x="436" y="344" on="1"/>
        <pt x="492" y="157" on="0"/>
        <pt x="532" y="102" on="1"/>
        <pt x="550" y="79" on="0"/>
        <pt x="560" y="79" on="1"/>
        <pt x="578" y="79" on="0"/>
        <pt x="616" y="97" on="1"/>
        <pt x="628" y="103" on="1"/>
        <pt x="651" y="66" on="1"/>
        <pt x="614" y="32" on="0"/>
        <pt x="517" y="-12" on="0"/>
        <pt x="432" y="-12" on="0"/>
        <pt x="377" y="61" on="0"/>
        <pt x="332" y="203" on="0"/>
        <pt x="309" y="314" on="1"/>
        <pt x="277" y="312" on="0"/>
        <pt x="260" y="312" on="1"/>
        <pt x="209" y="93" on="0"/>
        <pt x="204" y="16" on="1"/>
        <pt x="161" y="-5" on="0"/>
      </contour>
      <contour>
        <pt x="299" y="380" on="1"/>
        <pt x="359" y="380" on="0"/>
        <pt x="428" y="487" on="0"/>
        <pt x="428" y="561" on="1"/>
        <pt x="428" y="600" on="0"/>
        <pt x="400" y="648" on="0"/>
        <pt x="372" y="648" on="1"/>
        <pt x="360" y="648" on="0"/>
        <pt x="327" y="641" on="0"/>
        <pt x="327" y="640" on="1"/>
        <pt x="311" y="537" on="0"/>
        <pt x="275" y="380" on="1"/>
      </contour>
    </TTGlyph>
    <TTGlyph name="S" xMin="16" yMin="-12" xMax="456" yMax="710">
      <contour>
        <pt x="432" y="196" on="1"/>
        <pt x="432" y="100" on="0"/>
        <pt x="286" y="-12" on="0"/>
        <pt x="182" y="-12" on="1"/>
        <pt x="112" y="-12" on="0"/>
        <pt x="21" y="59" on="0"/>
        <pt x="16" y="84" on="1"/>
        <pt x="27" y="117" on="0"/>
        <pt x="99" y="199" on="0"/>
        <pt x="128" y="208" on="1"/>
        <pt x="179" y="175" on="0"/>
        <pt x="223" y="61" on="1"/>
        <pt x="288" y="63" on="0"/>
        <pt x="288" y="132" on="1"/>
        <pt x="288" y="170" on="0"/>
        <pt x="227" y="281" on="0"/>
        <pt x="155" y="378" on="0"/>
        <pt x="94" y="499" on="0"/>
        <pt x="94" y="546" on="1"/>
        <pt x="94" y="622" on="0"/>
        <pt x="217" y="710" on="0"/>
        <pt x="371" y="710" on="0"/>
        <pt x="456" y="644" on="0"/>
        <pt x="456" y="560" on="0"/>
        <pt x="392" y="472" on="0"/>
        <pt x="360" y="446" on="1"/>
        <pt x="328" y="420" on="1"/>
        <pt x="340" y="404" on="0"/>
        <pt x="374" y="354" on="0"/>
        <pt x="432" y="234" on="0"/>
      </contour>
      <contour>
        <pt x="369" y="537" on="0"/>
        <pt x="391" y="574" on="0"/>
        <pt x="391" y="615" on="0"/>
        <pt x="343" y="643" on="0"/>
        <pt x="276" y="643" on="0"/>
        <pt x="231" y="612" on="0"/>
        <pt x="231" y="569" on="0"/>
        <pt x="260" y="512" on="0"/>
        <pt x="274" y="493" on="1"/>
        <pt x="289" y="474" on="1"/>
        <pt x="299" y="479" on="0"/>
        <pt x="342" y="511" on="0"/>
      </contour>
    </TTGlyph>
    <TTGlyph name="T" xMin="35" yMin="-3" xMax="567" yMax="710">
      <contour>
        <pt x="136" y="710" on="1"/>
        <pt x="470" y="699" on="1"/>
        <pt x="564" y="701" on="1"/>
        <pt x="567" y="680" on="0"/>
        <pt x="567" y="634" on="0"/>
        <pt x="551" y="614" on="0"/>
        <pt x="530" y="614" on="1"/>
        <pt x="528" y="614" on="0"/>
        <pt x="389" y="627" on="1"/>
        <pt x="385" y="582" on="0"/>
        <pt x="333" y="364" on="0"/>
        <pt x="285" y="116" on="0"/>
        <pt x="284" y="17" on="1"/>
        <pt x="245" y="-3" on="0"/>
        <pt x="124" y="-3" on="1"/>
        <pt x="117" y="-3" on="1"/>
        <pt x="117" y="49" on="0"/>
        <pt x="231" y="565" on="0"/>
        <pt x="231" y="621" on="1"/>
        <pt x="231" y="625" on="0"/>
        <pt x="229" y="635" on="1"/>
        <pt x="189" y="635" on="1"/>
        <pt x="107" y="635" on="0"/>
        <pt x="63" y="610" on="1"/>
        <pt x="40" y="640" on="0"/>
        <pt x="35" y="698" on="1"/>
        <pt x="69" y="710" on="0"/>
      </contour>
    </TTGlyph>
    <TTGlyph name="Thorn" xMin="44" yMin="-3" xMax="569" yMax="710">
      <contour>
        <pt x="315" y="587" on="1"/>
        <pt x="358" y="588" on="1"/>
        <pt x="569" y="588" on="0"/>
        <pt x="569" y="420" on="1"/>
        <pt x="569" y="309" on="0"/>
        <pt x="413" y="155" on="0"/>
        <pt x="265" y="155" on="1"/>
        <pt x="239" y="155" on="0"/>
        <pt x="225" y="156" on="1"/>
        <pt x="207" y="58" on="0"/>
        <pt x="206" y="17" on="1"/>
        <pt x="170" y="-3" on="0"/>
        <pt x="54" y="-3" on="1"/>
        <pt x="44" y="-3" on="1"/>
        <pt x="47" y="41" on="0"/>
        <pt x="148" y="479" on="0"/>
        <pt x="160" y="589" on="1"/>
        <pt x="160" y="605" on="0"/>
        <pt x="140" y="650" on="0"/>
        <pt x="130" y="664" on="1"/>
        <pt x="119" y="678" on="1"/>
        <pt x="122" y="693" on="1"/>
        <pt x="181" y="710" on="0"/>
        <pt x="309" y="710" on="1"/>
        <pt x="321" y="690" on="0"/>
        <pt x="321" y="624" on="0"/>
      </contour>
      <contour>
        <pt x="418" y="474" on="0"/>
        <pt x="379" y="526" on="0"/>
        <pt x="323" y="526" on="0"/>
        <pt x="302" y="520" on="1"/>
        <pt x="293" y="473" on="0"/>
        <pt x="246" y="267" on="0"/>
        <pt x="237" y="222" on="1"/>
        <pt x="249" y="222" on="1"/>
        <pt x="327" y="222" on="0"/>
        <pt x="418" y="340" on="0"/>
        <pt x="418" y="435" on="1"/>
      </contour>
    </TTGlyph>
    <TTGlyph name="U" xMin="68" yMin="-12" xMax="656" yMax="710">
      <contour>
        <pt x="313" y="685" on="0"/>
        <pt x="313" y="581" on="0"/>
        <pt x="228" y="205" on="0"/>
        <pt x="228" y="104" on="0"/>
        <pt x="265" y="104" on="1"/>
        <pt x="329" y="104" on="0"/>
        <pt x="409" y="159" on="1"/>
        <pt x="415" y="195" on="0"/>
        <pt x="438" y="304" on="1"/>
        <pt x="492" y="556" on="0"/>
        <pt x="494" y="651" on="1"/>
        <pt x="494" y="668" on="0"/>
        <pt x="492" y="679" on="1"/>
        <pt x="572" y="710" on="0"/>
        <pt x="653" y="710" on="1"/>
        <pt x="656" y="704" on="0"/>
        <pt x="656" y="680" on="1"/>
        <pt x="656" y="625" on="0"/>
        <pt x="559" y="169" on="0"/>
        <pt x="559" y="107" on="1"/>
        <pt x="559" y="80" on="0"/>
        <pt x="577" y="80" on="0"/>
        <pt x="629" y="106" on="1"/>
        <pt x="647" y="69" on="1"/>
        <pt x="558" y="-12" on="0"/>
        <pt x="489" y="-12" on="1"/>
        <pt x="451" y="-12" on="0"/>
        <pt x="401" y="36" on="0"/>
        <pt x="400" y="80" on="1"/>
        <pt x="265" y="-12" on="0"/>
        <pt x="176" y="-12" on="1"/>
        <pt x="127" y="-12" on="0"/>
        <pt x="68" y="51" on="0"/>
        <pt x="68" y="161" on="0"/>
        <pt x="150" y="512" on="0"/>
        <pt x="150" y="589" on="1"/>
        <pt x="150" y="605" on="0"/>
        <pt x="130" y="650" on="0"/>
        <pt x="120" y="664" on="1"/>
        <pt x="110" y="678" on="1"/>
        <pt x="112" y="693" on="1"/>
        <pt x="167" y="710" on="0"/>
        <pt x="298" y="710" on="1"/>
      </contour>
    </TTGlyph>
    <TTGlyph name="Uacute" xMin="68" yMin="-12" xMax="656" yMax="931">
      <contour>
        <pt x="313" y="685" on="0"/>
        <pt x="313" y="581" on="0"/>
        <pt x="228" y="205" on="0"/>
        <pt x="228" y="104" on="0"/>
        <pt x="265" y="104" on="1"/>
        <pt x="329" y="104" on="0"/>
        <pt x="409" y="159" on="1"/>
        <pt x="415" y="195" on="0"/>
        <pt x="438" y="304" on="1"/>
        <pt x="492" y="556" on="0"/>
        <pt x="494" y="651" on="1"/>
        <pt x="494" y="668" on="0"/>
        <pt x="492" y="679" on="1"/>
        <pt x="572" y="710" on="0"/>
        <pt x="653" y="710" on="1"/>
        <pt x="656" y="704" on="0"/>
        <pt x="656" y="680" on="1"/>
        <pt x="656" y="625" on="0"/>
        <pt x="559" y="169" on="0"/>
        <pt x="559" y="107" on="1"/>
        <pt x="559" y="80" on="0"/>
        <pt x="577" y="80" on="0"/>
        <pt x="629" y="106" on="1"/>
        <pt x="647" y="69" on="1"/>
        <pt x="558" y="-12" on="0"/>
        <pt x="489" y="-12" on="1"/>
        <pt x="451" y="-12" on="0"/>
        <pt x="401" y="36" on="0"/>
        <pt x="400" y="80" on="1"/>
        <pt x="265" y="-12" on="0"/>
        <pt x="176" y="-12" on="1"/>
        <pt x="127" y="-12" on="0"/>
        <pt x="68" y="51" on="0"/>
        <pt x="68" y="161" on="0"/>
        <pt x="150" y="512" on="0"/>
        <pt x="150" y="589" on="1"/>
        <pt x="150" y="605" on="0"/>
        <pt x="130" y="650" on="0"/>
        <pt x="120" y="664" on="1"/>
        <pt x="110" y="678" on="1"/>
        <pt x="112" y="693" on="1"/>
        <pt x="167" y="710" on="0"/>
        <pt x="298" y="710" on="1"/>
      </contour>
      <contour>
        <pt x="620" y="846" on="1"/>
        <pt x="620" y="818" on="0"/>
        <pt x="583" y="802" on="1"/>
        <pt x="492" y="776" on="0"/>
        <pt x="321" y="750" on="1"/>
        <pt x="300" y="796" on="1"/>
        <pt x="510" y="891" on="0"/>
        <pt x="583" y="931" on="1"/>
        <pt x="594" y="915" on="0"/>
        <pt x="620" y="856" on="0"/>
      </contour>
    </TTGlyph>
    <TTGlyph name="Ucircumflex" xMin="68" yMin="-12" xMax="656" yMax="919">
      <contour>
        <pt x="313" y="685" on="0"/>
        <pt x="313" y="581" on="0"/>
        <pt x="228" y="205" on="0"/>
        <pt x="228" y="104" on="0"/>
        <pt x="265" y="104" on="1"/>
        <pt x="329" y="104" on="0"/>
        <pt x="409" y="159" on="1"/>
        <pt x="415" y="195" on="0"/>
        <pt x="438" y="304" on="1"/>
        <pt x="492" y="556" on="0"/>
        <pt x="494" y="651" on="1"/>
        <pt x="494" y="668" on="0"/>
        <pt x="492" y="679" on="1"/>
        <pt x="572" y="710" on="0"/>
        <pt x="653" y="710" on="1"/>
        <pt x="656" y="704" on="0"/>
        <pt x="656" y="680" on="1"/>
        <pt x="656" y="625" on="0"/>
        <pt x="559" y="169" on="0"/>
        <pt x="559" y="107" on="1"/>
        <pt x="559" y="80" on="0"/>
        <pt x="577" y="80" on="0"/>
        <pt x="629" y="106" on="1"/>
        <pt x="647" y="69" on="1"/>
        <pt x="558" y="-12" on="0"/>
        <pt x="489" y="-12" on="1"/>
        <pt x="451" y="-12" on="0"/>
        <pt x="401" y="36" on="0"/>
        <pt x="400" y="80" on="1"/>
        <pt x="265" y="-12" on="0"/>
        <pt x="176" y="-12" on="1"/>
        <pt x="127" y="-12" on="0"/>
        <pt x="68" y="51" on="0"/>
        <pt x="68" y="161" on="0"/>
        <pt x="150" y="512" on="0"/>
        <pt x="150" y="589" on="1"/>
        <pt x="150" y="605" on="0"/>
        <pt x="130" y="650" on="0"/>
        <pt x="120" y="664" on="1"/>
        <pt x="110" y="678" on="1"/>
        <pt x="112" y="693" on="1"/>
        <pt x="167" y="710" on="0"/>
        <pt x="298" y="710" on="1"/>
      </contour>
      <contour>
        <pt x="264" y="819" on="0"/>
        <pt x="444" y="919" on="0"/>
        <pt x="497" y="919" on="0"/>
        <pt x="585" y="816" on="0"/>
        <pt x="612" y="775" on="1"/>
        <pt x="578" y="743" on="1"/>
        <pt x="471" y="797" on="0"/>
        <pt x="439" y="804" on="1"/>
        <pt x="388" y="795" on="0"/>
        <pt x="249" y="742" on="0"/>
        <pt x="240" y="739" on="1"/>
        <pt x="213" y="776" on="1"/>
      </contour>
    </TTGlyph>
    <TTGlyph name="Udieresis" xMin="68" yMin="-12" xMax="656" yMax="899">
      <contour>
        <pt x="313" y="685" on="0"/>
        <pt x="313" y="581" on="0"/>
        <pt x="228" y="205" on="0"/>
        <pt x="228" y="104" on="0"/>
        <pt x="265" y="104" on="1"/>
        <pt x="329" y="104" on="0"/>
        <pt x="409" y="159" on="1"/>
        <pt x="415" y="195" on="0"/>
        <pt x="438" y="304" on="1"/>
        <pt x="492" y="556" on="0"/>
        <pt x="494" y="651" on="1"/>
        <pt x="494" y="668" on="0"/>
        <pt x="492" y="679" on="1"/>
        <pt x="572" y="710" on="0"/>
        <pt x="653" y="710" on="1"/>
        <pt x="656" y="704" on="0"/>
        <pt x="656" y="680" on="1"/>
        <pt x="656" y="625" on="0"/>
        <pt x="559" y="169" on="0"/>
        <pt x="559" y="107" on="1"/>
        <pt x="559" y="80" on="0"/>
        <pt x="577" y="80" on="0"/>
        <pt x="629" y="106" on="1"/>
        <pt x="647" y="69" on="1"/>
        <pt x="558" y="-12" on="0"/>
        <pt x="489" y="-12" on="1"/>
        <pt x="451" y="-12" on="0"/>
        <pt x="401" y="36" on="0"/>
        <pt x="400" y="80" on="1"/>
        <pt x="265" y="-12" on="0"/>
        <pt x="176" y="-12" on="1"/>
        <pt x="127" y="-12" on="0"/>
        <pt x="68" y="51" on="0"/>
        <pt x="68" y="161" on="0"/>
        <pt x="150" y="512" on="0"/>
        <pt x="150" y="589" on="1"/>
        <pt x="150" y="605" on="0"/>
        <pt x="130" y="650" on="0"/>
        <pt x="120" y="664" on="1"/>
        <pt x="110" y="678" on="1"/>
        <pt x="112" y="693" on="1"/>
        <pt x="167" y="710" on="0"/>
        <pt x="298" y="710" on="1"/>
      </contour>
      <contour>
        <pt x="286" y="765" on="0"/>
        <pt x="253" y="799" on="0"/>
        <pt x="253" y="858" on="0"/>
        <pt x="299" y="899" on="0"/>
        <pt x="330" y="899" on="1"/>
        <pt x="395" y="899" on="0"/>
        <pt x="395" y="836" on="1"/>
        <pt x="395" y="808" on="0"/>
        <pt x="348" y="765" on="0"/>
      </contour>
      <contour>
        <pt x="491" y="765" on="0"/>
        <pt x="459" y="799" on="0"/>
        <pt x="459" y="858" on="0"/>
        <pt x="504" y="899" on="0"/>
        <pt x="535" y="899" on="1"/>
        <pt x="601" y="899" on="0"/>
        <pt x="601" y="836" on="1"/>
        <pt x="601" y="808" on="0"/>
        <pt x="553" y="765" on="0"/>
      </contour>
    </TTGlyph>
    <TTGlyph name="Ugrave" xMin="68" yMin="-12" xMax="656" yMax="915">
      <contour>
        <pt x="313" y="685" on="0"/>
        <pt x="313" y="581" on="0"/>
        <pt x="228" y="205" on="0"/>
        <pt x="228" y="104" on="0"/>
        <pt x="265" y="104" on="1"/>
        <pt x="329" y="104" on="0"/>
        <pt x="409" y="159" on="1"/>
        <pt x="415" y="195" on="0"/>
        <pt x="438" y="304" on="1"/>
        <pt x="492" y="556" on="0"/>
        <pt x="494" y="651" on="1"/>
        <pt x="494" y="668" on="0"/>
        <pt x="492" y="679" on="1"/>
        <pt x="572" y="710" on="0"/>
        <pt x="653" y="710" on="1"/>
        <pt x="656" y="704" on="0"/>
        <pt x="656" y="680" on="1"/>
        <pt x="656" y="625" on="0"/>
        <pt x="559" y="169" on="0"/>
        <pt x="559" y="107" on="1"/>
        <pt x="559" y="80" on="0"/>
        <pt x="577" y="80" on="0"/>
        <pt x="629" y="106" on="1"/>
        <pt x="647" y="69" on="1"/>
        <pt x="558" y="-12" on="0"/>
        <pt x="489" y="-12" on="1"/>
        <pt x="451" y="-12" on="0"/>
        <pt x="401" y="36" on="0"/>
        <pt x="400" y="80" on="1"/>
        <pt x="265" y="-12" on="0"/>
        <pt x="176" y="-12" on="1"/>
        <pt x="127" y="-12" on="0"/>
        <pt x="68" y="51" on="0"/>
        <pt x="68" y="161" on="0"/>
        <pt x="150" y="512" on="0"/>
        <pt x="150" y="589" on="1"/>
        <pt x="150" y="605" on="0"/>
        <pt x="130" y="650" on="0"/>
        <pt x="120" y="664" on="1"/>
        <pt x="110" y="678" on="1"/>
        <pt x="112" y="693" on="1"/>
        <pt x="167" y="710" on="0"/>
        <pt x="298" y="710" on="1"/>
      </contour>
      <contour>
        <pt x="259" y="915" on="1"/>
        <pt x="299" y="915" on="0"/>
        <pt x="518" y="783" on="1"/>
        <pt x="501" y="736" on="1"/>
        <pt x="406" y="764" on="0"/>
        <pt x="195" y="819" on="1"/>
        <pt x="221" y="915" on="0"/>
      </contour>
    </TTGlyph>
    <TTGlyph name="V" xMin="77" yMin="-12" xMax="615" yMax="712">
      <contour>
        <pt x="164" y="-12" on="0"/>
        <pt x="103" y="63" on="0"/>
        <pt x="103" y="173" on="0"/>
        <pt x="131" y="451" on="0"/>
        <pt x="131" y="569" on="0"/>
        <pt x="118" y="602" on="1"/>
        <pt x="77" y="678" on="1"/>
        <pt x="81" y="693" on="1"/>
        <pt x="162" y="710" on="0"/>
        <pt x="282" y="710" on="1"/>
        <pt x="292" y="672" on="0"/>
        <pt x="292" y="514" on="0"/>
        <pt x="253" y="213" on="0"/>
        <pt x="253" y="114" on="0"/>
        <pt x="315" y="114" on="0"/>
        <pt x="412" y="220" on="0"/>
        <pt x="500" y="393" on="0"/>
        <pt x="510" y="473" on="1"/>
        <pt x="404" y="535" on="1"/>
        <pt x="412" y="611" on="0"/>
        <pt x="441" y="656" on="1"/>
        <pt x="467" y="696" on="0"/>
        <pt x="484" y="707" on="1"/>
        <pt x="491" y="712" on="1"/>
        <pt x="552" y="712" on="0"/>
        <pt x="615" y="648" on="0"/>
        <pt x="615" y="604" on="1"/>
        <pt x="615" y="495" on="0"/>
        <pt x="485" y="203" on="0"/>
        <pt x="291" y="-12" on="0"/>
        <pt x="209" y="-12" on="1"/>
      </contour>
    </TTGlyph>
    <TTGlyph name="W" xMin="60" yMin="-12" xMax="930" yMax="710">
      <contour>
        <pt x="117" y="123" on="1"/>
        <pt x="117" y="123" on="0"/>
        <pt x="124" y="440" on="1"/>
        <pt x="124" y="566" on="0"/>
        <pt x="109" y="602" on="1"/>
        <pt x="60" y="678" on="1"/>
        <pt x="63" y="693" on="1"/>
        <pt x="134" y="709" on="0"/>
        <pt x="267" y="709" on="1"/>
        <pt x="286" y="680" on="0"/>
        <pt x="286" y="523" on="0"/>
        <pt x="266" y="258" on="0"/>
        <pt x="266" y="114" on="0"/>
        <pt x="300" y="114" on="1"/>
        <pt x="320" y="114" on="0"/>
        <pt x="396" y="179" on="0"/>
        <pt x="423" y="217" on="1"/>
        <pt x="445" y="443" on="0"/>
        <pt x="445" y="601" on="0"/>
        <pt x="423" y="669" on="1"/>
        <pt x="476" y="696" on="0"/>
        <pt x="597" y="710" on="1"/>
        <pt x="608" y="674" on="0"/>
        <pt x="608" y="543" on="0"/>
        <pt x="567" y="219" on="0"/>
        <pt x="567" y="114" on="0"/>
        <pt x="628" y="114" on="0"/>
        <pt x="732" y="230" on="0"/>
        <pt x="819" y="403" on="0"/>
        <pt x="824" y="473" on="1"/>
        <pt x="718" y="535" on="1"/>
        <pt x="725" y="595" on="0"/>
        <pt x="768" y="682" on="0"/>
        <pt x="786" y="696" on="1"/>
        <pt x="804" y="710" on="1"/>
        <pt x="865" y="710" on="0"/>
        <pt x="930" y="647" on="0"/>
        <pt x="930" y="604" on="1"/>
        <pt x="930" y="523" on="0"/>
        <pt x="849" y="307" on="0"/>
        <pt x="730" y="119" on="0"/>
        <pt x="578" y="-12" on="0"/>
        <pt x="514" y="-12" on="1"/>
        <pt x="476" y="-12" on="0"/>
        <pt x="417" y="60" on="0"/>
        <pt x="416" y="116" on="1"/>
        <pt x="372" y="56" on="0"/>
        <pt x="274" y="-12" on="0"/>
        <pt x="184" y="-12" on="0"/>
        <pt x="117" y="63" on="0"/>
      </contour>
    </TTGlyph>
    <TTGlyph name="X" xMin="-27" yMin="-14" xMax="594" yMax="710">
      <contour>
        <pt x="532" y="710" on="1"/>
        <pt x="557" y="710" on="0"/>
        <pt x="594" y="670" on="1"/>
        <pt x="555" y="599" on="0"/>
        <pt x="456" y="488" on="1"/>
        <pt x="423" y="451" on="0"/>
        <pt x="358" y="380" on="1"/>
        <pt x="381" y="315" on="0"/>
        <pt x="416" y="224" on="1"/>
        <pt x="468" y="87" on="0"/>
        <pt x="499" y="87" on="1"/>
        <pt x="509" y="87" on="0"/>
        <pt x="551" y="110" on="1"/>
        <pt x="565" y="117" on="1"/>
        <pt x="586" y="73" on="1"/>
        <pt x="555" y="42" on="0"/>
        <pt x="448" y="-12" on="0"/>
        <pt x="371" y="-12" on="0"/>
        <pt x="325" y="29" on="0"/>
        <pt x="281" y="143" on="0"/>
        <pt x="245" y="252" on="1"/>
        <pt x="133" y="121" on="0"/>
        <pt x="57" y="3" on="1"/>
        <pt x="47" y="-14" on="0"/>
        <pt x="5" y="-14" on="0"/>
        <pt x="-27" y="28" on="1"/>
        <pt x="19" y="107" on="0"/>
        <pt x="119" y="220" on="1"/>
        <pt x="154" y="259" on="0"/>
        <pt x="219" y="330" on="1"/>
        <pt x="146" y="546" on="0"/>
        <pt x="85" y="634" on="0"/>
        <pt x="54" y="665" on="1"/>
        <pt x="58" y="680" on="1"/>
        <pt x="56" y="681" on="0"/>
        <pt x="83" y="688" on="1"/>
        <pt x="159" y="706" on="0"/>
        <pt x="238" y="710" on="1"/>
        <pt x="263" y="688" on="0"/>
        <pt x="279" y="633" on="1"/>
        <pt x="322" y="488" on="0"/>
        <pt x="332" y="456" on="1"/>
        <pt x="460" y="602" on="0"/>
        <pt x="509" y="693" on="1"/>
        <pt x="518" y="710" on="0"/>
      </contour>
    </TTGlyph>
    <TTGlyph name="Y" xMin="68" yMin="-224" xMax="653" yMax="710">
      <contour>
        <pt x="316" y="-209" on="0"/>
        <pt x="249" y="-224" on="0"/>
        <pt x="171" y="-224" on="0"/>
        <pt x="116" y="-178" on="0"/>
        <pt x="116" y="-102" on="0"/>
        <pt x="167" y="-40" on="0"/>
        <pt x="203" y="-22" on="1"/>
        <pt x="276" y="16" on="0"/>
        <pt x="336" y="28" on="1"/>
        <pt x="362" y="33" on="1"/>
        <pt x="363" y="37" on="0"/>
        <pt x="385" y="109" on="0"/>
        <pt x="390" y="129" on="1"/>
        <pt x="263" y="53" on="0"/>
        <pt x="181" y="53" on="1"/>
        <pt x="132" y="53" on="0"/>
        <pt x="68" y="116" on="0"/>
        <pt x="68" y="233" on="0"/>
        <pt x="144" y="538" on="0"/>
        <pt x="144" y="589" on="1"/>
        <pt x="144" y="622" on="0"/>
        <pt x="114" y="664" on="1"/>
        <pt x="104" y="678" on="1"/>
        <pt x="107" y="693" on="1"/>
        <pt x="167" y="710" on="0"/>
        <pt x="292" y="710" on="1"/>
        <pt x="306" y="680" on="0"/>
        <pt x="306" y="578" on="0"/>
        <pt x="230" y="249" on="0"/>
        <pt x="230" y="223" on="1"/>
        <pt x="230" y="170" on="0"/>
        <pt x="266" y="170" on="1"/>
        <pt x="334" y="170" on="0"/>
        <pt x="411" y="209" on="1"/>
        <pt x="472" y="460" on="0"/>
        <pt x="494" y="683" on="1"/>
        <pt x="545" y="709" on="0"/>
        <pt x="634" y="709" on="1"/>
        <pt x="653" y="709" on="1"/>
        <pt x="653" y="656" on="0"/>
        <pt x="635" y="562" on="1"/>
        <pt x="612" y="443" on="0"/>
        <pt x="564" y="202" on="1"/>
        <pt x="543" y="94" on="0"/>
        <pt x="475" y="-67" on="0"/>
        <pt x="403" y="-155" on="0"/>
      </contour>
      <contour>
        <pt x="210" y="-157" on="1"/>
        <pt x="245" y="-157" on="0"/>
        <pt x="321" y="-80" on="0"/>
        <pt x="345" y="-27" on="1"/>
        <pt x="298" y="-32" on="0"/>
        <pt x="181" y="-95" on="0"/>
        <pt x="181" y="-128" on="1"/>
        <pt x="181" y="-140" on="0"/>
        <pt x="198" y="-157" on="0"/>
      </contour>
    </TTGlyph>
    <TTGlyph name="Yacute" xMin="68" yMin="-224" xMax="653" yMax="931">
      <contour>
        <pt x="316" y="-209" on="0"/>
        <pt x="249" y="-224" on="0"/>
        <pt x="171" y="-224" on="0"/>
        <pt x="116" y="-178" on="0"/>
        <pt x="116" y="-102" on="0"/>
        <pt x="167" y="-40" on="0"/>
        <pt x="203" y="-22" on="1"/>
        <pt x="276" y="16" on="0"/>
        <pt x="336" y="28" on="1"/>
        <pt x="362" y="33" on="1"/>
        <pt x="363" y="37" on="0"/>
        <pt x="385" y="109" on="0"/>
        <pt x="390" y="129" on="1"/>
        <pt x="263" y="53" on="0"/>
        <pt x="181" y="53" on="1"/>
        <pt x="132" y="53" on="0"/>
        <pt x="68" y="116" on="0"/>
        <pt x="68" y="233" on="0"/>
        <pt x="144" y="538" on="0"/>
        <pt x="144" y="589" on="1"/>
        <pt x="144" y="622" on="0"/>
        <pt x="114" y="664" on="1"/>
        <pt x="104" y="678" on="1"/>
        <pt x="107" y="693" on="1"/>
        <pt x="167" y="710" on="0"/>
        <pt x="292" y="710" on="1"/>
        <pt x="306" y="680" on="0"/>
        <pt x="306" y="578" on="0"/>
        <pt x="230" y="249" on="0"/>
        <pt x="230" y="223" on="1"/>
        <pt x="230" y="170" on="0"/>
        <pt x="266" y="170" on="1"/>
        <pt x="334" y="170" on="0"/>
        <pt x="411" y="209" on="1"/>
        <pt x="472" y="460" on="0"/>
        <pt x="494" y="683" on="1"/>
        <pt x="545" y="709" on="0"/>
        <pt x="634" y="709" on="1"/>
        <pt x="653" y="709" on="1"/>
        <pt x="653" y="656" on="0"/>
        <pt x="635" y="562" on="1"/>
        <pt x="612" y="443" on="0"/>
        <pt x="564" y="202" on="1"/>
        <pt x="543" y="94" on="0"/>
        <pt x="475" y="-67" on="0"/>
        <pt x="403" y="-155" on="0"/>
      </contour>
      <contour>
        <pt x="210" y="-157" on="1"/>
        <pt x="245" y="-157" on="0"/>
        <pt x="321" y="-80" on="0"/>
        <pt x="345" y="-27" on="1"/>
        <pt x="298" y="-32" on="0"/>
        <pt x="181" y="-95" on="0"/>
        <pt x="181" y="-128" on="1"/>
        <pt x="181" y="-140" on="0"/>
        <pt x="198" y="-157" on="0"/>
      </contour>
      <contour>
        <pt x="629" y="846" on="1"/>
        <pt x="629" y="818" on="0"/>
        <pt x="592" y="802" on="1"/>
        <pt x="501" y="776" on="0"/>
        <pt x="330" y="750" on="1"/>
        <pt x="309" y="796" on="1"/>
        <pt x="519" y="891" on="0"/>
        <pt x="592" y="931" on="1"/>
        <pt x="603" y="915" on="0"/>
        <pt x="629" y="856" on="0"/>
      </contour>
    </TTGlyph>
    <TTGlyph name="Z" xMin="-12" yMin="-13" xMax="555" yMax="710">
      <contour>
        <pt x="420" y="-13" on="1"/>
        <pt x="379" y="-13" on="0"/>
        <pt x="203" y="67" on="0"/>
        <pt x="141" y="67" on="1"/>
        <pt x="123" y="67" on="0"/>
        <pt x="51" y="-7" on="0"/>
        <pt x="33" y="-7" on="0"/>
        <pt x="-3" y="15" on="0"/>
        <pt x="-12" y="26" on="1"/>
        <pt x="28" y="107" on="0"/>
        <pt x="310" y="447" on="0"/>
        <pt x="382" y="556" on="1"/>
        <pt x="284" y="569" on="0"/>
        <pt x="228" y="569" on="1"/>
        <pt x="144" y="569" on="0"/>
        <pt x="108" y="549" on="1"/>
        <pt x="96" y="542" on="1"/>
        <pt x="94" y="542" on="0"/>
        <pt x="88" y="558" on="1"/>
        <pt x="70" y="606" on="0"/>
        <pt x="70" y="678" on="0"/>
        <pt x="76" y="692" on="1"/>
        <pt x="117" y="710" on="0"/>
        <pt x="219" y="710" on="0"/>
        <pt x="394" y="687" on="0"/>
        <pt x="496" y="687" on="0"/>
        <pt x="536" y="696" on="1"/>
        <pt x="555" y="651" on="1"/>
        <pt x="491" y="549" on="0"/>
        <pt x="263" y="269" on="0"/>
        <pt x="211" y="189" on="1"/>
        <pt x="253" y="186" on="0"/>
        <pt x="409" y="137" on="0"/>
        <pt x="469" y="137" on="0"/>
        <pt x="493" y="157" on="0"/>
        <pt x="512" y="192" on="1"/>
        <pt x="544" y="182" on="1"/>
        <pt x="539" y="111" on="0"/>
        <pt x="525" y="66" on="1"/>
        <pt x="501" y="-13" on="0"/>
      </contour>
    </TTGlyph>
    <TTGlyph name="a" xMin="32" yMin="-12" xMax="492" yMax="443">
      <contour>
        <pt x="328" y="414" on="1"/>
        <pt x="330" y="416" on="0"/>
        <pt x="339" y="440" on="1"/>
        <pt x="386" y="440" on="0"/>
        <pt x="465" y="412" on="1"/>
        <pt x="440" y="329" on="0"/>
        <pt x="410" y="148" on="0"/>
        <pt x="410" y="71" on="0"/>
        <pt x="418" y="71" on="1"/>
        <pt x="424" y="71" on="0"/>
        <pt x="462" y="90" on="1"/>
        <pt x="474" y="96" on="1"/>
        <pt x="492" y="61" on="1"/>
        <pt x="483" y="53" on="0"/>
        <pt x="454" y="29" on="0"/>
        <pt x="374" y="-12" on="0"/>
        <pt x="342" y="-12" on="1"/>
        <pt x="280" y="-12" on="0"/>
        <pt x="270" y="44" on="1"/>
        <pt x="206" y="-12" on="0"/>
        <pt x="103" y="-12" on="0"/>
        <pt x="32" y="68" on="0"/>
        <pt x="32" y="154" on="1"/>
        <pt x="32" y="288" on="0"/>
        <pt x="142" y="443" on="0"/>
        <pt x="220" y="443" on="1"/>
        <pt x="276" y="443" on="0"/>
      </contour>
      <contour>
        <pt x="214" y="73" on="1"/>
        <pt x="238" y="73" on="0"/>
        <pt x="268" y="92" on="1"/>
        <pt x="275" y="233" on="0"/>
        <pt x="315" y="371" on="1"/>
        <pt x="285" y="384" on="0"/>
        <pt x="264" y="384" on="1"/>
        <pt x="228" y="384" on="0"/>
        <pt x="177" y="243" on="0"/>
        <pt x="177" y="73" on="0"/>
      </contour>
    </TTGlyph>
    <TTGlyph name="aacute" xMin="32" yMin="-12" xMax="492" yMax="705">
      <contour>
        <pt x="328" y="414" on="1"/>
        <pt x="330" y="416" on="0"/>
        <pt x="339" y="440" on="1"/>
        <pt x="386" y="440" on="0"/>
        <pt x="465" y="412" on="1"/>
        <pt x="440" y="329" on="0"/>
        <pt x="410" y="148" on="0"/>
        <pt x="410" y="71" on="0"/>
        <pt x="418" y="71" on="1"/>
        <pt x="424" y="71" on="0"/>
        <pt x="462" y="90" on="1"/>
        <pt x="474" y="96" on="1"/>
        <pt x="492" y="61" on="1"/>
        <pt x="483" y="53" on="0"/>
        <pt x="454" y="29" on="0"/>
        <pt x="374" y="-12" on="0"/>
        <pt x="342" y="-12" on="1"/>
        <pt x="280" y="-12" on="0"/>
        <pt x="270" y="44" on="1"/>
        <pt x="206" y="-12" on="0"/>
        <pt x="103" y="-12" on="0"/>
        <pt x="32" y="68" on="0"/>
        <pt x="32" y="154" on="1"/>
        <pt x="32" y="288" on="0"/>
        <pt x="142" y="443" on="0"/>
        <pt x="220" y="443" on="1"/>
        <pt x="276" y="443" on="0"/>
      </contour>
      <contour>
        <pt x="214" y="73" on="1"/>
        <pt x="238" y="73" on="0"/>
        <pt x="268" y="92" on="1"/>
        <pt x="275" y="233" on="0"/>
        <pt x="315" y="371" on="1"/>
        <pt x="285" y="384" on="0"/>
        <pt x="264" y="384" on="1"/>
        <pt x="228" y="384" on="0"/>
        <pt x="177" y="243" on="0"/>
        <pt x="177" y="73" on="0"/>
      </contour>
      <contour>
        <pt x="467" y="616" on="1"/>
        <pt x="467" y="588" on="0"/>
        <pt x="431" y="571" on="1"/>
        <pt x="382" y="548" on="0"/>
        <pt x="186" y="503" on="1"/>
        <pt x="168" y="543" on="1"/>
        <pt x="262" y="592" on="0"/>
        <pt x="414" y="694" on="0"/>
        <pt x="432" y="705" on="1"/>
        <pt x="442" y="691" on="0"/>
        <pt x="467" y="631" on="0"/>
      </contour>
    </TTGlyph>
    <TTGlyph name="acircumflex" xMin="32" yMin="-12" xMax="492" yMax="705">
      <contour>
        <pt x="328" y="414" on="1"/>
        <pt x="330" y="416" on="0"/>
        <pt x="339" y="440" on="1"/>
        <pt x="386" y="440" on="0"/>
        <pt x="465" y="412" on="1"/>
        <pt x="440" y="329" on="0"/>
        <pt x="410" y="148" on="0"/>
        <pt x="410" y="71" on="0"/>
        <pt x="418" y="71" on="1"/>
        <pt x="424" y="71" on="0"/>
        <pt x="462" y="90" on="1"/>
        <pt x="474" y="96" on="1"/>
        <pt x="492" y="61" on="1"/>
        <pt x="483" y="53" on="0"/>
        <pt x="454" y="29" on="0"/>
        <pt x="374" y="-12" on="0"/>
        <pt x="342" y="-12" on="1"/>
        <pt x="280" y="-12" on="0"/>
        <pt x="270" y="44" on="1"/>
        <pt x="206" y="-12" on="0"/>
        <pt x="103" y="-12" on="0"/>
        <pt x="32" y="68" on="0"/>
        <pt x="32" y="154" on="1"/>
        <pt x="32" y="288" on="0"/>
        <pt x="142" y="443" on="0"/>
        <pt x="220" y="443" on="1"/>
        <pt x="276" y="443" on="0"/>
      </contour>
      <contour>
        <pt x="214" y="73" on="1"/>
        <pt x="238" y="73" on="0"/>
        <pt x="268" y="92" on="1"/>
        <pt x="275" y="233" on="0"/>
        <pt x="315" y="371" on="1"/>
        <pt x="285" y="384" on="0"/>
        <pt x="264" y="384" on="1"/>
        <pt x="228" y="384" on="0"/>
        <pt x="177" y="243" on="0"/>
        <pt x="177" y="73" on="0"/>
      </contour>
      <contour>
        <pt x="358" y="705" on="1"/>
        <pt x="391" y="705" on="0"/>
        <pt x="485" y="536" on="1"/>
        <pt x="454" y="507" on="1"/>
        <pt x="368" y="574" on="0"/>
        <pt x="325" y="590" on="1"/>
        <pt x="244" y="568" on="0"/>
        <pt x="136" y="503" on="1"/>
        <pt x="109" y="540" on="1"/>
        <pt x="162" y="591" on="0"/>
        <pt x="331" y="705" on="0"/>
      </contour>
    </TTGlyph>
    <TTGlyph name="acute" xMin="148" yMin="503" xMax="447" yMax="705">
      <contour>
        <pt x="447" y="616" on="1"/>
        <pt x="447" y="588" on="0"/>
        <pt x="411" y="571" on="1"/>
        <pt x="362" y="548" on="0"/>
        <pt x="166" y="503" on="1"/>
        <pt x="148" y="543" on="1"/>
        <pt x="242" y="592" on="0"/>
        <pt x="394" y="694" on="0"/>
        <pt x="412" y="705" on="1"/>
        <pt x="422" y="691" on="0"/>
        <pt x="447" y="631" on="0"/>
      </contour>
    </TTGlyph>
    <TTGlyph name="acute.cap" xMin="149" yMin="750" xMax="469" yMax="931">
      <contour>
        <pt x="469" y="846" on="1"/>
        <pt x="469" y="818" on="0"/>
        <pt x="432" y="802" on="1"/>
        <pt x="341" y="776" on="0"/>
        <pt x="170" y="750" on="1"/>
        <pt x="149" y="796" on="1"/>
        <pt x="359" y="891" on="0"/>
        <pt x="432" y="931" on="1"/>
        <pt x="443" y="915" on="0"/>
        <pt x="469" y="856" on="0"/>
      </contour>
    </TTGlyph>
    <TTGlyph name="adieresis" xMin="32" yMin="-12" xMax="492" yMax="678">
      <contour>
        <pt x="328" y="414" on="1"/>
        <pt x="330" y="416" on="0"/>
        <pt x="339" y="440" on="1"/>
        <pt x="386" y="440" on="0"/>
        <pt x="465" y="412" on="1"/>
        <pt x="440" y="329" on="0"/>
        <pt x="410" y="148" on="0"/>
        <pt x="410" y="71" on="0"/>
        <pt x="418" y="71" on="1"/>
        <pt x="424" y="71" on="0"/>
        <pt x="462" y="90" on="1"/>
        <pt x="474" y="96" on="1"/>
        <pt x="492" y="61" on="1"/>
        <pt x="483" y="53" on="0"/>
        <pt x="454" y="29" on="0"/>
        <pt x="374" y="-12" on="0"/>
        <pt x="342" y="-12" on="1"/>
        <pt x="280" y="-12" on="0"/>
        <pt x="270" y="44" on="1"/>
        <pt x="206" y="-12" on="0"/>
        <pt x="103" y="-12" on="0"/>
        <pt x="32" y="68" on="0"/>
        <pt x="32" y="154" on="1"/>
        <pt x="32" y="288" on="0"/>
        <pt x="142" y="443" on="0"/>
        <pt x="220" y="443" on="1"/>
        <pt x="276" y="443" on="0"/>
      </contour>
      <contour>
        <pt x="214" y="73" on="1"/>
        <pt x="238" y="73" on="0"/>
        <pt x="268" y="92" on="1"/>
        <pt x="275" y="233" on="0"/>
        <pt x="315" y="371" on="1"/>
        <pt x="285" y="384" on="0"/>
        <pt x="264" y="384" on="1"/>
        <pt x="228" y="384" on="0"/>
        <pt x="177" y="243" on="0"/>
        <pt x="177" y="73" on="0"/>
      </contour>
      <contour>
        <pt x="177" y="539" on="0"/>
        <pt x="145" y="575" on="0"/>
        <pt x="145" y="635" on="0"/>
        <pt x="190" y="678" on="0"/>
        <pt x="219" y="678" on="1"/>
        <pt x="282" y="678" on="0"/>
        <pt x="282" y="613" on="1"/>
        <pt x="282" y="584" on="0"/>
        <pt x="236" y="539" on="0"/>
      </contour>
      <contour>
        <pt x="372" y="539" on="0"/>
        <pt x="341" y="574" on="0"/>
        <pt x="341" y="635" on="0"/>
        <pt x="386" y="678" on="0"/>
        <pt x="446" y="678" on="0"/>
        <pt x="478" y="643" on="0"/>
        <pt x="478" y="584" on="0"/>
        <pt x="432" y="539" on="0"/>
      </contour>
    </TTGlyph>
    <TTGlyph name="ae" xMin="32" yMin="-12" xMax="654" yMax="443">
      <contour>
        <pt x="220" y="443" on="1"/>
        <pt x="275" y="443" on="0"/>
        <pt x="326" y="415" on="1"/>
        <pt x="332" y="430" on="0"/>
        <pt x="339" y="440" on="1"/>
        <pt x="367" y="435" on="0"/>
        <pt x="411" y="414" on="1"/>
        <pt x="464" y="443" on="0"/>
        <pt x="578" y="443" on="0"/>
        <pt x="654" y="385" on="0"/>
        <pt x="654" y="288" on="0"/>
        <pt x="605" y="222" on="0"/>
        <pt x="570" y="204" on="1"/>
        <pt x="499" y="169" on="0"/>
        <pt x="440" y="160" on="1"/>
        <pt x="416" y="157" on="1"/>
        <pt x="423" y="63" on="0"/>
        <pt x="493" y="63" on="1"/>
        <pt x="517" y="63" on="0"/>
        <pt x="571" y="87" on="0"/>
        <pt x="586" y="99" on="1"/>
        <pt x="601" y="111" on="1"/>
        <pt x="625" y="79" on="1"/>
        <pt x="617" y="68" on="0"/>
        <pt x="569" y="32" on="0"/>
        <pt x="548" y="20" on="1"/>
        <pt x="490" y="-12" on="0"/>
        <pt x="428" y="-12" on="1"/>
        <pt x="335" y="-12" on="0"/>
        <pt x="297" y="70" on="1"/>
        <pt x="273" y="39" on="0"/>
        <pt x="181" y="-12" on="0"/>
        <pt x="149" y="-12" on="1"/>
        <pt x="103" y="-12" on="0"/>
        <pt x="32" y="68" on="0"/>
        <pt x="32" y="154" on="1"/>
        <pt x="32" y="288" on="0"/>
        <pt x="142" y="443" on="0"/>
      </contour>
      <contour>
        <pt x="285" y="106" on="1"/>
        <pt x="278" y="126" on="0"/>
        <pt x="278" y="286" on="0"/>
        <pt x="308" y="374" on="1"/>
        <pt x="285" y="384" on="0"/>
        <pt x="264" y="384" on="1"/>
        <pt x="228" y="384" on="0"/>
        <pt x="177" y="243" on="0"/>
        <pt x="177" y="73" on="0"/>
        <pt x="252" y="73" on="0"/>
      </contour>
      <contour>
        <pt x="466" y="215" on="0"/>
        <pt x="526" y="283" on="0"/>
        <pt x="526" y="391" on="0"/>
        <pt x="494" y="391" on="1"/>
        <pt x="456" y="391" on="0"/>
        <pt x="415" y="262" on="0"/>
        <pt x="415" y="206" on="1"/>
      </contour>
    </TTGlyph>
    <TTGlyph name="agrave" xMin="32" yMin="-12" xMax="492" yMax="693">
      <contour>
        <pt x="328" y="414" on="1"/>
        <pt x="330" y="416" on="0"/>
        <pt x="339" y="440" on="1"/>
        <pt x="386" y="440" on="0"/>
        <pt x="465" y="412" on="1"/>
        <pt x="440" y="329" on="0"/>
        <pt x="410" y="148" on="0"/>
        <pt x="410" y="71" on="0"/>
        <pt x="418" y="71" on="1"/>
        <pt x="424" y="71" on="0"/>
        <pt x="462" y="90" on="1"/>
        <pt x="474" y="96" on="1"/>
        <pt x="492" y="61" on="1"/>
        <pt x="483" y="53" on="0"/>
        <pt x="454" y="29" on="0"/>
        <pt x="374" y="-12" on="0"/>
        <pt x="342" y="-12" on="1"/>
        <pt x="280" y="-12" on="0"/>
        <pt x="270" y="44" on="1"/>
        <pt x="206" y="-12" on="0"/>
        <pt x="103" y="-12" on="0"/>
        <pt x="32" y="68" on="0"/>
        <pt x="32" y="154" on="1"/>
        <pt x="32" y="288" on="0"/>
        <pt x="142" y="443" on="0"/>
        <pt x="220" y="443" on="1"/>
        <pt x="276" y="443" on="0"/>
      </contour>
      <contour>
        <pt x="214" y="73" on="1"/>
        <pt x="238" y="73" on="0"/>
        <pt x="268" y="92" on="1"/>
        <pt x="275" y="233" on="0"/>
        <pt x="315" y="371" on="1"/>
        <pt x="285" y="384" on="0"/>
        <pt x="264" y="384" on="1"/>
        <pt x="228" y="384" on="0"/>
        <pt x="177" y="243" on="0"/>
        <pt x="177" y="73" on="0"/>
      </contour>
      <contour>
        <pt x="203" y="693" on="1"/>
        <pt x="230" y="693" on="0"/>
        <pt x="291" y="651" on="1"/>
        <pt x="307" y="640" on="0"/>
        <pt x="332" y="623" on="0"/>
        <pt x="370" y="595" on="0"/>
        <pt x="382" y="586" on="1"/>
        <pt x="412" y="561" on="0"/>
        <pt x="446" y="537" on="1"/>
        <pt x="424" y="499" on="1"/>
        <pt x="301" y="546" on="0"/>
        <pt x="132" y="600" on="1"/>
        <pt x="170" y="693" on="0"/>
      </contour>
    </TTGlyph>
    <TTGlyph name="ampersand" xMin="57" yMin="-11" xMax="732" yMax="710">
      <contour>
        <pt x="655" y="82" on="1"/>
        <pt x="667" y="82" on="0"/>
        <pt x="697" y="100" on="1"/>
        <pt x="707" y="106" on="1"/>
        <pt x="732" y="69" on="1"/>
        <pt x="651" y="-9" on="0"/>
        <pt x="501" y="-9" on="0"/>
        <pt x="447" y="65" on="1"/>
        <pt x="358" y="-11" on="0"/>
        <pt x="247" y="-11" on="1"/>
        <pt x="160" y="-11" on="0"/>
        <pt x="57" y="78" on="0"/>
        <pt x="57" y="156" on="1"/>
        <pt x="57" y="299" on="0"/>
        <pt x="244" y="399" on="1"/>
        <pt x="201" y="482" on="0"/>
        <pt x="201" y="541" on="1"/>
        <pt x="201" y="621" on="0"/>
        <pt x="317" y="710" on="0"/>
        <pt x="475" y="710" on="0"/>
        <pt x="550" y="643" on="0"/>
        <pt x="550" y="598" on="1"/>
        <pt x="550" y="514" on="0"/>
        <pt x="402" y="412" on="1"/>
        <pt x="448" y="324" on="0"/>
        <pt x="506" y="237" on="1"/>
        <pt x="529" y="268" on="0"/>
        <pt x="584" y="367" on="0"/>
        <pt x="589" y="375" on="1"/>
        <pt x="644" y="367" on="0"/>
        <pt x="659" y="341" on="1"/>
        <pt x="648" y="327" on="0"/>
        <pt x="573" y="213" on="0"/>
        <pt x="549" y="183" on="1"/>
        <pt x="628" y="82" on="0"/>
      </contour>
      <contour>
        <pt x="199" y="180" on="1"/>
        <pt x="199" y="125" on="0"/>
        <pt x="249" y="68" on="0"/>
        <pt x="321" y="68" on="0"/>
        <pt x="375" y="94" on="0"/>
        <pt x="388" y="107" on="1"/>
        <pt x="401" y="120" on="1"/>
        <pt x="310" y="264" on="0"/>
        <pt x="273" y="341" on="1"/>
        <pt x="199" y="282" on="0"/>
      </contour>
      <contour>
        <pt x="449" y="542" on="0"/>
        <pt x="463" y="574" on="0"/>
        <pt x="463" y="613" on="0"/>
        <pt x="430" y="643" on="0"/>
        <pt x="370" y="643" on="0"/>
        <pt x="323" y="610" on="0"/>
        <pt x="323" y="535" on="0"/>
        <pt x="366" y="469" on="1"/>
        <pt x="380" y="479" on="0"/>
        <pt x="404" y="495" on="0"/>
        <pt x="430" y="519" on="0"/>
      </contour>
    </TTGlyph>
    <TTGlyph name="aring" xMin="32" yMin="-12" xMax="492" yMax="732">
      <contour>
        <pt x="328" y="414" on="1"/>
        <pt x="330" y="416" on="0"/>
        <pt x="339" y="440" on="1"/>
        <pt x="386" y="440" on="0"/>
        <pt x="465" y="412" on="1"/>
        <pt x="440" y="329" on="0"/>
        <pt x="410" y="148" on="0"/>
        <pt x="410" y="71" on="0"/>
        <pt x="418" y="71" on="1"/>
        <pt x="424" y="71" on="0"/>
        <pt x="462" y="90" on="1"/>
        <pt x="474" y="96" on="1"/>
        <pt x="492" y="61" on="1"/>
        <pt x="483" y="53" on="0"/>
        <pt x="454" y="29" on="0"/>
        <pt x="374" y="-12" on="0"/>
        <pt x="342" y="-12" on="1"/>
        <pt x="280" y="-12" on="0"/>
        <pt x="270" y="44" on="1"/>
        <pt x="206" y="-12" on="0"/>
        <pt x="103" y="-12" on="0"/>
        <pt x="32" y="68" on="0"/>
        <pt x="32" y="154" on="1"/>
        <pt x="32" y="288" on="0"/>
        <pt x="142" y="443" on="0"/>
        <pt x="220" y="443" on="1"/>
        <pt x="276" y="443" on="0"/>
      </contour>
      <contour>
        <pt x="214" y="73" on="1"/>
        <pt x="238" y="73" on="0"/>
        <pt x="268" y="92" on="1"/>
        <pt x="275" y="233" on="0"/>
        <pt x="315" y="371" on="1"/>
        <pt x="285" y="384" on="0"/>
        <pt x="264" y="384" on="1"/>
        <pt x="228" y="384" on="0"/>
        <pt x="177" y="243" on="0"/>
        <pt x="177" y="73" on="0"/>
      </contour>
      <contour>
        <pt x="203" y="581" on="0"/>
        <pt x="203" y="673" on="0"/>
        <pt x="260" y="732" on="0"/>
        <pt x="366" y="732" on="0"/>
        <pt x="423" y="673" on="0"/>
        <pt x="423" y="581" on="0"/>
        <pt x="366" y="521" on="0"/>
        <pt x="260" y="521" on="0"/>
      </contour>
      <contour>
        <pt x="261" y="649" on="0"/>
        <pt x="261" y="605" on="0"/>
        <pt x="288" y="578" on="0"/>
        <pt x="337" y="578" on="0"/>
        <pt x="362" y="605" on="0"/>
        <pt x="362" y="649" on="0"/>
        <pt x="337" y="676" on="0"/>
        <pt x="288" y="676" on="0"/>
      </contour>
    </TTGlyph>
    <TTGlyph name="asciicircum" xMin="21" yMin="284" xMax="437" yMax="674">
      <contour>
        <pt x="21" y="287" on="1"/>
        <pt x="193" y="674" on="1"/>
        <pt x="268" y="674" on="1"/>
        <pt x="291" y="621" on="0"/>
        <pt x="322" y="548" on="1"/>
        <pt x="388" y="393" on="0"/>
        <pt x="437" y="287" on="1"/>
        <pt x="411" y="284" on="0"/>
        <pt x="379" y="284" on="0"/>
        <pt x="339" y="288" on="1"/>
        <pt x="268" y="467" on="0"/>
        <pt x="230" y="556" on="1"/>
        <pt x="191" y="466" on="0"/>
        <pt x="118" y="288" on="1"/>
        <pt x="78" y="284" on="0"/>
        <pt x="46" y="284" on="0"/>
      </contour>
    </TTGlyph>
    <TTGlyph name="asciitilde" xMin="47" yMin="226" xMax="505" yMax="369">
      <contour>
        <pt x="376" y="235" on="1"/>
        <pt x="350" y="235" on="0"/>
        <pt x="200" y="261" on="0"/>
        <pt x="133" y="261" on="0"/>
        <pt x="124" y="260" on="1"/>
        <pt x="97" y="255" on="0"/>
        <pt x="78" y="226" on="1"/>
        <pt x="47" y="233" on="1"/>
        <pt x="55" y="288" on="0"/>
        <pt x="120" y="361" on="0"/>
        <pt x="213" y="361" on="0"/>
        <pt x="367" y="337" on="0"/>
        <pt x="428" y="337" on="0"/>
        <pt x="460" y="349" on="0"/>
        <pt x="474" y="369" on="1"/>
        <pt x="505" y="363" on="1"/>
        <pt x="495" y="305" on="0"/>
        <pt x="439" y="235" on="0"/>
      </contour>
    </TTGlyph>
    <TTGlyph name="asterisk" xMin="38" yMin="363" xMax="403" yMax="736">
      <contour>
        <pt x="266" y="529" on="1"/>
        <pt x="297" y="504" on="0"/>
        <pt x="340" y="504" on="0"/>
        <pt x="364" y="512" on="1"/>
        <pt x="376" y="505" on="0"/>
        <pt x="394" y="466" on="0"/>
        <pt x="394" y="439" on="0"/>
        <pt x="393" y="435" on="1"/>
        <pt x="367" y="406" on="0"/>
        <pt x="330" y="406" on="1"/>
        <pt x="322" y="406" on="0"/>
        <pt x="300" y="416" on="0"/>
        <pt x="243" y="480" on="0"/>
        <pt x="226" y="512" on="1"/>
        <pt x="209" y="481" on="0"/>
        <pt x="209" y="466" on="1"/>
        <pt x="209" y="442" on="0"/>
        <pt x="222" y="415" on="1"/>
        <pt x="227" y="406" on="1"/>
        <pt x="218" y="391" on="0"/>
        <pt x="175" y="363" on="0"/>
        <pt x="156" y="363" on="1"/>
        <pt x="139" y="373" on="0"/>
        <pt x="115" y="411" on="0"/>
        <pt x="115" y="450" on="0"/>
        <pt x="169" y="515" on="0"/>
        <pt x="201" y="541" on="1"/>
        <pt x="186" y="544" on="0"/>
        <pt x="154" y="544" on="0"/>
        <pt x="138" y="540" on="0"/>
        <pt x="113" y="524" on="0"/>
        <pt x="106" y="516" on="1"/>
        <pt x="99" y="509" on="1"/>
        <pt x="82" y="512" on="0"/>
        <pt x="40" y="544" on="0"/>
        <pt x="38" y="563" on="1"/>
        <pt x="42" y="584" on="0"/>
        <pt x="79" y="623" on="0"/>
        <pt x="112" y="623" on="0"/>
        <pt x="183" y="595" on="0"/>
        <pt x="213" y="576" on="1"/>
        <pt x="211" y="614" on="0"/>
        <pt x="206" y="624" on="1"/>
        <pt x="197" y="641" on="0"/>
        <pt x="170" y="658" on="1"/>
        <pt x="161" y="663" on="1"/>
        <pt x="161" y="687" on="0"/>
        <pt x="182" y="730" on="0"/>
        <pt x="197" y="736" on="1"/>
        <pt x="219" y="736" on="0"/>
        <pt x="264" y="712" on="0"/>
        <pt x="270" y="696" on="1"/>
        <pt x="272" y="688" on="0"/>
        <pt x="272" y="677" on="1"/>
        <pt x="272" y="619" on="0"/>
        <pt x="254" y="568" on="1"/>
        <pt x="286" y="584" on="0"/>
        <pt x="294" y="594" on="1"/>
        <pt x="308" y="611" on="0"/>
        <pt x="312" y="642" on="1"/>
        <pt x="314" y="652" on="1"/>
        <pt x="332" y="658" on="0"/>
        <pt x="383" y="658" on="0"/>
        <pt x="395" y="646" on="1"/>
        <pt x="403" y="630" on="0"/>
        <pt x="403" y="580" on="0"/>
        <pt x="377" y="554" on="0"/>
        <pt x="302" y="532" on="0"/>
      </contour>
    </TTGlyph>
    <TTGlyph name="at" xMin="48" yMin="-12" xMax="759" yMax="710">
      <contour>
        <pt x="362" y="-12" on="1"/>
        <pt x="208" y="-12" on="0"/>
        <pt x="48" y="169" on="0"/>
        <pt x="48" y="305" on="1"/>
        <pt x="48" y="385" on="0"/>
        <pt x="105" y="531" on="0"/>
        <pt x="207" y="643" on="0"/>
        <pt x="361" y="710" on="0"/>
        <pt x="451" y="710" on="1"/>
        <pt x="595" y="710" on="0"/>
        <pt x="759" y="556" on="0"/>
        <pt x="759" y="433" on="1"/>
        <pt x="759" y="365" on="0"/>
        <pt x="707" y="252" on="0"/>
        <pt x="631" y="187" on="0"/>
        <pt x="559" y="152" on="0"/>
        <pt x="534" y="152" on="1"/>
        <pt x="491" y="152" on="0"/>
        <pt x="477" y="206" on="1"/>
        <pt x="412" y="152" on="0"/>
        <pt x="309" y="152" on="0"/>
        <pt x="246" y="222" on="0"/>
        <pt x="246" y="420" on="0"/>
        <pt x="350" y="557" on="0"/>
        <pt x="432" y="557" on="1"/>
        <pt x="463" y="557" on="0"/>
        <pt x="512" y="543" on="0"/>
        <pt x="563" y="527" on="0"/>
        <pt x="582" y="522" on="1"/>
        <pt x="546" y="381" on="0"/>
        <pt x="546" y="253" on="1"/>
        <pt x="546" y="235" on="0"/>
        <pt x="551" y="221" on="0"/>
        <pt x="560" y="221" on="1"/>
        <pt x="594" y="221" on="0"/>
        <pt x="673" y="346" on="0"/>
        <pt x="673" y="522" on="0"/>
        <pt x="569" y="647" on="0"/>
        <pt x="452" y="647" on="1"/>
        <pt x="313" y="647" on="0"/>
        <pt x="146" y="452" on="0"/>
        <pt x="146" y="209" on="0"/>
        <pt x="260" y="56" on="0"/>
        <pt x="373" y="56" on="1"/>
        <pt x="430" y="56" on="0"/>
        <pt x="475" y="78" on="1"/>
        <pt x="489" y="56" on="0"/>
        <pt x="495" y="24" on="1"/>
        <pt x="497" y="14" on="1"/>
        <pt x="430" y="-12" on="0"/>
      </contour>
      <contour>
        <pt x="390" y="225" on="1"/>
        <pt x="422" y="225" on="0"/>
        <pt x="456" y="261" on="1"/>
        <pt x="466" y="406" on="0"/>
        <pt x="484" y="483" on="1"/>
        <pt x="458" y="496" on="0"/>
        <pt x="436" y="496" on="1"/>
        <pt x="394" y="496" on="0"/>
        <pt x="344" y="396" on="0"/>
        <pt x="344" y="225" on="0"/>
      </contour>
    </TTGlyph>
    <TTGlyph name="atilde" xMin="32" yMin="-12" xMax="502" yMax="674">
      <contour>
        <pt x="328" y="414" on="1"/>
        <pt x="330" y="416" on="0"/>
        <pt x="339" y="440" on="1"/>
        <pt x="386" y="440" on="0"/>
        <pt x="465" y="412" on="1"/>
        <pt x="440" y="329" on="0"/>
        <pt x="410" y="148" on="0"/>
        <pt x="410" y="71" on="0"/>
        <pt x="418" y="71" on="1"/>
        <pt x="424" y="71" on="0"/>
        <pt x="462" y="90" on="1"/>
        <pt x="474" y="96" on="1"/>
        <pt x="492" y="61" on="1"/>
        <pt x="483" y="53" on="0"/>
        <pt x="454" y="29" on="0"/>
        <pt x="374" y="-12" on="0"/>
        <pt x="342" y="-12" on="1"/>
        <pt x="280" y="-12" on="0"/>
        <pt x="270" y="44" on="1"/>
        <pt x="206" y="-12" on="0"/>
        <pt x="103" y="-12" on="0"/>
        <pt x="32" y="68" on="0"/>
        <pt x="32" y="154" on="1"/>
        <pt x="32" y="288" on="0"/>
        <pt x="142" y="443" on="0"/>
        <pt x="220" y="443" on="1"/>
        <pt x="276" y="443" on="0"/>
      </contour>
      <contour>
        <pt x="214" y="73" on="1"/>
        <pt x="238" y="73" on="0"/>
        <pt x="268" y="92" on="1"/>
        <pt x="275" y="233" on="0"/>
        <pt x="315" y="371" on="1"/>
        <pt x="285" y="384" on="0"/>
        <pt x="264" y="384" on="1"/>
        <pt x="228" y="384" on="0"/>
        <pt x="177" y="243" on="0"/>
        <pt x="177" y="73" on="0"/>
      </contour>
      <contour>
        <pt x="115" y="531" on="1"/>
        <pt x="129" y="673" on="0"/>
        <pt x="216" y="673" on="1"/>
        <pt x="250" y="673" on="0"/>
        <pt x="381" y="638" on="0"/>
        <pt x="435" y="638" on="0"/>
        <pt x="457" y="650" on="0"/>
        <pt x="471" y="674" on="1"/>
        <pt x="502" y="668" on="1"/>
        <pt x="498" y="622" on="0"/>
        <pt x="486" y="591" on="1"/>
        <pt x="463" y="532" on="0"/>
        <pt x="400" y="532" on="1"/>
        <pt x="377" y="532" on="0"/>
        <pt x="252" y="567" on="0"/>
        <pt x="191" y="567" on="0"/>
        <pt x="162" y="550" on="0"/>
        <pt x="147" y="524" on="1"/>
      </contour>
    </TTGlyph>
    <TTGlyph name="b" xMin="28" yMin="-12" xMax="464" yMax="734">
      <contour>
        <pt x="289" y="698" on="1"/>
        <pt x="289" y="622" on="0"/>
        <pt x="238" y="400" on="1"/>
        <pt x="298" y="443" on="0"/>
        <pt x="395" y="443" on="0"/>
        <pt x="464" y="362" on="0"/>
        <pt x="464" y="279" on="1"/>
        <pt x="464" y="140" on="0"/>
        <pt x="355" y="-12" on="0"/>
        <pt x="277" y="-12" on="1"/>
        <pt x="248" y="-12" on="0"/>
        <pt x="189" y="2" on="0"/>
        <pt x="174" y="10" on="1"/>
        <pt x="159" y="17" on="1"/>
        <pt x="95" y="-5" on="0"/>
        <pt x="34" y="-5" on="1"/>
        <pt x="28" y="0" on="0"/>
        <pt x="28" y="87" on="0"/>
        <pt x="140" y="576" on="0"/>
        <pt x="140" y="666" on="1"/>
        <pt x="140" y="682" on="0"/>
        <pt x="135" y="707" on="1"/>
        <pt x="213" y="734" on="0"/>
        <pt x="284" y="734" on="1"/>
        <pt x="289" y="720" on="0"/>
      </contour>
      <contour>
        <pt x="280" y="358" on="1"/>
        <pt x="261" y="358" on="0"/>
        <pt x="223" y="340" on="1"/>
        <pt x="177" y="146" on="0"/>
        <pt x="173" y="62" on="1"/>
        <pt x="203" y="49" on="0"/>
        <pt x="230" y="49" on="1"/>
        <pt x="268" y="49" on="0"/>
        <pt x="319" y="189" on="0"/>
        <pt x="319" y="358" on="0"/>
      </contour>
    </TTGlyph>
    <TTGlyph name="backslash" xMin="12" yMin="-110" xMax="398" yMax="748">
      <contour>
        <pt x="12" y="715" on="1"/>
        <pt x="49" y="741" on="0"/>
        <pt x="94" y="748" on="1"/>
        <pt x="225" y="408" on="0"/>
        <pt x="398" y="-72" on="1"/>
        <pt x="360" y="-110" on="0"/>
        <pt x="321" y="-110" on="1"/>
        <pt x="177" y="296" on="0"/>
      </contour>
    </TTGlyph>
    <TTGlyph name="bar" xMin="112" yMin="-147" xMax="199" yMax="794">
      <contour>
        <pt x="199" y="794" on="1"/>
        <pt x="199" y="-144" on="1"/>
        <pt x="176" y="-147" on="0"/>
        <pt x="112" y="-147" on="1"/>
        <pt x="112" y="791" on="1"/>
        <pt x="147" y="794" on="0"/>
      </contour>
    </TTGlyph>
    <TTGlyph name="braceleft" xMin="81" yMin="-224" xMax="446" yMax="735">
      <contour>
        <pt x="228" y="390" on="1"/>
        <pt x="225" y="612" on="1"/>
        <pt x="225" y="657" on="0"/>
        <pt x="282" y="735" on="0"/>
        <pt x="384" y="735" on="0"/>
        <pt x="446" y="709" on="1"/>
        <pt x="441" y="668" on="1"/>
        <pt x="376" y="668" on="0"/>
        <pt x="350" y="640" on="0"/>
        <pt x="332" y="519" on="0"/>
        <pt x="316" y="336" on="0"/>
        <pt x="313" y="316" on="1"/>
        <pt x="307" y="273" on="0"/>
        <pt x="260" y="253" on="1"/>
        <pt x="296" y="231" on="0"/>
        <pt x="296" y="158" on="0"/>
        <pt x="254" y="-84" on="0"/>
        <pt x="254" y="-134" on="0"/>
        <pt x="257" y="-141" on="1"/>
        <pt x="262" y="-155" on="0"/>
        <pt x="302" y="-173" on="0"/>
        <pt x="320" y="-176" on="1"/>
        <pt x="338" y="-178" on="1"/>
        <pt x="332" y="-219" on="1"/>
        <pt x="303" y="-224" on="0"/>
        <pt x="265" y="-224" on="1"/>
        <pt x="133" y="-224" on="0"/>
        <pt x="133" y="-112" on="1"/>
        <pt x="133" y="-76" on="0"/>
        <pt x="206" y="172" on="0"/>
        <pt x="214" y="215" on="1"/>
        <pt x="209" y="221" on="0"/>
        <pt x="142" y="232" on="0"/>
        <pt x="112" y="234" on="1"/>
        <pt x="81" y="236" on="1"/>
        <pt x="91" y="309" on="1"/>
        <pt x="179" y="297" on="0"/>
        <pt x="213" y="297" on="1"/>
        <pt x="224" y="298" on="1"/>
        <pt x="228" y="335" on="0"/>
      </contour>
    </TTGlyph>
    <TTGlyph name="braceright" xMin="31" yMin="-224" xMax="396" yMax="735">
      <contour>
        <pt x="249" y="121" on="1"/>
        <pt x="252" y="-101" on="1"/>
        <pt x="252" y="-146" on="0"/>
        <pt x="195" y="-224" on="0"/>
        <pt x="93" y="-224" on="0"/>
        <pt x="31" y="-198" on="1"/>
        <pt x="36" y="-157" on="1"/>
        <pt x="101" y="-157" on="0"/>
        <pt x="127" y="-129" on="0"/>
        <pt x="145" y="-8" on="0"/>
        <pt x="161" y="175" on="0"/>
        <pt x="164" y="195" on="1"/>
        <pt x="170" y="238" on="0"/>
        <pt x="217" y="258" on="1"/>
        <pt x="181" y="280" on="0"/>
        <pt x="181" y="353" on="0"/>
        <pt x="223" y="595" on="0"/>
        <pt x="223" y="644" on="0"/>
        <pt x="215" y="666" on="0"/>
        <pt x="175" y="684" on="0"/>
        <pt x="157" y="686" on="1"/>
        <pt x="139" y="689" on="1"/>
        <pt x="145" y="730" on="1"/>
        <pt x="174" y="735" on="0"/>
        <pt x="212" y="735" on="1"/>
        <pt x="344" y="735" on="0"/>
        <pt x="344" y="623" on="1"/>
        <pt x="344" y="587" on="0"/>
        <pt x="271" y="339" on="0"/>
        <pt x="263" y="296" on="1"/>
        <pt x="268" y="290" on="0"/>
        <pt x="335" y="279" on="0"/>
        <pt x="366" y="277" on="1"/>
        <pt x="396" y="275" on="1"/>
        <pt x="386" y="202" on="1"/>
        <pt x="298" y="214" on="0"/>
        <pt x="264" y="214" on="1"/>
        <pt x="253" y="213" on="1"/>
        <pt x="249" y="176" on="0"/>
      </contour>
    </TTGlyph>
    <TTGlyph name="bracketleft" xMin="66" yMin="-224" xMax="363" yMax="734">
      <contour>
        <pt x="178" y="-147" on="1"/>
        <pt x="178" y="-156" on="0"/>
        <pt x="238" y="-178" on="1"/>
        <pt x="258" y="-186" on="1"/>
        <pt x="252" y="-223" on="1"/>
        <pt x="245" y="-224" on="0"/>
        <pt x="238" y="-224" on="1"/>
        <pt x="169" y="-224" on="0"/>
        <pt x="82" y="-210" on="1"/>
        <pt x="68" y="-188" on="0"/>
        <pt x="66" y="-170" on="1"/>
        <pt x="123" y="417" on="0"/>
        <pt x="161" y="694" on="1"/>
        <pt x="162" y="702" on="0"/>
        <pt x="182" y="734" on="0"/>
        <pt x="193" y="734" on="1"/>
        <pt x="261" y="734" on="0"/>
        <pt x="363" y="717" on="1"/>
        <pt x="361" y="680" on="1"/>
        <pt x="270" y="667" on="0"/>
        <pt x="267" y="652" on="1"/>
        <pt x="262" y="629" on="0"/>
        <pt x="224" y="353" on="0"/>
        <pt x="211" y="228" on="0"/>
        <pt x="194" y="82" on="0"/>
        <pt x="190" y="40" on="1"/>
        <pt x="178" y="-84" on="0"/>
      </contour>
    </TTGlyph>
    <TTGlyph name="bracketright" xMin="18" yMin="-224" xMax="315" yMax="734">
      <contour>
        <pt x="203" y="657" on="1"/>
        <pt x="203" y="666" on="0"/>
        <pt x="143" y="688" on="1"/>
        <pt x="123" y="696" on="1"/>
        <pt x="129" y="733" on="1"/>
        <pt x="136" y="734" on="0"/>
        <pt x="143" y="734" on="1"/>
        <pt x="212" y="734" on="0"/>
        <pt x="299" y="720" on="1"/>
        <pt x="313" y="698" on="0"/>
        <pt x="315" y="680" on="1"/>
        <pt x="258" y="93" on="0"/>
        <pt x="220" y="-184" on="1"/>
        <pt x="219" y="-192" on="0"/>
        <pt x="199" y="-224" on="0"/>
        <pt x="188" y="-224" on="1"/>
        <pt x="120" y="-224" on="0"/>
        <pt x="18" y="-207" on="1"/>
        <pt x="20" y="-170" on="1"/>
        <pt x="111" y="-157" on="0"/>
        <pt x="114" y="-142" on="1"/>
        <pt x="119" y="-119" on="0"/>
        <pt x="157" y="157" on="0"/>
        <pt x="170" y="282" on="0"/>
        <pt x="187" y="428" on="0"/>
        <pt x="191" y="470" on="1"/>
        <pt x="203" y="594" on="0"/>
      </contour>
    </TTGlyph>
    <TTGlyph name="brokenbar" xMin="112" yMin="-147" xMax="199" yMax="794">
      <contour>
        <pt x="112" y="-147" on="1"/>
        <pt x="112" y="289" on="1"/>
        <pt x="199" y="289" on="1"/>
        <pt x="199" y="-144" on="1"/>
        <pt x="176" y="-147" on="0"/>
      </contour>
      <contour>
        <pt x="199" y="403" on="1"/>
        <pt x="112" y="403" on="1"/>
        <pt x="112" y="791" on="1"/>
        <pt x="114" y="791" on="0"/>
        <pt x="199" y="794" on="1"/>
      </contour>
    </TTGlyph>
    <TTGlyph name="bullet" xMin="100" yMin="198" xMax="352" yMax="450">
      <contour>
        <pt x="166" y="198" on="0"/>
        <pt x="100" y="267" on="0"/>
        <pt x="100" y="376" on="0"/>
        <pt x="176" y="450" on="0"/>
        <pt x="287" y="450" on="0"/>
        <pt x="352" y="383" on="0"/>
        <pt x="352" y="277" on="0"/>
        <pt x="275" y="198" on="0"/>
      </contour>
    </TTGlyph>
    <TTGlyph name="c" xMin="26" yMin="-12" xMax="406" yMax="443">
      <contour>
        <pt x="260" y="393" on="1"/>
        <pt x="220" y="393" on="0"/>
        <pt x="172" y="260" on="0"/>
        <pt x="172" y="184" on="1"/>
        <pt x="172" y="64" on="0"/>
        <pt x="246" y="64" on="1"/>
        <pt x="270" y="64" on="0"/>
        <pt x="324" y="87" on="0"/>
        <pt x="340" y="98" on="1"/>
        <pt x="355" y="110" on="1"/>
        <pt x="378" y="79" on="1"/>
        <pt x="370" y="68" on="0"/>
        <pt x="322" y="32" on="0"/>
        <pt x="280" y="8" on="0"/>
        <pt x="214" y="-12" on="0"/>
        <pt x="182" y="-12" on="1"/>
        <pt x="104" y="-12" on="0"/>
        <pt x="26" y="90" on="0"/>
        <pt x="26" y="176" on="1"/>
        <pt x="26" y="295" on="0"/>
        <pt x="157" y="443" on="0"/>
        <pt x="260" y="443" on="1"/>
        <pt x="327" y="443" on="0"/>
        <pt x="406" y="382" on="0"/>
        <pt x="406" y="293" on="0"/>
        <pt x="378" y="261" on="1"/>
        <pt x="353" y="261" on="0"/>
        <pt x="287" y="283" on="0"/>
        <pt x="270" y="299" on="1"/>
        <pt x="285" y="387" on="1"/>
        <pt x="276" y="393" on="0"/>
      </contour>
    </TTGlyph>
    <TTGlyph name="caron" xMin="87" yMin="505" xMax="466" yMax="707">
      <contour>
        <pt x="217" y="505" on="1"/>
        <pt x="180" y="505" on="0"/>
        <pt x="87" y="671" on="1"/>
        <pt x="121" y="703" on="1"/>
        <pt x="206" y="636" on="0"/>
        <pt x="250" y="620" on="1"/>
        <pt x="331" y="642" on="0"/>
        <pt x="439" y="707" on="1"/>
        <pt x="466" y="670" on="1"/>
        <pt x="413" y="619" on="0"/>
        <pt x="244" y="505" on="0"/>
      </contour>
    </TTGlyph>
    <TTGlyph name="caron.cap" xMin="89" yMin="745" xMax="488" yMax="925">
      <contour>
        <pt x="437" y="845" on="0"/>
        <pt x="257" y="745" on="0"/>
        <pt x="204" y="745" on="0"/>
        <pt x="116" y="848" on="0"/>
        <pt x="89" y="889" on="1"/>
        <pt x="123" y="921" on="1"/>
        <pt x="230" y="867" on="0"/>
        <pt x="262" y="860" on="1"/>
        <pt x="313" y="869" on="0"/>
        <pt x="452" y="922" on="0"/>
        <pt x="461" y="925" on="1"/>
        <pt x="488" y="888" on="1"/>
      </contour>
    </TTGlyph>
    <TTGlyph name="ccedilla" xMin="26" yMin="-190" xMax="406" yMax="443">
      <contour>
        <pt x="260" y="393" on="1"/>
        <pt x="220" y="393" on="0"/>
        <pt x="172" y="260" on="0"/>
        <pt x="172" y="184" on="1"/>
        <pt x="172" y="64" on="0"/>
        <pt x="246" y="64" on="1"/>
        <pt x="270" y="64" on="0"/>
        <pt x="324" y="87" on="0"/>
        <pt x="340" y="98" on="1"/>
        <pt x="355" y="110" on="1"/>
        <pt x="378" y="79" on="1"/>
        <pt x="371" y="72" on="0"/>
        <pt x="347" y="49" on="0"/>
        <pt x="272" y="3" on="0"/>
        <pt x="234" y="-6" on="1"/>
        <pt x="209" y="-24" on="0"/>
        <pt x="172" y="-76" on="0"/>
        <pt x="172" y="-125" on="0"/>
        <pt x="220" y="-125" on="0"/>
        <pt x="253" y="-106" on="1"/>
        <pt x="264" y="-99" on="1"/>
        <pt x="282" y="-127" on="1"/>
        <pt x="275" y="-134" on="0"/>
        <pt x="251" y="-155" on="0"/>
        <pt x="179" y="-190" on="0"/>
        <pt x="117" y="-190" on="0"/>
        <pt x="79" y="-153" on="0"/>
        <pt x="79" y="-94" on="0"/>
        <pt x="129" y="-33" on="0"/>
        <pt x="161" y="-11" on="1"/>
        <pt x="93" y="-4" on="0"/>
        <pt x="26" y="96" on="0"/>
        <pt x="26" y="176" on="1"/>
        <pt x="26" y="295" on="0"/>
        <pt x="157" y="443" on="0"/>
        <pt x="260" y="443" on="1"/>
        <pt x="327" y="443" on="0"/>
        <pt x="406" y="382" on="0"/>
        <pt x="406" y="293" on="0"/>
        <pt x="378" y="261" on="1"/>
        <pt x="353" y="261" on="0"/>
        <pt x="287" y="283" on="0"/>
        <pt x="270" y="299" on="1"/>
        <pt x="285" y="387" on="1"/>
        <pt x="276" y="393" on="0"/>
      </contour>
    </TTGlyph>
    <TTGlyph name="cedilla" xMin="133" yMin="-194" xMax="336" yMax="0">
      <contour>
        <pt x="226" y="-94" on="1"/>
        <pt x="226" y="-118" on="0"/>
        <pt x="274" y="-118" on="0"/>
        <pt x="307" y="-102" on="1"/>
        <pt x="318" y="-96" on="1"/>
        <pt x="336" y="-130" on="1"/>
        <pt x="329" y="-137" on="0"/>
        <pt x="305" y="-158" on="0"/>
        <pt x="233" y="-194" on="0"/>
        <pt x="171" y="-194" on="0"/>
        <pt x="133" y="-157" on="0"/>
        <pt x="133" y="-96" on="0"/>
        <pt x="192" y="-20" on="0"/>
        <pt x="223" y="0" on="1"/>
        <pt x="287" y="-1" on="1"/>
        <pt x="261" y="-21" on="0"/>
        <pt x="226" y="-74" on="0"/>
      </contour>
    </TTGlyph>
    <TTGlyph name="cent" xMin="18" yMin="-94" xMax="398" yMax="561">
      <contour>
        <pt x="252" y="393" on="1"/>
        <pt x="218" y="393" on="0"/>
        <pt x="164" y="271" on="0"/>
        <pt x="164" y="214" on="1"/>
        <pt x="164" y="94" on="0"/>
        <pt x="238" y="94" on="1"/>
        <pt x="262" y="94" on="0"/>
        <pt x="316" y="117" on="0"/>
        <pt x="332" y="128" on="1"/>
        <pt x="347" y="140" on="1"/>
        <pt x="370" y="109" on="1"/>
        <pt x="362" y="101" on="0"/>
        <pt x="335" y="75" on="0"/>
        <pt x="249" y="26" on="0"/>
        <pt x="205" y="20" on="1"/>
        <pt x="194" y="-54" on="0"/>
        <pt x="194" y="-94" on="1"/>
        <pt x="148" y="-94" on="0"/>
        <pt x="128" y="-84" on="1"/>
        <pt x="147" y="20" on="1"/>
        <pt x="82" y="29" on="0"/>
        <pt x="18" y="128" on="0"/>
        <pt x="18" y="300" on="0"/>
        <pt x="136" y="431" on="0"/>
        <pt x="223" y="441" on="1"/>
        <pt x="235" y="541" on="0"/>
        <pt x="235" y="561" on="1"/>
        <pt x="275" y="561" on="0"/>
        <pt x="301" y="551" on="1"/>
        <pt x="280" y="441" on="1"/>
        <pt x="335" y="435" on="0"/>
        <pt x="398" y="376" on="0"/>
        <pt x="398" y="293" on="0"/>
        <pt x="370" y="261" on="1"/>
        <pt x="345" y="261" on="0"/>
        <pt x="279" y="283" on="0"/>
        <pt x="262" y="299" on="1"/>
        <pt x="277" y="387" on="1"/>
        <pt x="268" y="393" on="0"/>
      </contour>
    </TTGlyph>
    <TTGlyph name="circumflex" xMin="92" yMin="503" xMax="468" yMax="705">
      <contour>
        <pt x="341" y="705" on="1"/>
        <pt x="374" y="705" on="0"/>
        <pt x="468" y="536" on="1"/>
        <pt x="437" y="507" on="1"/>
        <pt x="351" y="574" on="0"/>
        <pt x="308" y="590" on="1"/>
        <pt x="227" y="568" on="0"/>
        <pt x="119" y="503" on="1"/>
        <pt x="92" y="540" on="1"/>
        <pt x="145" y="591" on="0"/>
        <pt x="314" y="705" on="0"/>
      </contour>
    </TTGlyph>
    <TTGlyph name="circumflex.cap" xMin="89" yMin="739" xMax="488" yMax="919">
      <contour>
        <pt x="140" y="819" on="0"/>
        <pt x="320" y="919" on="0"/>
        <pt x="373" y="919" on="0"/>
        <pt x="461" y="816" on="0"/>
        <pt x="488" y="775" on="1"/>
        <pt x="454" y="743" on="1"/>
        <pt x="347" y="797" on="0"/>
        <pt x="315" y="804" on="1"/>
        <pt x="264" y="795" on="0"/>
        <pt x="125" y="742" on="0"/>
        <pt x="116" y="739" on="1"/>
        <pt x="89" y="776" on="1"/>
      </contour>
    </TTGlyph>
    <TTGlyph name="colon" xMin="65" yMin="-12" xMax="263" yMax="442">
      <contour>
        <pt x="103" y="-12" on="0"/>
        <pt x="65" y="30" on="0"/>
        <pt x="65" y="100" on="0"/>
        <pt x="117" y="151" on="0"/>
        <pt x="188" y="151" on="0"/>
        <pt x="226" y="110" on="0"/>
        <pt x="226" y="41" on="0"/>
        <pt x="173" y="-12" on="0"/>
      </contour>
      <contour>
        <pt x="140" y="279" on="0"/>
        <pt x="102" y="321" on="0"/>
        <pt x="102" y="391" on="0"/>
        <pt x="154" y="442" on="0"/>
        <pt x="225" y="442" on="0"/>
        <pt x="263" y="401" on="0"/>
        <pt x="263" y="332" on="0"/>
        <pt x="210" y="279" on="0"/>
      </contour>
    </TTGlyph>
    <TTGlyph name="comma" xMin="24" yMin="-192" xMax="200" yMax="151">
      <contour>
        <pt x="24" y="16" on="1"/>
        <pt x="24" y="88" on="0"/>
        <pt x="80" y="151" on="1"/>
        <pt x="132" y="151" on="0"/>
        <pt x="200" y="90" on="0"/>
        <pt x="200" y="49" on="1"/>
        <pt x="200" y="-53" on="0"/>
        <pt x="78" y="-192" on="1"/>
        <pt x="36" y="-165" on="1"/>
        <pt x="98" y="-71" on="0"/>
        <pt x="103" y="-32" on="1"/>
      </contour>
    </TTGlyph>
    <TTGlyph name="commaaccent" xMin="27" yMin="-262" xMax="182" yMax="-14">
      <contour>
        <pt x="182" y="-90" on="1"/>
        <pt x="182" y="-174" on="0"/>
        <pt x="94" y="-262" on="1"/>
        <pt x="60" y="-244" on="1"/>
        <pt x="80" y="-203" on="0"/>
        <pt x="86" y="-156" on="1"/>
        <pt x="27" y="-105" on="1"/>
        <pt x="31" y="-84" on="0"/>
        <pt x="78" y="-24" on="0"/>
        <pt x="102" y="-14" on="1"/>
        <pt x="134" y="-14" on="0"/>
        <pt x="182" y="-64" on="0"/>
      </contour>
    </TTGlyph>
    <TTGlyph name="copyright" xMin="35" yMin="-12" xMax="781" yMax="710">
      <contour>
        <pt x="502" y="573" on="0"/>
        <pt x="586" y="513" on="0"/>
        <pt x="586" y="440" on="0"/>
        <pt x="571" y="414" on="1"/>
        <pt x="545" y="414" on="0"/>
        <pt x="479" y="431" on="0"/>
        <pt x="463" y="443" on="1"/>
        <pt x="470" y="513" on="1"/>
        <pt x="453" y="523" on="0"/>
        <pt x="437" y="523" on="1"/>
        <pt x="394" y="523" on="0"/>
        <pt x="341" y="422" on="0"/>
        <pt x="341" y="328" on="1"/>
        <pt x="341" y="270" on="0"/>
        <pt x="391" y="200" on="0"/>
        <pt x="426" y="200" on="1"/>
        <pt x="478" y="200" on="0"/>
        <pt x="530" y="245" on="1"/>
        <pt x="554" y="213" on="1"/>
        <pt x="521" y="163" on="0"/>
        <pt x="451" y="141" on="1"/>
        <pt x="423" y="132" on="0"/>
        <pt x="392" y="132" on="1"/>
        <pt x="315" y="132" on="0"/>
        <pt x="212" y="234" on="0"/>
        <pt x="212" y="427" on="0"/>
        <pt x="347" y="573" on="0"/>
        <pt x="447" y="573" on="1"/>
      </contour>
      <contour>
        <pt x="229" y="-12" on="0"/>
        <pt x="35" y="191" on="0"/>
        <pt x="35" y="503" on="0"/>
        <pt x="233" y="710" on="0"/>
        <pt x="588" y="710" on="0"/>
        <pt x="781" y="508" on="0"/>
        <pt x="781" y="191" on="0"/>
        <pt x="587" y="-12" on="0"/>
      </contour>
      <contour>
        <pt x="265" y="645" on="0"/>
        <pt x="105" y="475" on="0"/>
        <pt x="105" y="220" on="0"/>
        <pt x="261" y="53" on="0"/>
        <pt x="555" y="53" on="0"/>
        <pt x="711" y="220" on="0"/>
        <pt x="711" y="480" on="0"/>
        <pt x="555" y="645" on="0"/>
      </contour>
    </TTGlyph>
    <TTGlyph name="currency" xMin="47" yMin="60" xMax="636" yMax="638">
      <contour>
        <pt x="151" y="217" on="1"/>
        <pt x="116" y="271" on="0"/>
        <pt x="116" y="423" on="0"/>
        <pt x="149" y="478" on="1"/>
        <pt x="79" y="536" on="0"/>
        <pt x="47" y="579" on="1"/>
        <pt x="93" y="638" on="0"/>
        <pt x="117" y="638" on="1"/>
        <pt x="128" y="638" on="0"/>
        <pt x="150" y="614" on="0"/>
        <pt x="195" y="557" on="0"/>
        <pt x="211" y="541" on="1"/>
        <pt x="268" y="575" on="0"/>
        <pt x="422" y="575" on="0"/>
        <pt x="479" y="541" on="1"/>
        <pt x="519" y="593" on="0"/>
        <pt x="540" y="624" on="1"/>
        <pt x="550" y="638" on="0"/>
        <pt x="576" y="637" on="0"/>
        <pt x="583" y="634" on="1"/>
        <pt x="600" y="627" on="0"/>
        <pt x="636" y="582" on="1"/>
        <pt x="605" y="539" on="0"/>
        <pt x="541" y="480" on="1"/>
        <pt x="576" y="424" on="0"/>
        <pt x="576" y="274" on="0"/>
        <pt x="541" y="218" on="1"/>
        <pt x="608" y="157" on="0"/>
        <pt x="636" y="117" on="1"/>
        <pt x="590" y="60" on="0"/>
        <pt x="566" y="60" on="1"/>
        <pt x="552" y="60" on="0"/>
        <pt x="534" y="83" on="0"/>
        <pt x="491" y="141" on="0"/>
        <pt x="479" y="157" on="1"/>
        <pt x="425" y="123" on="0"/>
        <pt x="266" y="123" on="0"/>
        <pt x="210" y="158" on="1"/>
        <pt x="209" y="157" on="0"/>
        <pt x="151" y="73" on="1"/>
        <pt x="142" y="61" on="0"/>
        <pt x="130" y="61" on="1"/>
        <pt x="103" y="61" on="0"/>
        <pt x="57" y="117" on="1"/>
        <pt x="92" y="164" on="0"/>
      </contour>
      <contour>
        <pt x="275" y="493" on="0"/>
        <pt x="202" y="413" on="0"/>
        <pt x="202" y="286" on="0"/>
        <pt x="275" y="205" on="0"/>
        <pt x="416" y="205" on="0"/>
        <pt x="490" y="286" on="0"/>
        <pt x="490" y="412" on="0"/>
        <pt x="416" y="493" on="0"/>
      </contour>
    </TTGlyph>
    <TTGlyph name="d" xMin="32" yMin="-12" xMax="514" yMax="734">
      <contour>
        <pt x="504" y="61" on="1"/>
        <pt x="419" y="-12" on="0"/>
        <pt x="290" y="-12" on="0"/>
        <pt x="280" y="52" on="1"/>
        <pt x="250" y="22" on="0"/>
        <pt x="176" y="-12" on="0"/>
        <pt x="148" y="-12" on="1"/>
        <pt x="100" y="-12" on="0"/>
        <pt x="32" y="72" on="0"/>
        <pt x="32" y="160" on="1"/>
        <pt x="32" y="292" on="0"/>
        <pt x="144" y="443" on="0"/>
        <pt x="285" y="443" on="0"/>
        <pt x="333" y="411" on="1"/>
        <pt x="364" y="573" on="0"/>
        <pt x="364" y="666" on="1"/>
        <pt x="359" y="708" on="1"/>
        <pt x="434" y="734" on="0"/>
        <pt x="506" y="734" on="1"/>
        <pt x="514" y="717" on="0"/>
        <pt x="514" y="695" on="1"/>
        <pt x="514" y="622" on="0"/>
        <pt x="426" y="175" on="0"/>
        <pt x="426" y="95" on="1"/>
        <pt x="426" y="71" on="0"/>
        <pt x="437" y="71" on="1"/>
        <pt x="443" y="71" on="0"/>
        <pt x="475" y="90" on="1"/>
        <pt x="485" y="96" on="1"/>
      </contour>
      <contour>
        <pt x="263" y="384" on="1"/>
        <pt x="228" y="384" on="0"/>
        <pt x="177" y="246" on="0"/>
        <pt x="177" y="111" on="0"/>
        <pt x="196" y="73" on="0"/>
        <pt x="215" y="73" on="1"/>
        <pt x="248" y="73" on="0"/>
        <pt x="280" y="100" on="1"/>
        <pt x="283" y="140" on="0"/>
        <pt x="325" y="366" on="1"/>
        <pt x="291" y="384" on="0"/>
      </contour>
    </TTGlyph>
    <TTGlyph name="degree" xMin="40" yMin="481" xMax="300" yMax="714">
      <contour>
        <pt x="237" y="714" on="0"/>
        <pt x="300" y="667" on="0"/>
        <pt x="300" y="568" on="0"/>
        <pt x="226" y="481" on="0"/>
        <pt x="156" y="481" on="1"/>
        <pt x="106" y="481" on="0"/>
        <pt x="40" y="531" on="0"/>
        <pt x="40" y="638" on="0"/>
        <pt x="117" y="714" on="0"/>
      </contour>
      <contour>
        <pt x="160" y="530" on="1"/>
        <pt x="193" y="530" on="0"/>
        <pt x="219" y="584" on="0"/>
        <pt x="219" y="619" on="1"/>
        <pt x="219" y="665" on="0"/>
        <pt x="180" y="665" on="1"/>
        <pt x="148" y="665" on="0"/>
        <pt x="120" y="613" on="0"/>
        <pt x="120" y="576" on="1"/>
        <pt x="120" y="530" on="0"/>
      </contour>
    </TTGlyph>
    <TTGlyph name="dieresis" xMin="90" yMin="539" xMax="423" yMax="678">
      <contour>
        <pt x="122" y="539" on="0"/>
        <pt x="90" y="575" on="0"/>
        <pt x="90" y="635" on="0"/>
        <pt x="135" y="678" on="0"/>
        <pt x="164" y="678" on="1"/>
        <pt x="227" y="678" on="0"/>
        <pt x="227" y="613" on="1"/>
        <pt x="227" y="584" on="0"/>
        <pt x="181" y="539" on="0"/>
      </contour>
      <contour>
        <pt x="317" y="539" on="0"/>
        <pt x="286" y="574" on="0"/>
        <pt x="286" y="635" on="0"/>
        <pt x="331" y="678" on="0"/>
        <pt x="391" y="678" on="0"/>
        <pt x="423" y="643" on="0"/>
        <pt x="423" y="584" on="0"/>
        <pt x="377" y="539" on="0"/>
      </contour>
    </TTGlyph>
    <TTGlyph name="dieresis.cap" xMin="85" yMin="765" xMax="433" yMax="899">
      <contour>
        <pt x="118" y="765" on="0"/>
        <pt x="85" y="799" on="0"/>
        <pt x="85" y="858" on="0"/>
        <pt x="131" y="899" on="0"/>
        <pt x="162" y="899" on="1"/>
        <pt x="227" y="899" on="0"/>
        <pt x="227" y="836" on="1"/>
        <pt x="227" y="808" on="0"/>
        <pt x="180" y="765" on="0"/>
      </contour>
      <contour>
        <pt x="323" y="765" on="0"/>
        <pt x="291" y="799" on="0"/>
        <pt x="291" y="858" on="0"/>
        <pt x="336" y="899" on="0"/>
        <pt x="367" y="899" on="1"/>
        <pt x="433" y="899" on="0"/>
        <pt x="433" y="836" on="1"/>
        <pt x="433" y="808" on="0"/>
        <pt x="385" y="765" on="0"/>
      </contour>
    </TTGlyph>
    <TTGlyph name="divide" xMin="70" yMin="40" xMax="450" yMax="523">
      <contour>
        <pt x="70" y="238" on="1"/>
        <pt x="70" y="301" on="0"/>
        <pt x="81" y="325" on="1"/>
        <pt x="450" y="325" on="1"/>
        <pt x="450" y="258" on="0"/>
        <pt x="444" y="238" on="1"/>
      </contour>
      <contour>
        <pt x="222" y="384" on="0"/>
        <pt x="190" y="420" on="0"/>
        <pt x="190" y="479" on="0"/>
        <pt x="234" y="523" on="0"/>
        <pt x="294" y="523" on="0"/>
        <pt x="327" y="487" on="0"/>
        <pt x="327" y="430" on="0"/>
        <pt x="282" y="384" on="0"/>
      </contour>
      <contour>
        <pt x="214" y="40" on="0"/>
        <pt x="182" y="76" on="0"/>
        <pt x="182" y="135" on="0"/>
        <pt x="226" y="179" on="0"/>
        <pt x="286" y="179" on="0"/>
        <pt x="319" y="143" on="0"/>
        <pt x="319" y="86" on="0"/>
        <pt x="274" y="40" on="0"/>
      </contour>
    </TTGlyph>
    <TTGlyph name="dollar" xMin="20" yMin="-118" xMax="460" yMax="802">
      <contour>
        <pt x="436" y="196" on="1"/>
        <pt x="436" y="110" on="0"/>
        <pt x="317" y="2" on="0"/>
        <pt x="228" y="-9" on="1"/>
        <pt x="218" y="-84" on="0"/>
        <pt x="218" y="-118" on="1"/>
        <pt x="191" y="-118" on="0"/>
        <pt x="154" y="-105" on="1"/>
        <pt x="171" y="-11" on="1"/>
        <pt x="107" y="-7" on="0"/>
        <pt x="25" y="60" on="0"/>
        <pt x="20" y="84" on="1"/>
        <pt x="31" y="117" on="0"/>
        <pt x="103" y="199" on="0"/>
        <pt x="132" y="208" on="1"/>
        <pt x="183" y="175" on="0"/>
        <pt x="227" y="61" on="1"/>
        <pt x="256" y="62" on="0"/>
        <pt x="292" y="97" on="0"/>
        <pt x="292" y="170" on="0"/>
        <pt x="231" y="281" on="0"/>
        <pt x="159" y="378" on="0"/>
        <pt x="98" y="499" on="0"/>
        <pt x="98" y="546" on="1"/>
        <pt x="98" y="622" on="0"/>
        <pt x="222" y="710" on="0"/>
        <pt x="309" y="710" on="1"/>
        <pt x="315" y="710" on="1"/>
        <pt x="322" y="764" on="0"/>
        <pt x="324" y="802" on="1"/>
        <pt x="351" y="802" on="0"/>
        <pt x="388" y="789" on="1"/>
        <pt x="372" y="701" on="1"/>
        <pt x="413" y="688" on="0"/>
        <pt x="460" y="631" on="0"/>
        <pt x="460" y="560" on="0"/>
        <pt x="396" y="472" on="0"/>
        <pt x="364" y="446" on="1"/>
        <pt x="332" y="420" on="1"/>
        <pt x="344" y="404" on="0"/>
        <pt x="378" y="354" on="0"/>
        <pt x="436" y="234" on="0"/>
      </contour>
      <contour>
        <pt x="373" y="537" on="0"/>
        <pt x="395" y="574" on="0"/>
        <pt x="395" y="615" on="0"/>
        <pt x="347" y="643" on="0"/>
        <pt x="280" y="643" on="0"/>
        <pt x="235" y="612" on="0"/>
        <pt x="235" y="569" on="0"/>
        <pt x="264" y="512" on="0"/>
        <pt x="278" y="493" on="1"/>
        <pt x="293" y="474" on="1"/>
        <pt x="303" y="479" on="0"/>
        <pt x="346" y="511" on="0"/>
      </contour>
    </TTGlyph>
    <TTGlyph name="dotaccentcmb" xMin="143" yMin="544" xMax="290" yMax="693">
      <contour>
        <pt x="178" y="544" on="0"/>
        <pt x="143" y="583" on="0"/>
        <pt x="143" y="646" on="0"/>
        <pt x="192" y="693" on="0"/>
        <pt x="256" y="693" on="0"/>
        <pt x="290" y="655" on="0"/>
        <pt x="290" y="594" on="0"/>
        <pt x="240" y="544" on="0"/>
      </contour>
    </TTGlyph>
    <TTGlyph name="dotaccentcmb.cap" xMin="124" yMin="732" xMax="271" yMax="881">
      <contour>
        <pt x="159" y="732" on="0"/>
        <pt x="124" y="771" on="0"/>
        <pt x="124" y="834" on="0"/>
        <pt x="173" y="881" on="0"/>
        <pt x="237" y="881" on="0"/>
        <pt x="271" y="843" on="0"/>
        <pt x="271" y="782" on="0"/>
        <pt x="221" y="732" on="0"/>
      </contour>
    </TTGlyph>
    <TTGlyph name="dotlessi" xMin="36" yMin="-12" xMax="267" yMax="438">
      <contour>
        <pt x="183" y="98" on="1"/>
        <pt x="183" y="71" on="0"/>
        <pt x="192" y="71" on="1"/>
        <pt x="198" y="71" on="0"/>
        <pt x="238" y="90" on="1"/>
        <pt x="250" y="96" on="1"/>
        <pt x="267" y="61" on="1"/>
        <pt x="258" y="53" on="0"/>
        <pt x="228" y="29" on="0"/>
        <pt x="146" y="-12" on="0"/>
        <pt x="76" y="-12" on="0"/>
        <pt x="36" y="31" on="0"/>
        <pt x="36" y="104" on="0"/>
        <pt x="86" y="291" on="0"/>
        <pt x="86" y="319" on="1"/>
        <pt x="86" y="361" on="0"/>
        <pt x="60" y="398" on="1"/>
        <pt x="51" y="410" on="1"/>
        <pt x="52" y="423" on="1"/>
        <pt x="105" y="438" on="0"/>
        <pt x="224" y="438" on="1"/>
        <pt x="237" y="423" on="0"/>
        <pt x="237" y="337" on="0"/>
        <pt x="185" y="138" on="0"/>
        <pt x="183" y="103" on="0"/>
      </contour>
    </TTGlyph>
    <TTGlyph name="dotlessj" xMin="-156" yMin="-224" xMax="237" yMax="438">
      <contour>
        <pt x="89" y="333" on="1"/>
        <pt x="89" y="356" on="0"/>
        <pt x="60" y="396" on="1"/>
        <pt x="51" y="410" on="1"/>
        <pt x="52" y="423" on="1"/>
        <pt x="109" y="438" on="0"/>
        <pt x="224" y="438" on="1"/>
        <pt x="237" y="423" on="0"/>
        <pt x="237" y="342" on="0"/>
        <pt x="188" y="46" on="0"/>
        <pt x="155" y="-84" on="0"/>
        <pt x="119" y="-159" on="0"/>
        <pt x="42" y="-224" on="0"/>
        <pt x="-45" y="-224" on="0"/>
        <pt x="-119" y="-186" on="0"/>
        <pt x="-138" y="-168" on="1"/>
        <pt x="-156" y="-149" on="1"/>
        <pt x="-134" y="-117" on="1"/>
        <pt x="-85" y="-146" on="0"/>
        <pt x="-61" y="-146" on="1"/>
        <pt x="-23" y="-146" on="0"/>
        <pt x="37" y="-40" on="0"/>
        <pt x="89" y="275" on="0"/>
      </contour>
    </TTGlyph>
    <TTGlyph name="e" xMin="26" yMin="-13" xMax="408" yMax="443">
      <contour>
        <pt x="26" y="173" on="1"/>
        <pt x="26" y="298" on="0"/>
        <pt x="177" y="443" on="0"/>
        <pt x="273" y="443" on="1"/>
        <pt x="332" y="443" on="0"/>
        <pt x="408" y="385" on="0"/>
        <pt x="408" y="288" on="0"/>
        <pt x="359" y="222" on="0"/>
        <pt x="324" y="204" on="1"/>
        <pt x="253" y="169" on="0"/>
        <pt x="194" y="160" on="1"/>
        <pt x="170" y="157" on="1"/>
        <pt x="177" y="63" on="0"/>
        <pt x="247" y="63" on="1"/>
        <pt x="271" y="63" on="0"/>
        <pt x="325" y="87" on="0"/>
        <pt x="340" y="99" on="1"/>
        <pt x="355" y="111" on="1"/>
        <pt x="379" y="79" on="1"/>
        <pt x="371" y="68" on="0"/>
        <pt x="323" y="32" on="0"/>
        <pt x="302" y="20" on="1"/>
        <pt x="244" y="-12" on="0"/>
        <pt x="106" y="-12" on="0"/>
        <pt x="26" y="86" on="0"/>
      </contour>
      <contour>
        <pt x="220" y="215" on="0"/>
        <pt x="280" y="283" on="0"/>
        <pt x="280" y="391" on="0"/>
        <pt x="248" y="391" on="1"/>
        <pt x="210" y="391" on="0"/>
        <pt x="169" y="262" on="0"/>
        <pt x="169" y="206" on="1"/>
      </contour>
    </TTGlyph>
    <TTGlyph name="eacute" xMin="26" yMin="-13" xMax="411" yMax="705">
      <contour>
        <pt x="26" y="173" on="1"/>
        <pt x="26" y="298" on="0"/>
        <pt x="177" y="443" on="0"/>
        <pt x="273" y="443" on="1"/>
        <pt x="332" y="443" on="0"/>
        <pt x="408" y="385" on="0"/>
        <pt x="408" y="288" on="0"/>
        <pt x="359" y="222" on="0"/>
        <pt x="324" y="204" on="1"/>
        <pt x="253" y="169" on="0"/>
        <pt x="194" y="160" on="1"/>
        <pt x="170" y="157" on="1"/>
        <pt x="177" y="63" on="0"/>
        <pt x="247" y="63" on="1"/>
        <pt x="271" y="63" on="0"/>
        <pt x="325" y="87" on="0"/>
        <pt x="340" y="99" on="1"/>
        <pt x="355" y="111" on="1"/>
        <pt x="379" y="79" on="1"/>
        <pt x="371" y="68" on="0"/>
        <pt x="323" y="32" on="0"/>
        <pt x="302" y="20" on="1"/>
        <pt x="244" y="-12" on="0"/>
        <pt x="106" y="-12" on="0"/>
        <pt x="26" y="86" on="0"/>
      </contour>
      <contour>
        <pt x="220" y="215" on="0"/>
        <pt x="280" y="283" on="0"/>
        <pt x="280" y="391" on="0"/>
        <pt x="248" y="391" on="1"/>
        <pt x="210" y="391" on="0"/>
        <pt x="169" y="262" on="0"/>
        <pt x="169" y="206" on="1"/>
      </contour>
      <contour>
        <pt x="411" y="616" on="1"/>
        <pt x="411" y="588" on="0"/>
        <pt x="375" y="571" on="1"/>
        <pt x="326" y="548" on="0"/>
        <pt x="130" y="503" on="1"/>
        <pt x="112" y="543" on="1"/>
        <pt x="206" y="592" on="0"/>
        <pt x="358" y="694" on="0"/>
        <pt x="376" y="705" on="1"/>
        <pt x="386" y="691" on="0"/>
        <pt x="411" y="631" on="0"/>
      </contour>
    </TTGlyph>
    <TTGlyph name="ecircumflex" xMin="26" yMin="-13" xMax="458" yMax="705">
      <contour>
        <pt x="26" y="173" on="1"/>
        <pt x="26" y="298" on="0"/>
        <pt x="177" y="443" on="0"/>
        <pt x="273" y="443" on="1"/>
        <pt x="332" y="443" on="0"/>
        <pt x="408" y="385" on="0"/>
        <pt x="408" y="288" on="0"/>
        <pt x="359" y="222" on="0"/>
        <pt x="324" y="204" on="1"/>
        <pt x="253" y="169" on="0"/>
        <pt x="194" y="160" on="1"/>
        <pt x="170" y="157" on="1"/>
        <pt x="177" y="63" on="0"/>
        <pt x="247" y="63" on="1"/>
        <pt x="271" y="63" on="0"/>
        <pt x="325" y="87" on="0"/>
        <pt x="340" y="99" on="1"/>
        <pt x="355" y="111" on="1"/>
        <pt x="379" y="79" on="1"/>
        <pt x="371" y="68" on="0"/>
        <pt x="323" y="32" on="0"/>
        <pt x="302" y="20" on="1"/>
        <pt x="244" y="-12" on="0"/>
        <pt x="106" y="-12" on="0"/>
        <pt x="26" y="86" on="0"/>
      </contour>
      <contour>
        <pt x="220" y="215" on="0"/>
        <pt x="280" y="283" on="0"/>
        <pt x="280" y="391" on="0"/>
        <pt x="248" y="391" on="1"/>
        <pt x="210" y="391" on="0"/>
        <pt x="169" y="262" on="0"/>
        <pt x="169" y="206" on="1"/>
      </contour>
      <contour>
        <pt x="331" y="705" on="1"/>
        <pt x="364" y="705" on="0"/>
        <pt x="458" y="536" on="1"/>
        <pt x="427" y="507" on="1"/>
        <pt x="341" y="574" on="0"/>
        <pt x="298" y="590" on="1"/>
        <pt x="217" y="568" on="0"/>
        <pt x="109" y="503" on="1"/>
        <pt x="82" y="540" on="1"/>
        <pt x="135" y="591" on="0"/>
        <pt x="304" y="705" on="0"/>
      </contour>
    </TTGlyph>
    <TTGlyph name="edieresis" xMin="26" yMin="-13" xMax="442" yMax="678">
      <contour>
        <pt x="26" y="173" on="1"/>
        <pt x="26" y="298" on="0"/>
        <pt x="177" y="443" on="0"/>
        <pt x="273" y="443" on="1"/>
        <pt x="332" y="443" on="0"/>
        <pt x="408" y="385" on="0"/>
        <pt x="408" y="288" on="0"/>
        <pt x="359" y="222" on="0"/>
        <pt x="324" y="204" on="1"/>
        <pt x="253" y="169" on="0"/>
        <pt x="194" y="160" on="1"/>
        <pt x="170" y="157" on="1"/>
        <pt x="177" y="63" on="0"/>
        <pt x="247" y="63" on="1"/>
        <pt x="271" y="63" on="0"/>
        <pt x="325" y="87" on="0"/>
        <pt x="340" y="99" on="1"/>
        <pt x="355" y="111" on="1"/>
        <pt x="379" y="79" on="1"/>
        <pt x="371" y="68" on="0"/>
        <pt x="323" y="32" on="0"/>
        <pt x="302" y="20" on="1"/>
        <pt x="244" y="-12" on="0"/>
        <pt x="106" y="-12" on="0"/>
        <pt x="26" y="86" on="0"/>
      </contour>
      <contour>
        <pt x="220" y="215" on="0"/>
        <pt x="280" y="283" on="0"/>
        <pt x="280" y="391" on="0"/>
        <pt x="248" y="391" on="1"/>
        <pt x="210" y="391" on="0"/>
        <pt x="169" y="262" on="0"/>
        <pt x="169" y="206" on="1"/>
      </contour>
      <contour>
        <pt x="141" y="539" on="0"/>
        <pt x="109" y="575" on="0"/>
        <pt x="109" y="635" on="0"/>
        <pt x="154" y="678" on="0"/>
        <pt x="183" y="678" on="1"/>
        <pt x="246" y="678" on="0"/>
        <pt x="246" y="613" on="1"/>
        <pt x="246" y="584" on="0"/>
        <pt x="200" y="539" on="0"/>
      </contour>
      <contour>
        <pt x="336" y="539" on="0"/>
        <pt x="305" y="574" on="0"/>
        <pt x="305" y="635" on="0"/>
        <pt x="350" y="678" on="0"/>
        <pt x="410" y="678" on="0"/>
        <pt x="442" y="643" on="0"/>
        <pt x="442" y="584" on="0"/>
        <pt x="396" y="539" on="0"/>
      </contour>
    </TTGlyph>
    <TTGlyph name="egrave" xMin="26" yMin="-13" xMax="408" yMax="693">
      <contour>
        <pt x="26" y="173" on="1"/>
        <pt x="26" y="298" on="0"/>
        <pt x="177" y="443" on="0"/>
        <pt x="273" y="443" on="1"/>
        <pt x="332" y="443" on="0"/>
        <pt x="408" y="385" on="0"/>
        <pt x="408" y="288" on="0"/>
        <pt x="359" y="222" on="0"/>
        <pt x="324" y="204" on="1"/>
        <pt x="253" y="169" on="0"/>
        <pt x="194" y="160" on="1"/>
        <pt x="170" y="157" on="1"/>
        <pt x="177" y="63" on="0"/>
        <pt x="247" y="63" on="1"/>
        <pt x="271" y="63" on="0"/>
        <pt x="325" y="87" on="0"/>
        <pt x="340" y="99" on="1"/>
        <pt x="355" y="111" on="1"/>
        <pt x="379" y="79" on="1"/>
        <pt x="371" y="68" on="0"/>
        <pt x="323" y="32" on="0"/>
        <pt x="302" y="20" on="1"/>
        <pt x="244" y="-12" on="0"/>
        <pt x="106" y="-12" on="0"/>
        <pt x="26" y="86" on="0"/>
      </contour>
      <contour>
        <pt x="220" y="215" on="0"/>
        <pt x="280" y="283" on="0"/>
        <pt x="280" y="391" on="0"/>
        <pt x="248" y="391" on="1"/>
        <pt x="210" y="391" on="0"/>
        <pt x="169" y="262" on="0"/>
        <pt x="169" y="206" on="1"/>
      </contour>
      <contour>
        <pt x="157" y="693" on="1"/>
        <pt x="184" y="693" on="0"/>
        <pt x="245" y="651" on="1"/>
        <pt x="261" y="640" on="0"/>
        <pt x="286" y="623" on="0"/>
        <pt x="324" y="595" on="0"/>
        <pt x="336" y="586" on="1"/>
        <pt x="366" y="561" on="0"/>
        <pt x="400" y="537" on="1"/>
        <pt x="378" y="499" on="1"/>
        <pt x="255" y="546" on="0"/>
        <pt x="86" y="600" on="1"/>
        <pt x="124" y="693" on="0"/>
      </contour>
    </TTGlyph>
    <TTGlyph name="eight" xMin="40" yMin="-11" xMax="500" yMax="710">
      <contour>
        <pt x="453" y="103" on="0"/>
        <pt x="307" y="-11" on="0"/>
        <pt x="136" y="-11" on="0"/>
        <pt x="40" y="73" on="0"/>
        <pt x="40" y="140" on="1"/>
        <pt x="40" y="253" on="0"/>
        <pt x="200" y="361" on="1"/>
        <pt x="122" y="482" on="0"/>
        <pt x="122" y="623" on="0"/>
        <pt x="251" y="710" on="0"/>
        <pt x="416" y="710" on="0"/>
        <pt x="500" y="638" on="0"/>
        <pt x="500" y="586" on="1"/>
        <pt x="500" y="499" on="0"/>
        <pt x="370" y="384" on="1"/>
        <pt x="377" y="372" on="0"/>
        <pt x="415" y="316" on="0"/>
        <pt x="425" y="298" on="1"/>
        <pt x="453" y="250" on="0"/>
        <pt x="453" y="195" on="1"/>
      </contour>
      <contour>
        <pt x="127" y="145" on="1"/>
        <pt x="127" y="104" on="0"/>
        <pt x="179" y="56" on="0"/>
        <pt x="262" y="56" on="0"/>
        <pt x="324" y="97" on="0"/>
        <pt x="324" y="131" on="1"/>
        <pt x="324" y="170" on="0"/>
        <pt x="281" y="238" on="1"/>
        <pt x="266" y="261" on="0"/>
        <pt x="237" y="305" on="1"/>
        <pt x="127" y="230" on="0"/>
      </contour>
      <contour>
        <pt x="416" y="585" on="1"/>
        <pt x="416" y="643" on="0"/>
        <pt x="349" y="643" on="1"/>
        <pt x="313" y="643" on="0"/>
        <pt x="262" y="612" on="0"/>
        <pt x="262" y="557" on="0"/>
        <pt x="315" y="463" on="0"/>
        <pt x="333" y="440" on="1"/>
        <pt x="363" y="464" on="0"/>
        <pt x="416" y="553" on="0"/>
      </contour>
    </TTGlyph>
    <TTGlyph name="emdash" xMin="64" yMin="238" xMax="925" yMax="325">
      <contour>
        <pt x="64" y="238" on="1"/>
        <pt x="64" y="271" on="0"/>
        <pt x="67" y="325" on="1"/>
        <pt x="925" y="325" on="1"/>
        <pt x="925" y="280" on="0"/>
        <pt x="922" y="238" on="1"/>
      </contour>
    </TTGlyph>
    <TTGlyph name="endash" xMin="54" yMin="238" xMax="486" yMax="323">
      <contour>
        <pt x="54" y="238" on="1"/>
        <pt x="54" y="293" on="0"/>
        <pt x="57" y="323" on="1"/>
        <pt x="486" y="323" on="1"/>
        <pt x="486" y="280" on="0"/>
        <pt x="483" y="238" on="1"/>
      </contour>
    </TTGlyph>
    <TTGlyph name="equal" xMin="85" yMin="159" xMax="465" yMax="405">
      <contour>
        <pt x="85" y="159" on="1"/>
        <pt x="85" y="221" on="0"/>
        <pt x="95" y="249" on="1"/>
        <pt x="465" y="249" on="1"/>
        <pt x="465" y="182" on="0"/>
        <pt x="459" y="159" on="1"/>
      </contour>
      <contour>
        <pt x="85" y="315" on="1"/>
        <pt x="85" y="374" on="0"/>
        <pt x="96" y="405" on="1"/>
        <pt x="465" y="405" on="1"/>
        <pt x="465" y="354" on="0"/>
        <pt x="459" y="315" on="1"/>
      </contour>
    </TTGlyph>
    <TTGlyph name="eth" xMin="22" yMin="-12" xMax="478" yMax="734">
      <contour>
        <pt x="464" y="301" on="1"/>
        <pt x="464" y="208" on="0"/>
        <pt x="428" y="130" on="1"/>
        <pt x="361" y="-12" on="0"/>
        <pt x="210" y="-12" on="1"/>
        <pt x="119" y="-12" on="0"/>
        <pt x="22" y="93" on="0"/>
        <pt x="22" y="280" on="0"/>
        <pt x="154" y="443" on="0"/>
        <pt x="257" y="443" on="1"/>
        <pt x="279" y="443" on="0"/>
        <pt x="304" y="438" on="1"/>
        <pt x="293" y="498" on="0"/>
        <pt x="275" y="543" on="1"/>
        <pt x="158" y="508" on="1"/>
        <pt x="141" y="527" on="0"/>
        <pt x="141" y="566" on="1"/>
        <pt x="246" y="597" on="1"/>
        <pt x="205" y="659" on="0"/>
        <pt x="137" y="697" on="1"/>
        <pt x="160" y="734" on="1"/>
        <pt x="264" y="707" on="0"/>
        <pt x="341" y="624" on="1"/>
        <pt x="466" y="661" on="1"/>
        <pt x="478" y="630" on="0"/>
        <pt x="478" y="607" on="1"/>
        <pt x="477" y="603" on="1"/>
        <pt x="380" y="574" on="1"/>
        <pt x="464" y="449" on="0"/>
      </contour>
      <contour>
        <pt x="314" y="298" on="1"/>
        <pt x="314" y="341" on="0"/>
        <pt x="311" y="380" on="1"/>
        <pt x="297" y="383" on="0"/>
        <pt x="285" y="383" on="1"/>
        <pt x="223" y="383" on="0"/>
        <pt x="162" y="249" on="0"/>
        <pt x="162" y="164" on="1"/>
        <pt x="162" y="51" on="0"/>
        <pt x="221" y="51" on="1"/>
        <pt x="270" y="51" on="0"/>
        <pt x="314" y="195" on="0"/>
      </contour>
    </TTGlyph>
</ttFont>
